SplineFontDB: 3.2
FontName: HoeKomikaSlim-Italic
FullName: Hoe!Komika Slim Italic
FamilyName: Hoe!Komika Slim
Weight: Book
Copyright: (c) 1999-2001, WolfBainX & Apostrophic Lab. All rights reserved. www.apostrophiclab.com or info@apostrophiclab.com for more information.
Version: 2.0
ItalicAngle: -12
UnderlinePosition: -125
UnderlineWidth: 50
Ascent: 800
Descent: 200
InvalidEm: 0
sfntRevision: 0x00010000
LayerCount: 2
Layer: 0 1 "Back" 1
Layer: 1 1 "Fore" 0
XUID: [1021 618 -23699139 1659084]
StyleMap: 0x0001
FSType: 0
OS2Version: 0
OS2_WeightWidthSlopeOnly: 0
OS2_UseTypoMetrics: 0
CreationTime: 992716982
ModificationTime: 1625495460
PfmFamily: 17
TTFWeight: 400
TTFWidth: 5
LineGap: 30
VLineGap: 0
Panose: 2 0 0 0 0 0 0 0 0 0
OS2TypoAscent: 753
OS2TypoAOffset: 0
OS2TypoDescent: -23
OS2TypoDOffset: 0
OS2TypoLinegap: 30
OS2WinAscent: 1024
OS2WinAOffset: 0
OS2WinDescent: 173
OS2WinDOffset: 0
HheadAscent: 1024
HheadAOffset: 0
HheadDescent: -173
HheadDOffset: 0
OS2SubXSize: 100
OS2SubYSize: 100
OS2SubXOff: 0
OS2SubYOff: 140
OS2SupXSize: 100
OS2SupYSize: 100
OS2SupXOff: 0
OS2SupYOff: 140
OS2StrikeYSize: 50
OS2StrikeYPos: 250
OS2Vendor: 'APOS'
OS2UnicodeRanges: 80000003.00000000.00000000.00000000
Lookup: 260 0 0 "'mark' Mark Positioning in Latin lookup 0" { "'mark' Mark Positioning in Latin lookup 0-1"  } ['mark' ('DFLT' <'dflt' > 'latn' <'dflt' > ) ]
MarkAttachClasses: 1
DEI: 91125
TtTable: prep
PUSHW_1
 0
CALL
EndTTInstrs
TtTable: fpgm
PUSHW_1
 0
FDEF
MPPEM
PUSHW_1
 9
LT
IF
PUSHB_2
 1
 1
INSTCTRL
EIF
PUSHW_1
 511
SCANCTRL
PUSHW_1
 68
SCVTCI
PUSHW_2
 9
 3
SDS
SDB
ENDF
PUSHW_1
 1
FDEF
DUP
DUP
RCVT
ROUND[Black]
WCVTP
PUSHB_1
 1
ADD
ENDF
PUSHW_1
 2
FDEF
PUSHW_1
 1
LOOPCALL
POP
ENDF
PUSHW_1
 3
FDEF
DUP
GC[cur]
PUSHB_1
 3
CINDEX
GC[cur]
GT
IF
SWAP
EIF
DUP
ROLL
DUP
ROLL
MD[grid]
ABS
ROLL
DUP
GC[cur]
DUP
ROUND[Grey]
SUB
ABS
PUSHB_1
 4
CINDEX
GC[cur]
DUP
ROUND[Grey]
SUB
ABS
GT
IF
SWAP
NEG
ROLL
EIF
MDAP[rnd]
DUP
PUSHB_1
 0
GTEQ
IF
ROUND[Black]
DUP
PUSHB_1
 0
EQ
IF
POP
PUSHB_1
 64

StartChar: dotaccent
Encoding: 6 6 4
Width: 331
Flags: W
LayerCount: 2
Fore
SplineSet
308 856 m 0,0,1
 300 833 300 833 311 816 c 128,-1,2
 322 799 322 799 349 799 c 0,3,4
 361 799 361 799 373.5 805.5 c 128,-1,5
 386 812 386 812 397 822.5 c 128,-1,6
 408 833 408 833 416 845 c 128,-1,7
 424 857 424 857 426 868 c 0,8,9
 434 891 434 891 417.5 904 c 128,-1,10
 401 917 401 917 377 917 c 0,11,12
 349 917 349 917 331 898 c 128,-1,13
 313 879 313 879 308 856 c 0,0,1
EndSplineSet
Validated: 41
EndChar

StartChar: ring
Encoding: 8 8 5
Width: 539
Flags: W
LayerCount: 2
Fore
SplineSet
597 924 m 0,0,1
 601 942 601 942 600 960 c 128,-1,2
 599 978 599 978 591 992.5 c 128,-1,3
 583 1007 583 1007 568 1015.5 c 128,-1,4
 553 1024 553 1024 531 1024 c 0,5,6
 499 1024 499 1024 472 1009.5 c 128,-1,7
 445 995 445 995 424 973 c 128,-1,8
 403 951 403 951 389 924 c 128,-1,9
 375 897 375 897 369 873 c 0,10,11
 358 840 358 840 373.5 817.5 c 128,-1,12
 389 795 389 795 421 795 c 0,13,14
 451 795 451 795 479.5 805 c 128,-1,15
 508 815 508 815 531.5 832.5 c 128,-1,16
 555 850 555 850 572 873.5 c 128,-1,17
 589 897 589 897 597 924 c 0,0,1
429 884 m 0,18,19
 433 896 433 896 441 911.5 c 128,-1,20
 449 927 449 927 461 940 c 128,-1,21
 473 953 473 953 488 962 c 128,-1,22
 503 971 503 971 520 971 c 0,23,24
 530 971 530 971 536 966 c 128,-1,25
 542 961 542 961 544 953.5 c 128,-1,26
 546 946 546 946 545.5 937 c 128,-1,27
 545 928 545 928 544 921 c 0,28,29
 535 891 535 891 510 873.5 c 128,-1,30
 485 856 485 856 453 856 c 0,31,32
 449 856 449 856 442 858 c 128,-1,33
 435 860 435 860 427 869 c 0,34,35
 427 870 427 870 427.5 875 c 128,-1,36
 428 880 428 880 429 884 c 0,18,19
EndSplineSet
Validated: 41
EndChar

StartChar: caron
Encoding: 12 12 6
Width: 545
Flags: W
LayerCount: 2
Fore
SplineSet
455 872 m 0,0,1
 450 872 450 872 449 875 c 2,2,-1
 415 945 l 2,3,4
 413 949 413 949 402 948 c 128,-1,5
 391 947 391 947 387 947 c 0,6,7
 370 928 370 928 367.5 920 c 128,-1,8
 365 912 365 912 365 910 c 0,9,10
 373 892 373 892 383 871.5 c 128,-1,11
 393 851 393 851 401 831 c 0,12,13
 402 829 402 829 405.5 823 c 128,-1,14
 409 817 409 817 413.5 810.5 c 128,-1,15
 418 804 418 804 422.5 799 c 128,-1,16
 427 794 427 794 429 794 c 2,17,-1
 439 794 l 2,18,19
 440 794 440 794 450.5 801.5 c 128,-1,20
 461 809 461 809 475.5 819.5 c 128,-1,21
 490 830 490 830 505.5 841 c 128,-1,22
 521 852 521 852 530 860 c 0,23,24
 539 867 539 867 546 872 c 128,-1,25
 553 877 553 877 558.5 882.5 c 128,-1,26
 564 888 564 888 567.5 895.5 c 128,-1,27
 571 903 571 903 574 914 c 2,28,-1
 577 929 l 1,29,30
 574 942 574 942 564 942 c 0,31,32
 552 942 552 942 539 931 c 128,-1,33
 526 920 526 920 511.5 907 c 128,-1,34
 497 894 497 894 482.5 883 c 128,-1,35
 468 872 468 872 455 872 c 0,0,1
EndSplineSet
Validated: 9
EndChar

StartChar: dotlessi
Encoding: 13 13 7
Width: 177
Flags: W
AnchorPoint: "top" 267 793 basechar 0
LayerCount: 2
Fore
SplineSet
13 34 m 1,0,1
 14 11 14 11 23.5 5.5 c 128,-1,2
 33 0 33 0 56 0 c 0,3,4
 76 0 76 0 92 11 c 128,-1,5
 108 22 108 22 116 40 c 0,6,7
 165 169 165 169 204 292.5 c 128,-1,8
 243 416 243 416 278 545 c 1,9,-1
 285 567 l 2,10,11
 288 580 288 580 292.5 597 c 128,-1,12
 297 614 297 614 299 627 c 2,13,-1
 306 649 l 2,14,15
 308 660 308 660 308 672 c 0,16,17
 308 685 308 685 303.5 695 c 128,-1,18
 299 705 299 705 290 711.5 c 128,-1,19
 281 718 281 718 266 718 c 0,20,21
 252 718 252 718 242 712 c 128,-1,22
 232 706 232 706 217 689 c 1,23,24
 198 617 198 617 174 544.5 c 128,-1,25
 150 472 150 472 125 399.5 c 128,-1,26
 100 327 100 327 75.5 254 c 128,-1,27
 51 181 51 181 32 109 c 1,28,-1
 29 94 l 2,29,30
 27 89 27 89 26 83 c 128,-1,31
 25 77 25 77 23 71 c 0,32,33
 21 58 21 58 16 48 c 2,34,-1
 13 34 l 1,0,1
EndSplineSet
Validated: 2097161
EndChar

StartChar: Zcaron
Encoding: 30 30 8
Width: 563
Flags: W
LayerCount: 2
Fore
SplineSet
21 52 m 0,0,1
 14 33 14 33 21.5 23 c 128,-1,2
 29 13 29 13 43 0 c 1,3,-1
 60 0 l 2,4,5
 63 0 63 0 64.5 -0.5 c 128,-1,6
 66 -1 66 -1 70 -1 c 2,7,-1
 92 -1 l 2,8,9
 128 -1 128 -1 167 7 c 128,-1,10
 206 15 206 15 246 26 c 1,11,-1
 253 26 l 1,12,-1
 257 29 l 1,13,14
 277 34 277 34 298.5 38.5 c 128,-1,15
 320 43 320 43 340 47 c 0,16,17
 372 54 372 54 405.5 56.5 c 128,-1,18
 439 59 439 59 474 62 c 0,19,20
 477 62 477 62 482 63 c 128,-1,21
 487 64 487 64 491 64 c 2,22,-1
 508 64 l 2,23,24
 513 64 513 64 514 65 c 0,25,26
 522 66 522 66 530.5 67 c 128,-1,27
 539 68 539 68 547 68 c 0,28,29
 556 68 556 68 562.5 76.5 c 128,-1,30
 569 85 569 85 572 96 c 0,31,32
 577 111 577 111 568 124 c 128,-1,33
 559 137 559 137 545 142 c 1,34,-1
 489 142 l 2,35,36
 453 142 453 142 416 136 c 128,-1,37
 379 130 379 130 338 122 c 0,38,39
 337 121 337 121 331 121 c 2,40,-1
 326 121 l 1,41,42
 326 121 326 121 324 120.5 c 128,-1,43
 322 120 322 120 317 118 c 2,44,-1
 316 118 l 1,45,46
 284 111 284 111 251.5 106 c 128,-1,47
 219 101 219 101 185 101 c 1,48,-1
 182 109 l 1,49,50
 187 126 187 126 201 145.5 c 128,-1,51
 215 165 215 165 234 185.5 c 128,-1,52
 253 206 253 206 274 226 c 128,-1,53
 295 246 295 246 315 264 c 0,54,55
 317 267 317 267 318 268 c 128,-1,56
 319 269 319 269 329 278 c 1,57,-1
 332 278 l 1,58,59
 337 285 337 285 341 288.5 c 128,-1,60
 345 292 345 292 347 294 c 0,61,62
 364 311 364 311 389 330.5 c 128,-1,63
 414 350 414 350 443 373 c 0,64,65
 481 406 481 406 521.5 441.5 c 128,-1,66
 562 477 562 477 597 515 c 128,-1,67
 632 553 632 553 659 593 c 128,-1,68
 686 633 686 633 697 675 c 0,69,70
 709 731 709 731 641 731 c 0,71,72
 632 731 632 731 596.5 727 c 128,-1,73
 561 723 561 723 512.5 716 c 128,-1,74
 464 709 464 709 410 699 c 128,-1,75
 356 689 356 689 309.5 677 c 128,-1,76
 263 665 263 665 231.5 652 c 128,-1,77
 200 639 200 639 197 625 c 0,78,79
 192 608 192 608 195.5 599.5 c 128,-1,80
 199 591 199 591 224 582 c 1,81,-1
 234 582 l 2,82,83
 236 582 236 582 235 581 c 1,84,-1
 236 581 l 2,85,86
 239 581 239 581 240 580.5 c 128,-1,87
 241 580 241 580 243 580 c 2,88,-1
 254 580 l 2,89,90
 286 580 286 580 319 583.5 c 128,-1,91
 352 587 352 587 387 594 c 1,92,-1
 395 594 l 2,93,94
 396 594 396 594 396.5 594.5 c 128,-1,95
 397 595 397 595 400 595 c 0,96,97
 402 595 402 595 405 596.5 c 128,-1,98
 408 598 408 598 409 598 c 0,99,100
 413 598 413 598 414 599 c 0,101,102
 443 603 443 603 473.5 607 c 128,-1,103
 504 611 504 611 536 611 c 1,104,-1
 539 604 l 1,105,106
 534 584 534 584 518 569 c 128,-1,107
 502 554 502 554 482 536 c 2,108,-1
 477 532 l 1,109,-1
 469 526 l 1,110,-1
 464 519 l 1,111,-1
 227 298 l 1,112,-1
 212 283 l 1,113,-1
 204 274 l 1,114,-1
 190 260 l 1,115,-1
 189 260 l 1,116,-1
 187 256 l 1,117,118
 161 233 161 233 134.5 207.5 c 128,-1,119
 108 182 108 182 85 156 c 128,-1,120
 62 130 62 130 45 103.5 c 128,-1,121
 28 77 28 77 21 52 c 0,0,1
478 827 m 0,122,123
 472 827 472 827 471 830 c 2,124,-1
 437 900 l 2,125,126
 435 904 435 904 424.5 903 c 128,-1,127
 414 902 414 902 410 902 c 0,128,129
 392 883 392 883 389.5 875 c 128,-1,130
 387 867 387 867 388 865 c 0,131,132
 396 847 396 847 406 826.5 c 128,-1,133
 416 806 416 806 423 786 c 0,134,135
 424 784 424 784 428 778 c 128,-1,136
 432 772 432 772 436.5 765.5 c 128,-1,137
 441 759 441 759 445 754 c 128,-1,138
 449 749 449 749 451 749 c 2,139,-1
 461 749 l 2,140,141
 462 749 462 749 472.5 756.5 c 128,-1,142
 483 764 483 764 497.5 774.5 c 128,-1,143
 512 785 512 785 527.5 796 c 128,-1,144
 543 807 543 807 552 815 c 0,145,146
 561 822 561 822 568.5 827 c 128,-1,147
 576 832 576 832 581 837.5 c 128,-1,148
 586 843 586 843 590 850.5 c 128,-1,149
 594 858 594 858 597 869 c 2,150,-1
 600 884 l 1,151,152
 597 897 597 897 587 897 c 0,153,154
 575 897 575 897 562 886 c 128,-1,155
 549 875 549 875 534.5 862 c 128,-1,156
 520 849 520 849 505.5 838 c 128,-1,157
 491 827 491 827 478 827 c 0,122,123
332 276 m 1,158,-1
 331 278 l 1,159,160
 327 276 327 276 332 276 c 1,158,-1
EndSplineSet
Validated: 2097189
EndChar

StartChar: zcaron
Encoding: 31 31 9
Width: 646
Flags: W
LayerCount: 2
Fore
SplineSet
28 74 m 0,0,1
 19 48 19 48 22.5 32.5 c 128,-1,2
 26 17 26 17 47 0 c 1,3,-1
 88 0 l 2,4,5
 128 0 128 0 169 7.5 c 128,-1,6
 210 15 210 15 251 26 c 128,-1,7
 292 37 292 37 332.5 48.5 c 128,-1,8
 373 60 373 60 412 68 c 0,9,10
 419 69 419 69 445 72.5 c 128,-1,11
 471 76 471 76 500.5 80.5 c 128,-1,12
 530 85 530 85 555.5 89.5 c 128,-1,13
 581 94 581 94 588 96 c 0,14,15
 597 97 597 97 608 100.5 c 128,-1,16
 619 104 619 104 629.5 109.5 c 128,-1,17
 640 115 640 115 648 122.5 c 128,-1,18
 656 130 656 130 659 140 c 0,19,20
 662 155 662 155 658 165 c 128,-1,21
 654 175 654 175 644.5 181 c 128,-1,22
 635 187 635 187 622 189.5 c 128,-1,23
 609 192 609 192 596 192 c 0,24,25
 550 192 550 192 502 185 c 128,-1,26
 454 178 454 178 405 167 c 128,-1,27
 356 156 356 156 308 142.5 c 128,-1,28
 260 129 260 129 215 116 c 1,29,-1
 189 116 l 1,30,31
 195 137 195 137 211 157.5 c 128,-1,32
 227 178 227 178 247.5 197.5 c 128,-1,33
 268 217 268 217 290.5 236 c 128,-1,34
 313 255 313 255 332 273 c 2,35,-1
 472 403 l 2,36,37
 502 431 502 431 539.5 460.5 c 128,-1,38
 577 490 577 490 612.5 522 c 128,-1,39
 648 554 648 554 676 588 c 128,-1,40
 704 622 704 622 715 658 c 2,41,-1
 718 673 l 2,42,43
 720 681 720 681 721 689.5 c 128,-1,44
 722 698 722 698 720.5 705.5 c 128,-1,45
 719 713 719 713 714 718 c 128,-1,46
 709 723 709 723 700 723 c 2,47,-1
 595 723 l 2,48,49
 594 723 594 723 578.5 720 c 128,-1,50
 563 717 563 717 537.5 712.5 c 128,-1,51
 512 708 512 708 480.5 702 c 128,-1,52
 449 696 449 696 417.5 690 c 128,-1,53
 386 684 386 684 356.5 678 c 128,-1,54
 327 672 327 672 306 668 c 0,55,56
 289 666 289 666 267.5 659 c 128,-1,57
 246 652 246 652 226 641 c 128,-1,58
 206 630 206 630 190 615.5 c 128,-1,59
 174 601 174 601 169 584 c 0,60,61
 159 543 159 543 202 543 c 0,62,63
 205 543 205 543 211.5 544 c 128,-1,64
 218 545 218 545 221 545 c 0,65,66
 254 556 254 556 289.5 567.5 c 128,-1,67
 325 579 325 579 361 588 c 128,-1,68
 397 597 397 597 432.5 602.5 c 128,-1,69
 468 608 468 608 503 608 c 2,70,-1
 510 608 l 2,71,72
 515 608 515 608 520.5 607.5 c 128,-1,73
 526 607 526 607 533 607 c 2,74,-1
 541 607 l 2,75,76
 547 604 547 604 546.5 599 c 128,-1,77
 546 594 546 594 544 590 c 0,78,79
 542 578 542 578 532 566.5 c 128,-1,80
 522 555 522 555 509.5 543.5 c 128,-1,81
 497 532 497 532 484 522.5 c 128,-1,82
 471 513 471 513 462 506 c 0,83,84
 447 493 447 493 418 466 c 128,-1,85
 389 439 389 439 352.5 405.5 c 128,-1,86
 316 372 316 372 275.5 335 c 128,-1,87
 235 298 235 298 198.5 264.5 c 128,-1,88
 162 231 162 231 133 204 c 128,-1,89
 104 177 104 177 90 164 c 0,90,91
 72 148 72 148 62 137.5 c 128,-1,92
 52 127 52 127 46 117.5 c 128,-1,93
 40 108 40 108 36 98 c 128,-1,94
 32 88 32 88 28 74 c 0,0,1
501 823 m 0,95,96
 495 823 495 823 495 826 c 2,97,-1
 460 896 l 2,98,99
 459 900 459 900 448 899 c 128,-1,100
 437 898 437 898 433 898 c 0,101,102
 416 879 416 879 413 871 c 128,-1,103
 410 863 410 863 411 861 c 0,104,105
 419 843 419 843 429 822.5 c 128,-1,106
 439 802 439 802 446 782 c 0,107,108
 447 780 447 780 451 774 c 128,-1,109
 455 768 455 768 459.5 761.5 c 128,-1,110
 464 755 464 755 468 750 c 128,-1,111
 472 745 472 745 474 745 c 2,112,-1
 484 745 l 2,113,114
 485 745 485 745 495.5 752.5 c 128,-1,115
 506 760 506 760 520.5 770.5 c 128,-1,116
 535 781 535 781 550.5 792 c 128,-1,117
 566 803 566 803 575 811 c 0,118,119
 584 818 584 818 591.5 823 c 128,-1,120
 599 828 599 828 604 833.5 c 128,-1,121
 609 839 609 839 613 846.5 c 128,-1,122
 617 854 617 854 620 865 c 2,123,-1
 623 880 l 1,124,125
 620 893 620 893 610 893 c 0,126,127
 598 893 598 893 585 882 c 128,-1,128
 572 871 572 871 557.5 858 c 128,-1,129
 543 845 543 845 528.5 834 c 128,-1,130
 514 823 514 823 501 823 c 0,95,96
EndSplineSet
Validated: 2097193
EndChar

StartChar: exclam
Encoding: 33 33 10
Width: 330
Flags: W
LayerCount: 2
Fore
SplineSet
119 329 m 0,0,1
 117 321 117 321 116 311 c 128,-1,2
 115 301 115 301 116.5 292.5 c 128,-1,3
 118 284 118 284 124 278 c 128,-1,4
 130 272 130 272 141 272 c 0,5,6
 154 272 154 272 161.5 275.5 c 128,-1,7
 169 279 169 279 180 294 c 0,8,9
 217 348 217 348 251 402.5 c 128,-1,10
 285 457 285 457 318 511.5 c 128,-1,11
 351 566 351 566 384.5 621 c 128,-1,12
 418 676 418 676 454 731 c 0,13,14
 471 755 471 755 482 769.5 c 128,-1,15
 493 784 493 784 499 805 c 0,16,17
 503 823 503 823 493.5 831.5 c 128,-1,18
 484 840 484 840 465 840 c 0,19,20
 442 840 442 840 426.5 827.5 c 128,-1,21
 411 815 411 815 397 798 c 0,22,23
 388 787 388 787 374.5 768 c 128,-1,24
 361 749 361 749 347.5 730 c 128,-1,25
 334 711 334 711 324 697 c 128,-1,26
 314 683 314 683 314 682 c 0,27,28
 307 671 307 671 293.5 648 c 128,-1,29
 280 625 280 625 263.5 597 c 128,-1,30
 247 569 247 569 229 538 c 128,-1,31
 211 507 211 507 194.5 478.5 c 128,-1,32
 178 450 178 450 165 428 c 128,-1,33
 152 406 152 406 146 395 c 0,34,35
 134 375 134 375 130 361.5 c 128,-1,36
 126 348 126 348 119 329 c 0,0,1
19 64 m 0,37,38
 17 56 17 56 16 45 c 128,-1,39
 15 34 15 34 17.5 24 c 128,-1,40
 20 14 20 14 26 7 c 128,-1,41
 32 0 32 0 44 0 c 0,42,43
 62 0 62 0 79 8.5 c 128,-1,44
 96 17 96 17 110 30.5 c 128,-1,45
 124 44 124 44 134 60 c 128,-1,46
 144 76 144 76 149 91 c 0,47,48
 152 102 152 102 152 114 c 256,49,50
 152 126 152 126 149 135.5 c 128,-1,51
 146 145 146 145 138 151 c 128,-1,52
 130 157 130 157 117 157 c 0,53,54
 99 157 99 157 83 147.5 c 128,-1,55
 67 138 67 138 54 123.5 c 128,-1,56
 41 109 41 109 32 93 c 128,-1,57
 23 77 23 77 19 64 c 0,37,38
EndSplineSet
Validated: 9
EndChar

StartChar: quotedbl
Encoding: 34 34 11
Width: 404
Flags: W
LayerCount: 2
Fore
SplineSet
300 536 m 0,0,1
 292 516 292 516 302 506.5 c 128,-1,2
 312 497 312 497 332 497 c 0,3,4
 346 497 346 497 355 501 c 128,-1,5
 364 505 364 505 370 511.5 c 128,-1,6
 376 518 376 518 381 527 c 128,-1,7
 386 536 386 536 392 546 c 0,8,9
 398 557 398 557 410 576.5 c 128,-1,10
 422 596 422 596 435 615.5 c 128,-1,11
 448 635 448 635 458 650.5 c 128,-1,12
 468 666 468 666 470 668 c 0,13,14
 481 684 481 684 495 698 c 128,-1,15
 509 712 509 712 522.5 726 c 128,-1,16
 536 740 536 740 547 754.5 c 128,-1,17
 558 769 558 769 563 785 c 0,18,19
 568 802 568 802 564 818.5 c 128,-1,20
 560 835 560 835 537 835 c 0,21,22
 516 835 516 835 492 817 c 128,-1,23
 468 799 468 799 443 770.5 c 128,-1,24
 418 742 418 742 394 707 c 128,-1,25
 370 672 370 672 350.5 639 c 128,-1,26
 331 606 331 606 317.5 578 c 128,-1,27
 304 550 304 550 300 536 c 0,0,1
120 524 m 0,28,29
 117 511 117 511 121.5 498 c 128,-1,30
 126 485 126 485 146 485 c 0,31,32
 159 485 159 485 177 502 c 128,-1,33
 195 519 195 519 215.5 545 c 128,-1,34
 236 571 236 571 258 603.5 c 128,-1,35
 280 636 280 636 300 666 c 128,-1,36
 320 696 320 696 337 721 c 128,-1,37
 354 746 354 746 365 758 c 0,38,39
 366 761 366 761 368.5 766.5 c 128,-1,40
 371 772 371 772 373 775 c 0,41,42
 380 806 380 806 349 806 c 0,43,44
 327 806 327 806 303 790 c 128,-1,45
 279 774 279 774 255.5 748 c 128,-1,46
 232 722 232 722 209.5 690 c 128,-1,47
 187 658 187 658 168.5 627 c 128,-1,48
 150 596 150 596 137.5 568.5 c 128,-1,49
 125 541 125 541 120 524 c 0,28,29
EndSplineSet
Validated: 41
EndChar

StartChar: numbersign
Encoding: 35 35 12
Width: 591
Flags: W
LayerCount: 2
Fore
SplineSet
172 192 m 0,0,1
 185 192 185 192 190.5 185.5 c 128,-1,2
 196 179 196 179 197 169 c 128,-1,3
 198 159 198 159 197 147.5 c 128,-1,4
 196 136 196 136 197.5 126 c 128,-1,5
 199 116 199 116 204 109.5 c 128,-1,6
 209 103 209 103 223 103 c 0,7,8
 236 103 236 103 250 110.5 c 128,-1,9
 264 118 264 118 267 131 c 2,10,-1
 286 204 l 2,11,12
 290 214 290 214 301.5 220 c 128,-1,13
 313 226 313 226 326.5 229 c 128,-1,14
 340 232 340 232 352 232.5 c 128,-1,15
 364 233 364 233 368 233 c 2,16,-1
 372 233 l 2,17,18
 373 231 373 231 377.5 229 c 128,-1,19
 382 227 382 227 383 226 c 0,20,21
 381 218 381 218 377.5 197.5 c 128,-1,22
 374 177 374 177 374 155 c 0,23,24
 374 134 374 134 380.5 117.5 c 128,-1,25
 387 101 387 101 407 101 c 0,26,27
 430 101 430 101 444.5 119 c 128,-1,28
 459 137 459 137 467.5 160.5 c 128,-1,29
 476 184 476 184 479.5 205.5 c 128,-1,30
 483 227 483 227 485 233 c 0,31,32
 500 251 500 251 524.5 254.5 c 128,-1,33
 549 258 549 258 574 259.5 c 128,-1,34
 599 261 599 261 620 268 c 128,-1,35
 641 275 641 275 648 302 c 0,36,37
 651 317 651 317 643.5 326 c 128,-1,38
 636 335 636 335 622.5 340 c 128,-1,39
 609 345 609 345 592.5 346.5 c 128,-1,40
 576 348 576 348 561 348 c 2,41,-1
 530 348 l 1,42,43
 525 356 525 356 526 368 c 2,44,-1
 533 390 l 2,45,46
 538 410 538 410 549 420.5 c 128,-1,47
 560 431 560 431 574 435.5 c 128,-1,48
 588 440 588 440 603.5 442 c 128,-1,49
 619 444 619 444 632.5 448 c 128,-1,50
 646 452 646 452 657 460.5 c 128,-1,51
 668 469 668 469 673 487 c 2,52,-1
 676 495 l 2,53,54
 678 504 678 504 678 513 c 0,55,56
 678 523 678 523 667 523 c 2,57,-1
 591 523 l 1,58,-1
 582 541 l 1,59,60
 585 550 585 550 590.5 567 c 128,-1,61
 596 584 596 584 597.5 601 c 128,-1,62
 599 618 599 618 593.5 630.5 c 128,-1,63
 588 643 588 643 570 643 c 0,64,65
 549 643 549 643 536.5 632.5 c 128,-1,66
 524 622 524 622 515.5 605.5 c 128,-1,67
 507 589 507 589 499.5 570.5 c 128,-1,68
 492 552 492 552 480 535.5 c 128,-1,69
 468 519 468 519 449 508.5 c 128,-1,70
 430 498 430 498 398 498 c 0,71,72
 397 498 397 498 393 498 c 256,73,74
 389 498 389 498 385 498.5 c 128,-1,75
 381 499 381 499 378 501 c 128,-1,76
 375 503 375 503 376 507 c 2,77,-1
 405 615 l 2,78,79
 410 631 410 631 400 640 c 128,-1,80
 390 649 390 649 376 649 c 0,81,82
 350 649 350 649 333 631 c 128,-1,83
 316 613 316 613 308 594 c 0,84,85
 304 588 304 588 297.5 572 c 128,-1,86
 291 556 291 556 284.5 538.5 c 128,-1,87
 278 521 278 521 272 505.5 c 128,-1,88
 266 490 266 490 263 485 c 2,89,-1
 252 472 l 1,90,91
 238 467 238 467 220.5 460.5 c 128,-1,92
 203 454 203 454 187 445 c 128,-1,93
 171 436 171 436 158 424.5 c 128,-1,94
 145 413 145 413 141 398 c 2,95,-1
 136 376 l 2,96,97
 136 373 136 373 137.5 369 c 128,-1,98
 139 365 139 365 140 365 c 2,99,-1
 225 365 l 2,100,101
 226 365 226 365 227 359 c 128,-1,102
 228 353 228 353 227 348 c 2,103,-1
 222 325 l 2,104,105
 221 322 221 322 218.5 312.5 c 128,-1,106
 216 303 216 303 215 300 c 0,107,108
 201 283 201 283 176.5 278 c 128,-1,109
 152 273 152 273 127.5 268.5 c 128,-1,110
 103 264 103 264 82 254 c 128,-1,111
 61 244 61 244 54 218 c 0,112,113
 49 198 49 198 58.5 190.5 c 128,-1,114
 68 183 68 183 91 183 c 0,115,116
 111 183 111 183 131.5 187.5 c 128,-1,117
 152 192 152 192 172 192 c 0,0,1
407 417 m 2,118,-1
 428 417 l 2,119,120
 438 417 438 417 440 403 c 1,121,-1
 435 380 l 2,122,123
 424 343 424 343 402.5 328 c 128,-1,124
 381 313 381 313 339 313 c 2,125,-1
 326 313 l 2,126,127
 316 313 316 313 318 321 c 2,128,-1
 337 395 l 2,129,130
 338 403 338 403 348 407.5 c 128,-1,131
 358 412 358 412 370 414 c 128,-1,132
 382 416 382 416 392.5 416.5 c 128,-1,133
 403 417 403 417 407 417 c 2,118,-1
EndSplineSet
Validated: 9
EndChar

StartChar: dollar
Encoding: 36 36 13
Width: 387
Flags: W
LayerCount: 2
Fore
SplineSet
117 136 m 1,0,-1
 87 27 l 2,1,2
 85 16 85 16 96 8 c 128,-1,3
 107 0 107 0 118 0 c 0,4,5
 153 0 153 0 169.5 17.5 c 128,-1,6
 186 35 186 35 196.5 58 c 128,-1,7
 207 81 207 81 218 103.5 c 128,-1,8
 229 126 229 126 254 136 c 0,9,10
 255 137 255 137 261 139 c 128,-1,11
 267 141 267 141 273.5 143 c 128,-1,12
 280 145 280 145 286 147 c 128,-1,13
 292 149 292 149 295 149 c 0,14,15
 320 161 320 161 344 179.5 c 128,-1,16
 368 198 368 198 388.5 220 c 128,-1,17
 409 242 409 242 423.5 266 c 128,-1,18
 438 290 438 290 445 313 c 0,19,20
 453 344 453 344 442.5 369 c 128,-1,21
 432 394 432 394 412.5 412.5 c 128,-1,22
 393 431 393 431 368 444.5 c 128,-1,23
 343 458 343 458 320.5 467 c 128,-1,24
 298 476 298 476 283 480.5 c 128,-1,25
 268 485 268 485 269 487 c 0,26,27
 275 510 275 510 299.5 521.5 c 128,-1,28
 324 533 324 533 352.5 537.5 c 128,-1,29
 381 542 381 542 407.5 541 c 128,-1,30
 434 540 434 540 444 539 c 1,31,32
 461 547 461 547 467 552 c 128,-1,33
 473 557 473 557 475 568 c 0,34,35
 481 589 481 589 470.5 600 c 128,-1,36
 460 611 460 611 444 619 c 128,-1,37
 428 627 428 627 412.5 634 c 128,-1,38
 397 641 397 641 391 655 c 0,39,40
 391 659 391 659 393.5 675.5 c 128,-1,41
 396 692 396 692 396 710 c 256,42,43
 396 728 396 728 390.5 742.5 c 128,-1,44
 385 757 385 757 368 757 c 0,45,46
 363 757 363 757 353 754.5 c 128,-1,47
 343 752 343 752 332 747.5 c 128,-1,48
 321 743 321 743 312 737 c 128,-1,49
 303 731 303 731 302 723 c 2,50,-1
 276 627 l 2,51,52
 274 617 274 617 252 600.5 c 128,-1,53
 230 584 230 584 202 561.5 c 128,-1,54
 174 539 174 539 149 512 c 128,-1,55
 124 485 124 485 116 455 c 0,56,57
 109 430 109 430 124.5 418 c 128,-1,58
 140 406 140 406 166.5 400 c 128,-1,59
 193 394 193 394 225 390 c 128,-1,60
 257 386 257 386 283 378 c 128,-1,61
 309 370 309 370 323.5 354.5 c 128,-1,62
 338 339 338 339 331 309 c 0,63,64
 323 275 323 275 297.5 250 c 128,-1,65
 272 225 272 225 231 225 c 0,66,67
 205 225 205 225 193 238 c 128,-1,68
 181 251 181 251 172 266.5 c 128,-1,69
 163 282 163 282 152 295 c 128,-1,70
 141 308 141 308 116 308 c 256,71,72
 91 308 91 308 80 292 c 128,-1,73
 69 276 69 276 64 260 c 0,74,75
 58 239 58 239 61 222 c 128,-1,76
 64 205 64 205 72 190.5 c 128,-1,77
 80 176 80 176 92.5 162.5 c 128,-1,78
 105 149 105 149 117 136 c 1,0,-1
EndSplineSet
Validated: 41
EndChar

StartChar: percent
Encoding: 37 37 14
Width: 693
Flags: W
LayerCount: 2
Fore
SplineSet
129 34 m 1,0,1
 136 23 136 23 144 14 c 128,-1,2
 152 5 152 5 167 5 c 0,3,4
 183 5 183 5 199.5 19 c 128,-1,5
 216 33 216 33 232.5 55 c 128,-1,6
 249 77 249 77 264 104 c 128,-1,7
 279 131 279 131 292.5 156 c 128,-1,8
 306 181 306 181 317 201.5 c 128,-1,9
 328 222 328 222 335 231 c 0,10,11
 414 342 414 342 511.5 439 c 128,-1,12
 609 536 609 536 718 627 c 0,13,14
 746 650 746 650 771.5 670 c 128,-1,15
 797 690 797 690 806 720 c 0,16,17
 812 745 812 745 794.5 754.5 c 128,-1,18
 777 764 777 764 753 764 c 0,19,20
 728 764 728 764 703 756.5 c 128,-1,21
 678 749 678 749 652.5 739.5 c 128,-1,22
 627 730 627 730 601 722.5 c 128,-1,23
 575 715 575 715 548 715 c 0,24,25
 525 715 525 715 509 724 c 128,-1,26
 493 733 493 733 479 743.5 c 128,-1,27
 465 754 465 754 449 763 c 128,-1,28
 433 772 433 772 410 772 c 0,29,30
 361 772 361 772 315.5 754.5 c 128,-1,31
 270 737 270 737 232.5 707.5 c 128,-1,32
 195 678 195 678 168.5 640 c 128,-1,33
 142 602 142 602 132 560 c 0,34,35
 126 538 126 538 129 517 c 128,-1,36
 132 496 132 496 143 479.5 c 128,-1,37
 154 463 154 463 172.5 452.5 c 128,-1,38
 191 442 191 442 216 442 c 0,39,40
 248 442 248 442 280 455.5 c 128,-1,41
 312 469 312 469 341.5 488.5 c 128,-1,42
 371 508 371 508 397 531.5 c 128,-1,43
 423 555 423 555 444.5 574.5 c 128,-1,44
 466 594 466 594 480.5 607.5 c 128,-1,45
 495 621 495 621 502 621 c 0,46,47
 521 621 521 621 533 619.5 c 128,-1,48
 545 618 545 618 565 614 c 1,49,-1
 563 607 l 2,50,51
 560 595 560 595 549.5 585 c 128,-1,52
 539 575 539 575 529 567 c 2,53,-1
 438 485 l 2,54,55
 393 441 393 441 345.5 391 c 128,-1,56
 298 341 298 341 256.5 288 c 128,-1,57
 215 235 215 235 183 179 c 128,-1,58
 151 123 151 123 136 68 c 2,59,-1
 129 34 l 1,0,1
353 75 m 1,60,61
 357 43 357 43 383.5 21.5 c 128,-1,62
 410 0 410 0 446 0 c 0,63,64
 493 0 493 0 537.5 16 c 128,-1,65
 582 32 582 32 618.5 59 c 128,-1,66
 655 86 655 86 682 122.5 c 128,-1,67
 709 159 709 159 720 200 c 0,68,69
 727 229 727 229 725 257 c 128,-1,70
 723 285 723 285 710.5 307 c 128,-1,71
 698 329 698 329 674.5 342.5 c 128,-1,72
 651 356 651 356 617 356 c 0,73,74
 568 356 568 356 526 334 c 128,-1,75
 484 312 484 312 451.5 277.5 c 128,-1,76
 419 243 419 243 396.5 201.5 c 128,-1,77
 374 160 374 160 364 122 c 2,78,-1
 362 113 l 2,79,80
 360 106 360 106 358.5 98 c 128,-1,81
 357 90 357 90 355 83 c 2,82,-1
 353 75 l 1,60,61
458 138 m 0,83,84
 464 157 464 157 477 181 c 128,-1,85
 490 205 490 205 509 225.5 c 128,-1,86
 528 246 528 246 551.5 260 c 128,-1,87
 575 274 575 274 601 274 c 0,88,89
 617 274 617 274 625.5 266 c 128,-1,90
 634 258 634 258 637.5 246.5 c 128,-1,91
 641 235 641 235 640 221.5 c 128,-1,92
 639 208 639 208 637 196 c 0,93,94
 623 149 623 149 584.5 121.5 c 128,-1,95
 546 94 546 94 496 94 c 0,96,97
 491 94 491 94 481.5 95 c 128,-1,98
 472 96 472 96 471 96 c 2,99,-1
 455 116 l 2,100,101
 455 117 455 117 456 125 c 128,-1,102
 457 133 457 133 458 138 c 0,83,84
224 564 m 0,103,104
 230 583 230 583 242.5 601.5 c 128,-1,105
 255 620 255 620 272 635 c 128,-1,106
 289 650 289 650 310 659 c 128,-1,107
 331 668 331 668 353 668 c 0,108,109
 371 668 371 668 381.5 660.5 c 128,-1,110
 392 653 392 653 387 636 c 0,111,112
 382 618 382 618 367 599.5 c 128,-1,113
 352 581 352 581 332 566 c 128,-1,114
 312 551 312 551 289.5 541.5 c 128,-1,115
 267 532 267 532 247 532 c 256,116,117
 227 532 227 532 223 539.5 c 128,-1,118
 219 547 219 547 224 564 c 0,103,104
EndSplineSet
Validated: 41
EndChar

StartChar: ampersand
Encoding: 38 38 15
Width: 450
Flags: W
LayerCount: 2
Fore
SplineSet
87 367 m 2,0,1
 79 338 79 338 85.5 317.5 c 128,-1,2
 92 297 92 297 106.5 281 c 128,-1,3
 121 265 121 265 140.5 251 c 128,-1,4
 160 237 160 237 178 222 c 0,5,6
 186 215 186 215 186 205 c 0,7,8
 186 196 186 196 186.5 187 c 128,-1,9
 187 178 187 178 191.5 172 c 128,-1,10
 196 166 196 166 212 166 c 0,11,12
 236 166 236 166 255 183.5 c 128,-1,13
 274 201 274 201 288.5 224.5 c 128,-1,14
 303 248 303 248 312.5 270.5 c 128,-1,15
 322 293 322 293 328 303 c 1,16,-1
 348 317 l 1,17,18
 363 318 363 318 390.5 320 c 128,-1,19
 418 322 418 322 446 328 c 128,-1,20
 474 334 474 334 497 346 c 128,-1,21
 520 358 520 358 526 380 c 0,22,23
 530 394 530 394 522.5 403 c 128,-1,24
 515 412 515 412 501 416.5 c 128,-1,25
 487 421 487 421 468.5 422 c 128,-1,26
 450 423 450 423 433 422.5 c 128,-1,27
 416 422 416 422 401.5 421 c 128,-1,28
 387 420 387 420 381 420 c 1,29,-1
 378 433 l 1,30,-1
 382 452 l 2,31,32
 384 463 384 463 386.5 475.5 c 128,-1,33
 389 488 389 488 391 500 c 128,-1,34
 393 512 393 512 394.5 521 c 128,-1,35
 396 530 396 530 397 534 c 0,36,37
 398 542 398 542 399.5 553 c 128,-1,38
 401 564 401 564 399 574 c 128,-1,39
 397 584 397 584 391 591 c 128,-1,40
 385 598 385 598 373 598 c 0,41,42
 367 598 367 598 359.5 596.5 c 128,-1,43
 352 595 352 595 344.5 591 c 128,-1,44
 337 587 337 587 330.5 581.5 c 128,-1,45
 324 576 324 576 322 569 c 2,46,-1
 286 426 l 2,47,48
 284 419 284 419 273.5 411.5 c 128,-1,49
 263 404 263 404 256 404 c 2,50,-1
 121 404 l 2,51,52
 105 404 105 404 98.5 396.5 c 128,-1,53
 92 389 92 389 89 378 c 2,54,-1
 87 367 l 2,0,1
219 317 m 2,55,56
 219 317 219 317 221 317.5 c 128,-1,57
 223 318 223 318 224 318 c 2,58,-1
 226 317 l 2,59,60
 228 317 228 317 229.5 314 c 128,-1,61
 231 311 231 311 231 309 c 1,62,63
 230 309 230 309 227.5 306.5 c 128,-1,64
 225 304 225 304 221 303 c 2,65,-1
 219 302 l 2,66,67
 217 302 217 302 216 302.5 c 128,-1,68
 215 303 215 303 215 303 c 2,69,70
 209 305 209 305 209 309 c 0,71,72
 212 311 212 311 214 314 c 128,-1,73
 216 317 216 317 219 317 c 2,55,56
EndSplineSet
Validated: 41
EndChar

StartChar: quotesingle
Encoding: 39 39 16
Width: 159
Flags: W
LayerCount: 2
Fore
SplineSet
127 534 m 0,0,1
 119 511 119 511 123.5 502 c 128,-1,2
 128 493 128 493 154 493 c 0,3,4
 189 493 189 493 211.5 516.5 c 128,-1,5
 234 540 234 540 248.5 572.5 c 128,-1,6
 263 605 263 605 270.5 639.5 c 128,-1,7
 278 674 278 674 284 695 c 0,8,9
 287 707 287 707 294 735 c 128,-1,10
 301 763 301 763 303.5 791 c 128,-1,11
 306 819 306 819 299 840.5 c 128,-1,12
 292 862 292 862 267 862 c 0,13,14
 245 862 245 862 225.5 846.5 c 128,-1,15
 206 831 206 831 199 812 c 0,16,17
 195 797 195 797 193.5 784 c 128,-1,18
 192 771 192 771 190.5 758 c 128,-1,19
 189 745 189 745 186.5 731.5 c 128,-1,20
 184 718 184 718 179 703 c 0,21,22
 167 660 167 660 152 618.5 c 128,-1,23
 137 577 137 577 127 534 c 0,0,1
EndSplineSet
Validated: 41
EndChar

StartChar: parenleft
Encoding: 40 40 17
Width: 283
Flags: W
LayerCount: 2
Fore
SplineSet
88 367 m 0,0,1
 85 358 85 358 82.5 344.5 c 128,-1,2
 80 331 80 331 76 313 c 0,3,4
 70 285 70 285 65 251.5 c 128,-1,5
 60 218 60 218 57.5 183 c 128,-1,6
 55 148 55 148 57 115 c 128,-1,7
 59 82 59 82 67.5 56.5 c 128,-1,8
 76 31 76 31 92 15.5 c 128,-1,9
 108 0 108 0 134 0 c 256,10,11
 160 0 160 0 171.5 14.5 c 128,-1,12
 183 29 183 29 187 49 c 0,13,14
 189 52 189 52 190 60 c 128,-1,15
 191 68 191 68 191 68 c 2,16,17
 191 71 191 71 189 87 c 128,-1,18
 187 103 187 103 185.5 121.5 c 128,-1,19
 184 140 184 140 183.5 156.5 c 128,-1,20
 183 173 183 173 184 177 c 0,21,22
 179 233 179 233 186.5 285 c 128,-1,23
 194 337 194 337 210 395 c 0,24,25
 227 463 227 463 261.5 527.5 c 128,-1,26
 296 592 296 592 339 655 c 0,27,28
 350 671 350 671 366 687.5 c 128,-1,29
 382 704 382 704 397.5 720.5 c 128,-1,30
 413 737 413 737 426 754.5 c 128,-1,31
 439 772 439 772 444 790 c 0,32,33
 450 809 450 809 441.5 821 c 128,-1,34
 433 833 433 833 412 833 c 0,35,36
 378 833 378 833 342.5 803.5 c 128,-1,37
 307 774 307 774 272 728 c 128,-1,38
 237 682 237 682 205.5 626.5 c 128,-1,39
 174 571 174 571 149 519.5 c 128,-1,40
 124 468 124 468 108 426.5 c 128,-1,41
 92 385 92 385 88 367 c 0,0,1
EndSplineSet
Validated: 41
EndChar

StartChar: parenright
Encoding: 41 41 18
Width: 281
Flags: W
LayerCount: 2
Fore
SplineSet
14 36 m 0,0,1
 12 28 12 28 15 21.5 c 128,-1,2
 18 15 18 15 24.5 10.5 c 128,-1,3
 31 6 31 6 39.5 3 c 128,-1,4
 48 0 48 0 56 0 c 0,5,6
 90 0 90 0 124.5 24.5 c 128,-1,7
 159 49 159 49 190.5 87.5 c 128,-1,8
 222 126 222 126 249.5 173 c 128,-1,9
 277 220 277 220 299 265 c 128,-1,10
 321 310 321 310 336 348 c 128,-1,11
 351 386 351 386 357 407 c 0,12,13
 360 421 360 421 367 459.5 c 128,-1,14
 374 498 374 498 380.5 547 c 128,-1,15
 387 596 387 596 389.5 649 c 128,-1,16
 392 702 392 702 386 746.5 c 128,-1,17
 380 791 380 791 363 819.5 c 128,-1,18
 346 848 346 848 313 848 c 0,19,20
 293 848 293 848 280.5 834 c 128,-1,21
 268 820 268 820 263 805 c 2,22,-1
 260 790 l 1,23,24
 267 740 267 740 272 690.5 c 128,-1,25
 277 641 277 641 277.5 591 c 128,-1,26
 278 541 278 541 272.5 489.5 c 128,-1,27
 267 438 267 438 253 383 c 0,28,29
 237 322 237 322 209.5 270 c 128,-1,30
 182 218 182 218 132 164 c 0,31,32
 118 148 118 148 100 133 c 128,-1,33
 82 118 82 118 64.5 103 c 128,-1,34
 47 88 47 88 33.5 71.5 c 128,-1,35
 20 55 20 55 14 36 c 0,0,1
EndSplineSet
Validated: 41
EndChar

StartChar: asterisk
Encoding: 42 42 19
Width: 331
Flags: W
LayerCount: 2
Fore
SplineSet
490 794 m 0,0,1
 488 803 488 803 474.5 811 c 128,-1,2
 461 819 461 819 446 819 c 0,3,4
 428 819 428 819 415 810 c 0,5,6
 406 802 406 802 399.5 797 c 128,-1,7
 393 792 393 792 389 789 c 1,8,9
 394 804 394 804 395 814 c 0,10,11
 397 825 397 825 400 828 c 0,12,13
 405 843 405 843 394 850.5 c 128,-1,14
 383 858 383 858 363 858 c 0,15,16
 322 858 322 858 299 829 c 0,17,18
 278 808 278 808 275 781 c 1,19,20
 266 788 266 788 256 793.5 c 128,-1,21
 246 799 246 799 235 799 c 0,22,23
 230 799 230 799 226 798.5 c 128,-1,24
 222 798 222 798 218 797 c 0,25,26
 188 789 188 789 179 758 c 0,27,28
 177 747 177 747 178.5 738 c 128,-1,29
 180 729 180 729 189 721 c 0,30,31
 200 716 200 716 202 713 c 128,-1,32
 204 710 204 710 206 708 c 0,33,34
 217 701 217 701 219 697 c 1,35,36
 207 690 207 690 200.5 685.5 c 128,-1,37
 194 681 194 681 186 677 c 0,38,39
 149 655 149 655 142 632 c 0,40,41
 141 623 141 623 144 612 c 0,42,43
 159 591 159 591 181 591 c 0,44,45
 201 591 201 591 235 611 c 1,46,47
 233 604 233 604 231.5 599 c 128,-1,48
 230 594 230 594 228 590 c 0,49,50
 216 548 216 548 245 539 c 1,51,52
 279 542 279 542 304.5 557.5 c 128,-1,53
 330 573 330 573 339 601 c 2,54,-1
 341 612 l 1,55,56
 371 597 371 597 393 597 c 0,57,58
 422 597 422 597 439 620 c 0,59,60
 448 632 448 632 449 642 c 0,61,62
 455 662 455 662 445.5 678 c 128,-1,63
 436 694 436 694 413 697 c 0,64,65
 410 698 410 698 404.5 699 c 128,-1,66
 399 700 399 700 392 703 c 1,67,68
 409 712 409 712 418 718.5 c 128,-1,69
 427 725 427 725 431 728 c 0,70,71
 457 738 457 738 470.5 750.5 c 128,-1,72
 484 763 484 763 489 777 c 0,73,74
 490 780 490 780 489.5 784.5 c 128,-1,75
 489 789 489 789 490 794 c 0,0,1
EndSplineSet
Validated: 41
EndChar

StartChar: plus
Encoding: 43 43 20
Width: 532
Flags: W
LayerCount: 2
Fore
SplineSet
205 204 m 2,0,-1
 199 185 l 2,1,2
 196 168 196 168 199.5 156.5 c 128,-1,3
 203 145 203 145 222 145 c 0,4,5
 243 145 243 145 258.5 156.5 c 128,-1,6
 274 168 274 168 285.5 186.5 c 128,-1,7
 297 205 297 205 306 227.5 c 128,-1,8
 315 250 315 250 323 272 c 128,-1,9
 331 294 331 294 339.5 313 c 128,-1,10
 348 332 348 332 359 343 c 0,11,12
 366 350 366 350 386 353 c 128,-1,13
 406 356 406 356 432 357.5 c 128,-1,14
 458 359 458 359 487 359.5 c 128,-1,15
 516 360 516 360 540.5 363 c 128,-1,16
 565 366 565 366 582.5 371.5 c 128,-1,17
 600 377 600 377 603 388 c 2,18,-1
 617 436 l 2,19,20
 617 440 617 440 611 442 c 0,21,22
 609 442 609 442 604.5 443 c 128,-1,23
 600 444 600 444 595 445 c 128,-1,24
 590 446 590 446 585.5 446.5 c 128,-1,25
 581 447 581 447 580 447 c 2,26,-1
 412 447 l 2,27,28
 405 447 405 447 407 452 c 2,29,-1
 409 461 l 2,30,31
 414 480 414 480 423.5 499.5 c 128,-1,32
 433 519 433 519 443.5 537.5 c 128,-1,33
 454 556 454 556 463 575 c 128,-1,34
 472 594 472 594 476 613 c 2,35,-1
 480 632 l 1,36,37
 471 651 471 651 451 651 c 0,38,39
 432 651 432 651 417.5 640.5 c 128,-1,40
 403 630 403 630 391.5 615.5 c 128,-1,41
 380 601 380 601 372 585 c 128,-1,42
 364 569 364 569 359 558 c 0,43,44
 356 553 356 553 349 538.5 c 128,-1,45
 342 524 342 524 334.5 508 c 128,-1,46
 327 492 327 492 320.5 478 c 128,-1,47
 314 464 314 464 313 459 c 0,48,49
 302 443 302 443 282.5 437.5 c 128,-1,50
 263 432 263 432 239.5 431.5 c 128,-1,51
 216 431 216 431 191.5 432 c 128,-1,52
 167 433 167 433 145.5 430.5 c 128,-1,53
 124 428 124 428 108 418 c 128,-1,54
 92 408 92 408 86 385 c 0,55,56
 82 371 82 371 91 362.5 c 128,-1,57
 100 354 100 354 116 354 c 2,58,-1
 246 354 l 2,59,60
 255 354 255 354 255.5 347.5 c 128,-1,61
 256 341 256 341 254 334 c 2,62,-1
 252 326 l 2,63,64
 244 294 244 294 229.5 264 c 128,-1,65
 215 234 215 234 205 204 c 2,0,-1
EndSplineSet
Validated: 41
EndChar

StartChar: comma
Encoding: 44 44 21
Width: 199
Flags: W
LayerCount: 2
Fore
SplineSet
-22 -125 m 0,0,1
 -26 -139 -26 -139 -15 -143 c 128,-1,2
 -4 -147 -4 -147 9 -147 c 0,3,4
 27 -147 27 -147 48 -135 c 128,-1,5
 69 -123 69 -123 89.5 -104.5 c 128,-1,6
 110 -86 110 -86 129 -62 c 128,-1,7
 148 -38 148 -38 163.5 -14.5 c 128,-1,8
 179 9 179 9 190 30 c 128,-1,9
 201 51 201 51 205 65 c 2,10,-1
 208 73 l 1,11,-1
 215 107 l 1,12,13
 213 118 213 118 207 126.5 c 128,-1,14
 201 135 201 135 185 135 c 0,15,16
 162 135 162 135 148 123.5 c 128,-1,17
 134 112 134 112 125 95.5 c 128,-1,18
 116 79 116 79 110 61 c 128,-1,19
 104 43 104 43 98 31 c 0,20,21
 89 17 89 17 74 -3.5 c 128,-1,22
 59 -24 59 -24 42 -45.5 c 128,-1,23
 25 -67 25 -67 8.5 -87 c 128,-1,24
 -8 -107 -8 -107 -20 -120 c 1,25,26
 -20 -120 -20 -120 -20.5 -122 c 128,-1,27
 -21 -124 -21 -124 -22 -125 c 0,0,1
EndSplineSet
Validated: 9
EndChar

StartChar: hyphen
Encoding: 45 45 22
Width: 394
Flags: W
LayerCount: 2
Fore
SplineSet
87 335 m 0,0,1
 80 315 80 315 94.5 304 c 128,-1,2
 109 293 109 293 127 286 c 1,3,-1
 173 286 l 2,4,5
 206 286 206 286 234.5 287 c 128,-1,6
 263 288 263 288 292 290 c 128,-1,7
 321 292 321 292 354 296.5 c 128,-1,8
 387 301 387 301 428 307 c 1,9,10
 441 314 441 314 446.5 322.5 c 128,-1,11
 452 331 452 331 455 342 c 0,12,13
 459 361 459 361 444.5 371 c 128,-1,14
 430 381 430 381 410 381 c 2,15,-1
 160 381 l 2,16,17
 137 381 137 381 115 369.5 c 128,-1,18
 93 358 93 358 87 335 c 0,0,1
EndSplineSet
Validated: 41
EndChar

StartChar: period
Encoding: 46 46 23
Width: 140
Flags: W
LayerCount: 2
Fore
SplineSet
25 56 m 0,0,1
 17 33 17 33 28 16 c 128,-1,2
 39 -1 39 -1 66 -1 c 0,3,4
 78 -1 78 -1 90.5 5.5 c 128,-1,5
 103 12 103 12 114 22.5 c 128,-1,6
 125 33 125 33 133 45 c 128,-1,7
 141 57 141 57 143 68 c 0,8,9
 151 91 151 91 134.5 104 c 128,-1,10
 118 117 118 117 94 117 c 0,11,12
 66 117 66 117 48 98 c 128,-1,13
 30 79 30 79 25 56 c 0,0,1
EndSplineSet
Validated: 41
EndChar

StartChar: slash
Encoding: 47 47 24
Width: 491
Flags: W
LayerCount: 2
Fore
SplineSet
12 39 m 0,0,1
 8 24 8 24 11 12 c 128,-1,2
 14 0 14 0 32 0 c 0,3,4
 53 0 53 0 68.5 9 c 128,-1,5
 84 18 84 18 97 31.5 c 128,-1,6
 110 45 110 45 120.5 60.5 c 128,-1,7
 131 76 131 76 140 88 c 0,8,9
 158 111 158 111 185 146 c 128,-1,10
 212 181 212 181 242.5 220 c 128,-1,11
 273 259 273 259 304 298.5 c 128,-1,12
 335 338 335 338 360.5 370 c 128,-1,13
 386 402 386 402 403.5 424 c 128,-1,14
 421 446 421 446 425 450 c 0,15,16
 428 453 428 453 445.5 472 c 128,-1,17
 463 491 463 491 485 515.5 c 128,-1,18
 507 540 507 540 529.5 565.5 c 128,-1,19
 552 591 552 591 566 607 c 0,20,21
 589 632 589 632 609.5 654.5 c 128,-1,22
 630 677 630 677 639 706 c 0,23,24
 644 726 644 726 637.5 735 c 128,-1,25
 631 744 631 744 608 744 c 0,26,27
 593 744 593 744 560 718 c 128,-1,28
 527 692 527 692 484 648.5 c 128,-1,29
 441 605 441 605 390.5 548 c 128,-1,30
 340 491 340 491 289.5 430 c 128,-1,31
 239 369 239 369 191 307.5 c 128,-1,32
 143 246 143 246 105 192.5 c 128,-1,33
 67 139 67 139 42 98.5 c 128,-1,34
 17 58 17 58 12 39 c 0,0,1
EndSplineSet
Validated: 9
EndChar

StartChar: zero
Encoding: 48 48 25
Width: 655
Flags: W
LayerCount: 2
Fore
SplineSet
67 251 m 0,0,1
 54 200 54 200 59 154.5 c 128,-1,2
 64 109 64 109 86.5 74.5 c 128,-1,3
 109 40 109 40 149.5 20 c 128,-1,4
 190 0 190 0 250 0 c 0,5,6
 305 0 305 0 358.5 19 c 128,-1,7
 412 38 412 38 461 70 c 128,-1,8
 510 102 510 102 554 144 c 128,-1,9
 598 186 598 186 633 233 c 128,-1,10
 668 280 668 280 693 328.5 c 128,-1,11
 718 377 718 377 730 421 c 0,12,13
 741 463 741 463 740.5 515 c 128,-1,14
 740 567 740 567 723.5 612 c 128,-1,15
 707 657 707 657 671.5 687.5 c 128,-1,16
 636 718 636 718 578 718 c 0,17,18
 514 718 514 718 455 697.5 c 128,-1,19
 396 677 396 677 344 641.5 c 128,-1,20
 292 606 292 606 247 559.5 c 128,-1,21
 202 513 202 513 166.5 461 c 128,-1,22
 131 409 131 409 105.5 355 c 128,-1,23
 80 301 80 301 67 251 c 0,0,1
197 272 m 0,24,25
 205 302 205 302 221 339.5 c 128,-1,26
 237 377 237 377 259.5 415 c 128,-1,27
 282 453 282 453 311 489 c 128,-1,28
 340 525 340 525 374.5 553 c 128,-1,29
 409 581 409 581 448 598 c 128,-1,30
 487 615 487 615 530 615 c 0,31,32
 570 615 570 615 595.5 596 c 128,-1,33
 621 577 621 577 633 547.5 c 128,-1,34
 645 518 645 518 646 484 c 128,-1,35
 647 450 647 450 639 420 c 0,36,37
 628 379 628 379 595 324 c 128,-1,38
 562 269 562 269 517 219 c 128,-1,39
 472 169 472 169 419 134.5 c 128,-1,40
 366 100 366 100 315 100 c 0,41,42
 274 100 274 100 247 114.5 c 128,-1,43
 220 129 220 129 205.5 153 c 128,-1,44
 191 177 191 177 189.5 208 c 128,-1,45
 188 239 188 239 197 272 c 0,24,25
EndSplineSet
Validated: 41
EndChar

StartChar: one
Encoding: 49 49 26
Width: 252
Flags: W
LayerCount: 2
Fore
SplineSet
120 120 m 1,0,-1
 110 88 l 2,1,2
 107 74 107 74 104.5 58.5 c 128,-1,3
 102 43 102 43 103.5 30 c 128,-1,4
 105 17 105 17 111 8.5 c 128,-1,5
 117 0 117 0 131 0 c 0,6,7
 157 0 157 0 176 16 c 128,-1,8
 195 32 195 32 208 55 c 1,9,10
 223 121 223 121 243 188 c 128,-1,11
 263 255 263 255 284 322 c 128,-1,12
 305 389 305 389 325.5 456.5 c 128,-1,13
 346 524 346 524 364 590 c 2,14,-1
 368 604 l 1,15,-1
 379 653 l 1,16,-1
 384 668 l 1,17,18
 383 687 383 687 364.5 702.5 c 128,-1,19
 346 718 346 718 326 718 c 0,20,21
 319 718 319 718 301 703 c 128,-1,22
 283 688 283 688 259 664.5 c 128,-1,23
 235 641 235 641 209 612.5 c 128,-1,24
 183 584 183 584 160.5 557 c 128,-1,25
 138 530 138 530 123 509 c 128,-1,26
 108 488 108 488 106 478 c 0,27,28
 101 460 101 460 108.5 454 c 128,-1,29
 116 448 116 448 137 448 c 0,30,31
 147 448 147 448 155.5 451.5 c 128,-1,32
 164 455 164 455 171.5 459.5 c 128,-1,33
 179 464 179 464 186.5 468 c 128,-1,34
 194 472 194 472 204 472 c 0,35,36
 207 472 207 472 211 471.5 c 128,-1,37
 215 471 215 471 217 464 c 2,38,-1
 205 420 l 2,39,40
 185 345 185 345 161.5 270 c 128,-1,41
 138 195 138 195 120 120 c 1,0,-1
EndSplineSet
Validated: 9
EndChar

StartChar: two
Encoding: 50 50 27
Width: 503
Flags: W
LayerCount: 2
Fore
SplineSet
44 122 m 1,0,-1
 20 34 l 2,1,2
 16 23 16 23 21.5 16.5 c 128,-1,3
 27 10 27 10 37 6.5 c 128,-1,4
 47 3 47 3 58 1.5 c 128,-1,5
 69 0 69 0 77 0 c 0,6,7
 100 0 100 0 124 4.5 c 128,-1,8
 148 9 148 9 172 15 c 128,-1,9
 196 21 196 21 221 26.5 c 128,-1,10
 246 32 246 32 271 34 c 0,11,12
 282 35 282 35 307.5 35.5 c 128,-1,13
 333 36 333 36 363 36 c 256,14,15
 393 36 393 36 417 35.5 c 128,-1,16
 441 35 441 35 453 34 c 0,17,18
 485 42 485 42 493 71 c 0,19,20
 499 90 499 90 492 102.5 c 128,-1,21
 485 115 485 115 471.5 122.5 c 128,-1,22
 458 130 458 130 440 133 c 128,-1,23
 422 136 422 136 406 136 c 0,24,25
 350 136 350 136 295.5 127 c 128,-1,26
 241 118 241 118 186 118 c 1,27,-1
 189 130 l 1,28,29
 255 174 255 174 322 222.5 c 128,-1,30
 389 271 389 271 447.5 326 c 128,-1,31
 506 381 506 381 549.5 442.5 c 128,-1,32
 593 504 593 504 612 575 c 0,33,34
 625 629 625 629 609.5 667 c 128,-1,35
 594 705 594 705 535 716 c 1,36,-1
 521 716 l 2,37,38
 512 716 512 716 502 717 c 128,-1,39
 492 718 492 718 481 718 c 2,40,-1
 466 718 l 2,41,42
 454 718 454 718 429.5 716 c 128,-1,43
 405 714 405 714 375.5 709 c 128,-1,44
 346 704 346 704 314 696.5 c 128,-1,45
 282 689 282 689 254.5 679 c 128,-1,46
 227 669 227 669 207.5 655.5 c 128,-1,47
 188 642 188 642 184 625 c 0,48,49
 166 558 166 558 233 558 c 0,50,51
 258 558 258 558 281.5 568 c 128,-1,52
 305 578 305 578 328 589.5 c 128,-1,53
 351 601 351 601 375 611 c 128,-1,54
 399 621 399 621 426 621 c 0,55,56
 444 621 444 621 460 618 c 128,-1,57
 476 615 476 615 486.5 607.5 c 128,-1,58
 497 600 497 600 501.5 588 c 128,-1,59
 506 576 506 576 502 558 c 0,60,61
 494 528 494 528 476.5 499 c 128,-1,62
 459 470 459 470 435.5 443.5 c 128,-1,63
 412 417 412 417 385 392.5 c 128,-1,64
 358 368 358 368 330 347 c 0,65,66
 320 339 320 339 299.5 323.5 c 128,-1,67
 279 308 279 308 253 289 c 128,-1,68
 227 270 227 270 198 248.5 c 128,-1,69
 169 227 169 227 142.5 207.5 c 128,-1,70
 116 188 116 188 95.5 172.5 c 128,-1,71
 75 157 75 157 66 149 c 2,72,-1
 44 122 l 1,0,-1
EndSplineSet
Validated: 41
EndChar

StartChar: three
Encoding: 51 51 28
Width: 575
Flags: W
LayerCount: 2
Fore
SplineSet
29 74 m 0,0,1
 24 58 24 58 29 45 c 128,-1,2
 34 32 34 32 45 23 c 128,-1,3
 56 14 56 14 71 8 c 128,-1,4
 86 2 86 2 101 0 c 2,5,-1
 177 0 l 2,6,7
 234 0 234 0 298 13.5 c 128,-1,8
 362 27 362 27 419 55 c 128,-1,9
 476 83 476 83 520 126.5 c 128,-1,10
 564 170 564 170 581 230 c 0,11,12
 590 264 590 264 584.5 291.5 c 128,-1,13
 579 319 579 319 564.5 343 c 128,-1,14
 550 367 550 367 529.5 387.5 c 128,-1,15
 509 408 509 408 487 428 c 0,16,17
 484 431 484 431 480 436 c 128,-1,18
 476 441 476 441 476 441 c 2,19,20
 476 446 476 446 490.5 457.5 c 128,-1,21
 505 469 505 469 528 485.5 c 128,-1,22
 551 502 551 502 578 521.5 c 128,-1,23
 605 541 605 541 629.5 561 c 128,-1,24
 654 581 654 581 672 600.5 c 128,-1,25
 690 620 690 620 695 636 c 0,26,27
 704 669 704 669 685 690 c 128,-1,28
 666 711 666 711 633.5 722.5 c 128,-1,29
 601 734 601 734 563 738 c 128,-1,30
 525 742 525 742 496 742 c 0,31,32
 479 742 479 742 451.5 739.5 c 128,-1,33
 424 737 424 737 391 732 c 128,-1,34
 358 727 358 727 324 718.5 c 128,-1,35
 290 710 290 710 260.5 698 c 128,-1,36
 231 686 231 686 210.5 670 c 128,-1,37
 190 654 190 654 184 634 c 0,38,39
 182 626 182 626 186 618 c 128,-1,40
 190 610 190 610 197.5 603.5 c 128,-1,41
 205 597 205 597 215 593 c 128,-1,42
 225 589 225 589 235 589 c 0,43,44
 238 589 238 589 239.5 589.5 c 128,-1,45
 241 590 241 590 242 590 c 0,46,47
 299 615 299 615 349.5 629 c 128,-1,48
 400 643 400 643 459 643 c 2,49,-1
 468 643 l 2,50,51
 476 643 476 643 483 642.5 c 128,-1,52
 490 642 490 642 497 642 c 2,53,-1
 506 642 l 2,54,55
 518 639 518 639 529 629.5 c 128,-1,56
 540 620 540 620 536 608 c 0,57,58
 530 585 530 585 504 562.5 c 128,-1,59
 478 540 478 540 442 517.5 c 128,-1,60
 406 495 406 495 364.5 473.5 c 128,-1,61
 323 452 323 452 287.5 432 c 128,-1,62
 252 412 252 412 226.5 392.5 c 128,-1,63
 201 373 201 373 196 356 c 0,64,65
 184 313 184 313 231 313 c 0,66,67
 263 313 263 313 296 324 c 128,-1,68
 329 335 329 335 361 335 c 0,69,70
 382 335 382 335 403.5 327.5 c 128,-1,71
 425 320 425 320 441 306.5 c 128,-1,72
 457 293 457 293 465 275.5 c 128,-1,73
 473 258 473 258 467 237 c 0,74,75
 457 199 457 199 427.5 174.5 c 128,-1,76
 398 150 398 150 359.5 136 c 128,-1,77
 321 122 321 122 280.5 117 c 128,-1,78
 240 112 240 112 207 112 c 0,79,80
 175 112 175 112 147 116 c 128,-1,81
 119 120 119 120 87 120 c 2,82,-1
 57 120 l 1,83,84
 40 111 40 111 36 98.5 c 128,-1,85
 32 86 32 86 29 74 c 0,0,1
EndSplineSet
Validated: 41
EndChar

StartChar: four
Encoding: 52 52 29
Width: 581
Flags: W
LayerCount: 2
Fore
SplineSet
369 328 m 2,0,-1
 442 328 l 2,1,2
 452 328 452 328 451 321 c 2,3,-1
 382 55 l 2,4,5
 374 27 374 27 378.5 13 c 128,-1,6
 383 -1 383 -1 413 -1 c 0,7,8
 428 -1 428 -1 439.5 0.5 c 128,-1,9
 451 2 451 2 463 21 c 1,10,11
 475 66 475 66 486 101 c 128,-1,12
 497 136 497 136 509 169 c 128,-1,13
 521 202 521 202 534.5 236.5 c 128,-1,14
 548 271 548 271 565 313 c 0,15,16
 570 328 570 328 581 341.5 c 128,-1,17
 592 355 592 355 603.5 367.5 c 128,-1,18
 615 380 615 380 625 393 c 128,-1,19
 635 406 635 406 638 420 c 0,20,21
 642 434 642 434 638 448.5 c 128,-1,22
 634 463 634 463 637 477 c 0,23,24
 650 524 650 524 673.5 570.5 c 128,-1,25
 697 617 697 617 711 667 c 2,26,-1
 717 686 l 2,27,28
 720 702 720 702 720.5 718.5 c 128,-1,29
 721 735 721 735 708 742 c 0,30,31
 705 744 705 744 695 744.5 c 128,-1,32
 685 745 685 745 682 745 c 2,33,-1
 666 745 l 2,34,35
 655 745 655 745 645 741 c 128,-1,36
 635 737 635 737 627 723 c 0,37,38
 623 714 623 714 614.5 694 c 128,-1,39
 606 674 606 674 595 649 c 128,-1,40
 584 624 584 624 571.5 596.5 c 128,-1,41
 559 569 559 569 547.5 544 c 128,-1,42
 536 519 536 519 527.5 499.5 c 128,-1,43
 519 480 519 480 515 471 c 0,44,45
 502 444 502 444 483.5 433 c 128,-1,46
 465 422 465 422 433 422 c 2,47,-1
 243 422 l 2,48,49
 236 422 236 422 238 429 c 2,50,-1
 240 438 l 2,51,52
 248 470 248 470 270.5 500 c 128,-1,53
 293 530 293 530 318 558.5 c 128,-1,54
 343 587 343 587 365.5 616 c 128,-1,55
 388 645 388 645 396 676 c 0,56,57
 406 719 406 719 360 719 c 0,58,59
 336 719 336 719 306.5 695.5 c 128,-1,60
 277 672 277 672 246.5 635 c 128,-1,61
 216 598 216 598 187 552.5 c 128,-1,62
 158 507 158 507 134 463 c 0,63,64
 111 416 111 416 95 383 c 128,-1,65
 79 350 79 350 74 329 c 128,-1,66
 69 308 69 308 76.5 298 c 128,-1,67
 84 288 84 288 108 286 c 0,68,69
 120 286 120 286 129 289.5 c 128,-1,70
 138 293 138 293 147 298 c 128,-1,71
 156 303 156 303 165 307 c 128,-1,72
 174 311 174 311 185 313 c 0,73,74
 230 324 230 324 276.5 326 c 128,-1,75
 323 328 323 328 369 328 c 2,0,-1
EndSplineSet
Validated: 41
EndChar

StartChar: five
Encoding: 53 53 30
Width: 627
Flags: W
LayerCount: 2
Fore
SplineSet
51 153 m 0,0,1
 37 105 37 105 53.5 75 c 128,-1,2
 70 45 70 45 104.5 28.5 c 128,-1,3
 139 12 139 12 184.5 6 c 128,-1,4
 230 0 230 0 272 0 c 0,5,6
 334 0 334 0 394.5 20 c 128,-1,7
 455 40 455 40 505 76 c 128,-1,8
 555 112 555 112 591.5 160.5 c 128,-1,9
 628 209 628 209 643 266 c 0,10,11
 651 299 651 299 651 335 c 256,12,13
 651 371 651 371 638.5 401.5 c 128,-1,14
 626 432 626 432 599.5 451.5 c 128,-1,15
 573 471 573 471 529 471 c 2,16,-1
 278 471 l 2,17,18
 277 471 277 471 277 475 c 0,19,20
 277 480 277 480 275 485 c 2,21,-1
 276 490 l 2,22,23
 277 496 277 496 282.5 510 c 128,-1,24
 288 524 288 524 293.5 539.5 c 128,-1,25
 299 555 299 555 304 568 c 128,-1,26
 309 581 309 581 310 586 c 0,27,28
 321 602 321 602 341 613 c 128,-1,29
 361 624 361 624 384.5 630.5 c 128,-1,30
 408 637 408 637 431 639.5 c 128,-1,31
 454 642 454 642 470 642 c 0,32,33
 525 642 525 642 577 633.5 c 128,-1,34
 629 625 629 625 685 625 c 0,35,36
 708 625 708 625 728 631.5 c 128,-1,37
 748 638 748 638 756 663 c 0,38,39
 763 691 763 691 743.5 706 c 128,-1,40
 724 721 724 721 693 728 c 128,-1,41
 662 735 662 735 628.5 736 c 128,-1,42
 595 737 595 737 574 737 c 0,43,44
 495 737 495 737 418 721 c 128,-1,45
 341 705 341 705 258 682 c 1,46,47
 250 675 250 675 242 669.5 c 128,-1,48
 234 664 234 664 229 655 c 0,49,50
 208 586 208 586 183 517.5 c 128,-1,51
 158 449 158 449 141 380 c 0,52,53
 135 361 135 361 134.5 350 c 128,-1,54
 134 339 134 339 151 328 c 0,55,56
 152 326 152 326 164 326 c 2,57,-1
 179 326 l 2,58,59
 206 326 206 326 235 332.5 c 128,-1,60
 264 339 264 339 293.5 347.5 c 128,-1,61
 323 356 323 356 353 362.5 c 128,-1,62
 383 369 383 369 413 369 c 2,63,-1
 425 369 l 2,64,65
 433 369 433 369 442 368.5 c 128,-1,66
 451 368 451 368 460 368 c 2,67,-1
 472 368 l 1,68,69
 512 349 512 349 529 323 c 128,-1,70
 546 297 546 297 533 251 c 0,71,72
 523 216 523 216 499.5 188 c 128,-1,73
 476 160 476 160 444.5 140.5 c 128,-1,74
 413 121 413 121 376 110.5 c 128,-1,75
 339 100 339 100 302 100 c 0,76,77
 264 100 264 100 232 103.5 c 128,-1,78
 200 107 200 107 174 130 c 0,79,80
 165 136 165 136 158 148.5 c 128,-1,81
 151 161 151 161 143.5 173.5 c 128,-1,82
 136 186 136 186 127 195.5 c 128,-1,83
 118 205 118 205 105 205 c 0,84,85
 81 205 81 205 68 188.5 c 128,-1,86
 55 172 55 172 51 153 c 0,0,1
EndSplineSet
Validated: 41
EndChar

StartChar: six
Encoding: 54 54 31
Width: 573
Flags: W
LayerCount: 2
Fore
SplineSet
76 294 m 0,0,1
 63 244 63 244 60 192 c 128,-1,2
 57 140 57 140 71.5 97.5 c 128,-1,3
 86 55 86 55 122 27.5 c 128,-1,4
 158 0 158 0 224 0 c 0,5,6
 288 0 288 0 353 24 c 128,-1,7
 418 48 418 48 472.5 88 c 128,-1,8
 527 128 527 128 567 180 c 128,-1,9
 607 232 607 232 621 289 c 0,10,11
 628 314 628 314 628.5 339 c 128,-1,12
 629 364 629 364 620.5 384.5 c 128,-1,13
 612 405 612 405 594.5 420.5 c 128,-1,14
 577 436 577 436 549 443 c 1,15,-1
 536 443 l 2,16,17
 527 443 527 443 519 444 c 128,-1,18
 511 445 511 445 502 445 c 2,19,-1
 490 445 l 2,20,21
 452 445 452 445 419 439 c 128,-1,22
 386 433 386 433 354.5 422 c 128,-1,23
 323 411 323 411 291.5 396 c 128,-1,24
 260 381 260 381 225 363 c 1,25,-1
 211 363 l 1,26,27
 227 422 227 422 264 469.5 c 128,-1,28
 301 517 301 517 351 555.5 c 128,-1,29
 401 594 401 594 460.5 623.5 c 128,-1,30
 520 653 520 653 582 676 c 1,31,32
 600 687 600 687 606 697.5 c 128,-1,33
 612 708 612 708 617 724 c 0,34,35
 621 739 621 739 621 747 c 0,36,37
 621 756 621 756 604 763 c 0,38,39
 599 763 599 763 588.5 763.5 c 128,-1,40
 578 764 578 764 573 764 c 0,41,42
 551 764 551 764 533 760 c 128,-1,43
 515 756 515 756 497.5 749 c 128,-1,44
 480 742 480 742 462 732 c 128,-1,45
 444 722 444 722 421 710 c 0,46,47
 287 635 287 635 198.5 527.5 c 128,-1,48
 110 420 110 420 76 294 c 0,0,1
164 194 m 0,49,50
 172 225 172 225 204.5 251 c 128,-1,51
 237 277 237 277 278.5 295.5 c 128,-1,52
 320 314 320 314 363 324.5 c 128,-1,53
 406 335 406 335 436 335 c 0,54,55
 452 335 452 335 465.5 332.5 c 128,-1,56
 479 330 479 330 488 324 c 128,-1,57
 497 318 497 318 500.5 308 c 128,-1,58
 504 298 504 298 499 282 c 0,59,60
 490 249 490 249 465.5 218 c 128,-1,61
 441 187 441 187 407.5 162.5 c 128,-1,62
 374 138 374 138 335.5 123.5 c 128,-1,63
 297 109 297 109 262 109 c 0,64,65
 241 109 241 109 220.5 114 c 128,-1,66
 200 119 200 119 185.5 129 c 128,-1,67
 171 139 171 139 164.5 155 c 128,-1,68
 158 171 158 171 164 194 c 0,49,50
EndSplineSet
Validated: 41
EndChar

StartChar: seven
Encoding: 55 55 32
Width: 529
Flags: W
LayerCount: 2
Fore
SplineSet
54 47 m 0,0,1
 49 26 49 26 60.5 13 c 128,-1,2
 72 0 72 0 96 0 c 0,3,4
 123 0 123 0 147 25 c 128,-1,5
 171 50 171 50 191.5 83.5 c 128,-1,6
 212 117 212 117 228 150 c 128,-1,7
 244 183 244 183 255 198 c 0,8,9
 293 250 293 250 338 299.5 c 128,-1,10
 383 349 383 349 431.5 395.5 c 128,-1,11
 480 442 480 442 531.5 486 c 128,-1,12
 583 530 583 530 635 573 c 0,13,14
 640 580 640 580 644 587 c 128,-1,15
 648 594 648 594 651 602 c 2,16,-1
 658 630 l 1,17,-1
 661 638 l 1,18,-1
 663 649 l 2,19,20
 664 652 664 652 664 654 c 0,21,22
 664 657 664 657 666 660 c 2,23,-1
 668 668 l 2,24,25
 668 678 668 678 663 688 c 128,-1,26
 658 698 658 698 649.5 706 c 128,-1,27
 641 714 641 714 630 720.5 c 128,-1,28
 619 727 619 727 609 731 c 1,29,-1
 558 731 l 2,30,31
 516 731 516 731 474.5 726 c 128,-1,32
 433 721 433 721 391 716 c 128,-1,33
 349 711 349 711 307.5 708.5 c 128,-1,34
 266 706 266 706 225 710 c 1,35,36
 189 701 189 701 171 675 c 128,-1,37
 153 649 153 649 146 623 c 0,38,39
 144 614 144 614 142.5 607 c 128,-1,40
 141 600 141 600 139 593 c 0,41,42
 135 575 135 575 144.5 566.5 c 128,-1,43
 154 558 154 558 183 558 c 0,44,45
 202 558 202 558 213 565 c 128,-1,46
 224 572 224 572 233 581.5 c 128,-1,47
 242 591 242 591 251.5 600.5 c 128,-1,48
 261 610 261 610 275 614 c 0,49,50
 342 636 342 636 408 637 c 128,-1,51
 474 638 474 638 538 638 c 1,52,-1
 533 614 l 1,53,54
 459 555 459 555 396 493.5 c 128,-1,55
 333 432 333 432 277 366.5 c 128,-1,56
 221 301 221 301 171 232 c 128,-1,57
 121 163 121 163 74 88 c 0,58,59
 63 74 63 74 60.5 67 c 128,-1,60
 58 60 58 60 54 47 c 0,0,1
EndSplineSet
Validated: 41
EndChar

StartChar: eight
Encoding: 56 56 33
Width: 624
Flags: W
LayerCount: 2
Fore
SplineSet
47 153 m 0,0,1
 36 115 36 115 44.5 86.5 c 128,-1,2
 53 58 53 58 75 39 c 128,-1,3
 97 20 97 20 130 10 c 128,-1,4
 163 0 163 0 203 0 c 0,5,6
 238 0 238 0 283 9 c 128,-1,7
 328 18 328 18 376 34 c 128,-1,8
 424 50 424 50 471.5 72.5 c 128,-1,9
 519 95 519 95 558.5 123 c 128,-1,10
 598 151 598 151 626.5 183.5 c 128,-1,11
 655 216 655 216 665 251 c 0,12,13
 672 279 672 279 667.5 304.5 c 128,-1,14
 663 330 663 330 650.5 353 c 128,-1,15
 638 376 638 376 619.5 395.5 c 128,-1,16
 601 415 601 415 581 430 c 1,17,-1
 583 439 l 2,18,19
 588 456 588 456 607.5 478 c 128,-1,20
 627 500 627 500 649.5 526 c 128,-1,21
 672 552 672 552 693 582 c 128,-1,22
 714 612 714 612 723 646 c 0,23,24
 729 665 729 665 727 689 c 128,-1,25
 725 713 725 713 715.5 734 c 128,-1,26
 706 755 706 755 689 769.5 c 128,-1,27
 672 784 672 784 647 784 c 2,28,-1
 518 784 l 2,29,30
 492 784 492 784 458 771 c 128,-1,31
 424 758 424 758 388 736 c 128,-1,32
 352 714 352 714 316 686.5 c 128,-1,33
 280 659 280 659 250.5 630.5 c 128,-1,34
 221 602 221 602 200.5 574 c 128,-1,35
 180 546 180 546 174 525 c 128,-1,36
 168 504 168 504 175.5 486.5 c 128,-1,37
 183 469 183 469 193.5 453 c 128,-1,38
 204 437 204 437 212 420 c 128,-1,39
 220 403 220 403 214 383 c 0,40,41
 211 369 211 369 188.5 345.5 c 128,-1,42
 166 322 166 322 137.5 291.5 c 128,-1,43
 109 261 109 261 82.5 225.5 c 128,-1,44
 56 190 56 190 47 153 c 0,0,1
146 122 m 1,45,-1
 151 146 l 2,46,47
 161 187 161 187 190 226 c 128,-1,48
 219 265 219 265 259.5 295.5 c 128,-1,49
 300 326 300 326 347 344.5 c 128,-1,50
 394 363 394 363 441 363 c 0,51,52
 468 363 468 363 487 353 c 128,-1,53
 506 343 506 343 516.5 326.5 c 128,-1,54
 527 310 527 310 529.5 289 c 128,-1,55
 532 268 532 268 526 246 c 0,56,57
 518 212 518 212 490 183 c 128,-1,58
 462 154 462 154 425.5 133 c 128,-1,59
 389 112 389 112 348 100 c 128,-1,60
 307 88 307 88 272 88 c 0,61,62
 262 88 262 88 242.5 89 c 128,-1,63
 223 90 223 90 202.5 93.5 c 128,-1,64
 182 97 182 97 166 104 c 128,-1,65
 150 111 150 111 146 122 c 1,45,-1
294 520 m 0,66,67
 301 548 301 548 327.5 578.5 c 128,-1,68
 354 609 354 609 389 635 c 128,-1,69
 424 661 424 661 462.5 678 c 128,-1,70
 501 695 501 695 531 695 c 0,71,72
 579 695 579 695 594 681 c 128,-1,73
 609 667 609 667 597 625 c 0,74,75
 585 578 585 578 560.5 544.5 c 128,-1,76
 536 511 536 511 502 490 c 128,-1,77
 468 469 468 469 425.5 459.5 c 128,-1,78
 383 450 383 450 335 450 c 0,79,80
 322 450 322 450 313 457 c 128,-1,81
 304 464 304 464 299 474.5 c 128,-1,82
 294 485 294 485 293 497.5 c 128,-1,83
 292 510 292 510 294 520 c 0,66,67
EndSplineSet
Validated: 41
EndChar

StartChar: nine
Encoding: 57 57 34
Width: 564
Flags: W
LayerCount: 2
Fore
SplineSet
343 299 m 2,0,-1
 347 299 l 2,1,2
 348 298 348 298 350.5 296.5 c 128,-1,3
 353 295 353 295 352 294 c 2,4,-1
 281 21 l 2,5,6
 277 6 277 6 288 3 c 128,-1,7
 299 0 299 0 308 0 c 0,8,9
 325 0 325 0 337.5 7 c 128,-1,10
 350 14 350 14 359 24.5 c 128,-1,11
 368 35 368 35 374.5 48.5 c 128,-1,12
 381 62 381 62 386 75 c 2,13,-1
 430 183 l 2,14,15
 483 306 483 306 551.5 425.5 c 128,-1,16
 620 545 620 545 692 660 c 1,17,-1
 695 672 l 2,18,19
 703 702 703 702 691.5 722.5 c 128,-1,20
 680 743 680 743 657.5 755.5 c 128,-1,21
 635 768 635 768 606.5 773.5 c 128,-1,22
 578 779 578 779 551 779 c 0,23,24
 484 779 484 779 414 756 c 128,-1,25
 344 733 344 733 282.5 693 c 128,-1,26
 221 653 221 653 175.5 598.5 c 128,-1,27
 130 544 130 544 112 481 c 0,28,29
 102 444 102 444 100.5 409 c 128,-1,30
 99 374 99 374 110 346.5 c 128,-1,31
 121 319 121 319 147.5 302.5 c 128,-1,32
 174 286 174 286 221 286 c 0,33,34
 251 286 251 286 281.5 292.5 c 128,-1,35
 312 299 312 299 343 299 c 2,0,-1
212 481 m 0,36,37
 222 522 222 522 256 560.5 c 128,-1,38
 290 599 290 599 335 629 c 128,-1,39
 380 659 380 659 430.5 677 c 128,-1,40
 481 695 481 695 525 695 c 0,41,42
 542 695 542 695 554.5 692.5 c 128,-1,43
 567 690 567 690 577 682 c 1,44,-1
 574 666 l 2,45,46
 569 651 569 651 559.5 635.5 c 128,-1,47
 550 620 550 620 538.5 605 c 128,-1,48
 527 590 527 590 515.5 575 c 128,-1,49
 504 560 504 560 496 545 c 0,50,51
 475 513 475 513 454.5 482 c 128,-1,52
 434 451 434 451 409 427 c 128,-1,53
 384 403 384 403 351 388 c 128,-1,54
 318 373 318 373 273 373 c 0,55,56
 251 373 251 373 237 383.5 c 128,-1,57
 223 394 223 394 215.5 410 c 128,-1,58
 208 426 208 426 207.5 445 c 128,-1,59
 207 464 207 464 212 481 c 0,36,37
EndSplineSet
Validated: 41
EndChar

StartChar: colon
Encoding: 58 58 35
Width: 179
Flags: W
LayerCount: 2
Fore
SplineSet
117 412 m 0,0,1
 111 392 111 392 116.5 373.5 c 128,-1,2
 122 355 122 355 148 355 c 0,3,4
 178 355 178 355 204.5 373 c 128,-1,5
 231 391 231 391 253 409 c 0,6,7
 254 412 254 412 257 419.5 c 128,-1,8
 260 427 260 427 260 430 c 0,9,10
 266 453 266 453 255.5 471.5 c 128,-1,11
 245 490 245 490 214 490 c 0,12,13
 197 490 197 490 181 482.5 c 128,-1,14
 165 475 165 475 151.5 464 c 128,-1,15
 138 453 138 453 129 439 c 128,-1,16
 120 425 120 425 117 412 c 0,0,1
28 75 m 0,17,18
 20 55 20 55 22 41 c 128,-1,19
 24 27 24 27 50 27 c 0,20,21
 66 27 66 27 86 33 c 128,-1,22
 106 39 106 39 124 49 c 128,-1,23
 142 59 142 59 155.5 73 c 128,-1,24
 169 87 169 87 174 104 c 0,25,26
 176 114 176 114 171 123.5 c 128,-1,27
 166 133 166 133 156.5 140.5 c 128,-1,28
 147 148 147 148 134.5 152.5 c 128,-1,29
 122 157 122 157 110 157 c 0,30,31
 92 157 92 157 78 149 c 128,-1,32
 64 141 64 141 53.5 129 c 128,-1,33
 43 117 43 117 37 102.5 c 128,-1,34
 31 88 31 88 28 75 c 0,17,18
EndSplineSet
Validated: 41
EndChar

StartChar: semicolon
Encoding: 59 59 36
Width: 235
Flags: W
LayerCount: 2
Fore
SplineSet
-12 -81 m 0,0,1
 -17 -98 -17 -98 -8 -102.5 c 128,-1,2
 1 -107 1 -107 16 -107 c 0,3,4
 53 -107 53 -107 85.5 -90 c 128,-1,5
 118 -73 118 -73 143 -46.5 c 128,-1,6
 168 -20 168 -20 185 11 c 128,-1,7
 202 42 202 42 210 71 c 2,8,-1
 217 104 l 1,9,-1
 220 112 l 1,10,11
 218 126 218 126 213 130 c 128,-1,12
 208 134 208 134 192 134 c 0,13,14
 165 134 165 134 148 119 c 128,-1,15
 131 104 131 104 118.5 83.5 c 128,-1,16
 106 63 106 63 95.5 41 c 128,-1,17
 85 19 85 19 70 5 c 0,18,19
 60 -6 60 -6 47 -16 c 128,-1,20
 34 -26 34 -26 22 -36.5 c 128,-1,21
 10 -47 10 -47 0.5 -58 c 128,-1,22
 -9 -69 -9 -69 -12 -81 c 0,0,1
189 399 m 0,23,24
 181 376 181 376 184 360 c 128,-1,25
 187 344 187 344 216 344 c 0,26,27
 232 344 232 344 248 349 c 128,-1,28
 264 354 264 354 278 363 c 128,-1,29
 292 372 292 372 302 384.5 c 128,-1,30
 312 397 312 397 315 412 c 0,31,32
 322 438 322 438 309.5 457 c 128,-1,33
 297 476 297 476 265 476 c 0,34,35
 247 476 247 476 234 468.5 c 128,-1,36
 221 461 221 461 211.5 449.5 c 128,-1,37
 202 438 202 438 196.5 424.5 c 128,-1,38
 191 411 191 411 189 399 c 0,23,24
EndSplineSet
Validated: 41
EndChar

StartChar: less
Encoding: 60 60 37
Width: 403
Flags: W
LayerCount: 2
Fore
SplineSet
248 5 m 0,0,1
 252 0 252 0 259 0 c 2,2,-1
 273 0 l 2,3,4
 296 0 296 0 309 11 c 128,-1,5
 322 22 322 22 327 40 c 0,6,7
 339 84 339 84 329.5 128.5 c 128,-1,8
 320 173 320 173 300.5 215 c 128,-1,9
 281 257 281 257 257 294.5 c 128,-1,10
 233 332 233 332 215 363 c 1,11,-1
 217 374 l 2,12,13
 223 396 223 396 248 424 c 128,-1,14
 273 452 273 452 307 482.5 c 128,-1,15
 341 513 341 513 380 544.5 c 128,-1,16
 419 576 419 576 453 606 c 128,-1,17
 487 636 487 636 511.5 662.5 c 128,-1,18
 536 689 536 689 542 710 c 0,19,20
 545 718 545 718 545.5 725 c 128,-1,21
 546 732 546 732 533 737 c 1,22,-1
 507 737 l 2,23,24
 491 737 491 737 471 734 c 128,-1,25
 451 731 451 731 437 716 c 2,26,-1
 113 409 l 2,27,28
 100 398 100 398 94.5 391 c 128,-1,29
 89 384 89 384 87 373 c 2,30,-1
 85 360 l 1,31,32
 76 329 76 329 87 302 c 128,-1,33
 98 275 98 275 118 250 c 128,-1,34
 138 225 138 225 161 202 c 128,-1,35
 184 179 184 179 198 157 c 0,36,37
 218 123 218 123 229 82 c 128,-1,38
 240 41 240 41 248 5 c 0,0,1
EndSplineSet
Validated: 41
EndChar

StartChar: equal
Encoding: 61 61 38
Width: 376
Flags: W
LayerCount: 2
Fore
SplineSet
101 426 m 0,0,1
 96 406 96 406 109 396 c 128,-1,2
 122 386 122 386 142 386 c 0,3,4
 160 386 160 386 172.5 387.5 c 128,-1,5
 185 389 185 389 198.5 392 c 128,-1,6
 212 395 212 395 229 399 c 128,-1,7
 246 403 246 403 273 408 c 0,8,9
 288 411 288 411 317.5 412 c 128,-1,10
 347 413 347 413 377.5 418.5 c 128,-1,11
 408 424 408 424 433 436.5 c 128,-1,12
 458 449 458 449 465 474 c 0,13,14
 467 487 467 487 467 494 c 0,15,16
 467 502 467 502 450 510 c 1,17,-1
 441 510 l 2,18,19
 434 510 434 510 426.5 510.5 c 128,-1,20
 419 511 419 511 412 511 c 2,21,-1
 400 511 l 2,22,23
 375 511 375 511 328 507.5 c 128,-1,24
 281 504 281 504 232.5 494 c 128,-1,25
 184 484 184 484 146 467.5 c 128,-1,26
 108 451 108 451 101 426 c 0,0,1
69 244 m 0,27,28
 60 218 60 218 73 214.5 c 128,-1,29
 86 211 86 211 113 211 c 2,30,-1
 153 211 l 2,31,32
 185 211 185 211 228 214 c 128,-1,33
 271 217 271 217 310.5 226.5 c 128,-1,34
 350 236 350 236 380.5 252.5 c 128,-1,35
 411 269 411 269 418 296 c 0,36,37
 423 319 423 319 415 326.5 c 128,-1,38
 407 334 407 334 383 334 c 0,39,40
 366 334 366 334 337 331.5 c 128,-1,41
 308 329 308 329 274 323.5 c 128,-1,42
 240 318 240 318 205 310.5 c 128,-1,43
 170 303 170 303 140.5 293 c 128,-1,44
 111 283 111 283 91.5 270.5 c 128,-1,45
 72 258 72 258 69 244 c 0,27,28
EndSplineSet
Validated: 9
EndChar

StartChar: greater
Encoding: 62 62 39
Width: 426
Flags: W
LayerCount: 2
Fore
SplineSet
21 44 m 0,0,1
 15 21 15 21 26.5 10.5 c 128,-1,2
 38 0 38 0 61 0 c 0,3,4
 76 0 76 0 85 1 c 128,-1,5
 94 2 94 2 105 21 c 0,6,7
 171 133 171 133 270 225 c 128,-1,8
 369 317 369 317 487 395 c 0,9,10
 502 408 502 408 507 419.5 c 128,-1,11
 512 431 512 431 516 447 c 0,12,13
 522 469 522 469 518 488.5 c 128,-1,14
 514 508 514 508 504 525 c 128,-1,15
 494 542 494 542 480 557 c 128,-1,16
 466 572 466 572 454 586 c 2,17,-1
 298 772 l 1,18,-1
 271 784 l 1,19,-1
 268 784 l 2,20,21
 250 784 250 784 234.5 774.5 c 128,-1,22
 219 765 219 765 214 746 c 0,23,24
 211 733 211 733 213.5 719.5 c 128,-1,25
 216 706 216 706 226 695 c 0,26,27
 233 687 233 687 250 665.5 c 128,-1,28
 267 644 267 644 285.5 620 c 128,-1,29
 304 596 304 596 320.5 574 c 128,-1,30
 337 552 337 552 345 545 c 0,31,32
 351 537 351 537 361 526 c 128,-1,33
 371 515 371 515 379.5 502 c 128,-1,34
 388 489 388 489 392.5 474 c 128,-1,35
 397 459 397 459 394 443 c 0,36,37
 393 440 393 440 391 435 c 128,-1,38
 389 430 389 430 389 430 c 1,39,40
 379 422 379 422 354 401.5 c 128,-1,41
 329 381 329 381 301.5 358.5 c 128,-1,42
 274 336 274 336 249.5 315.5 c 128,-1,43
 225 295 225 295 216 286 c 0,44,45
 190 265 190 265 159 235.5 c 128,-1,46
 128 206 128 206 100 173 c 128,-1,47
 72 140 72 140 50.5 106.5 c 128,-1,48
 29 73 29 73 21 44 c 0,0,1
EndSplineSet
Validated: 41
EndChar

StartChar: question
Encoding: 63 63 40
Width: 564
Flags: W
LayerCount: 2
Fore
SplineSet
574 658 m 0,0,1
 564 624 564 624 537 594.5 c 128,-1,2
 510 565 510 565 474.5 539 c 128,-1,3
 439 513 439 513 399.5 490.5 c 128,-1,4
 360 468 360 468 326 448.5 c 128,-1,5
 292 429 292 429 268.5 412.5 c 128,-1,6
 245 396 245 396 241 382 c 2,7,-1
 214 273 l 2,8,9
 212 265 212 265 214 260.5 c 128,-1,10
 216 256 216 256 221 254 c 128,-1,11
 226 252 226 252 232.5 251.5 c 128,-1,12
 239 251 239 251 245 251 c 0,13,14
 267 251 267 251 279 256.5 c 128,-1,15
 291 262 291 262 298.5 271.5 c 128,-1,16
 306 281 306 281 311 293.5 c 128,-1,17
 316 306 316 306 324 320.5 c 128,-1,18
 332 335 332 335 346 351 c 128,-1,19
 360 367 360 367 385 382 c 0,20,21
 433 413 433 413 483.5 444 c 128,-1,22
 534 475 534 475 578 510.5 c 128,-1,23
 622 546 622 546 654.5 587.5 c 128,-1,24
 687 629 687 629 701 682 c 0,25,26
 710 717 710 717 703.5 743 c 128,-1,27
 697 769 697 769 678.5 786 c 128,-1,28
 660 803 660 803 631 811 c 128,-1,29
 602 819 602 819 567 819 c 0,30,31
 546 819 546 819 508 813 c 128,-1,32
 470 807 470 807 425 796 c 128,-1,33
 380 785 380 785 333 769 c 128,-1,34
 286 753 286 753 246 733.5 c 128,-1,35
 206 714 206 714 178 691 c 128,-1,36
 150 668 150 668 143 643 c 0,37,38
 138 625 138 625 139 614.5 c 128,-1,39
 140 604 140 604 155 593 c 0,40,41
 159 593 159 593 169 592 c 128,-1,42
 179 591 179 591 183 591 c 0,43,44
 219 591 219 591 254 609.5 c 128,-1,45
 289 628 289 628 327 650.5 c 128,-1,46
 365 673 365 673 408 692 c 128,-1,47
 451 711 451 711 502 711 c 0,48,49
 505 711 505 711 511.5 710.5 c 128,-1,50
 518 710 518 710 525 710 c 2,51,-1
 547 710 l 1,52,53
 567 703 567 703 572.5 689.5 c 128,-1,54
 578 676 578 676 574 658 c 0,0,1
138 53 m 256,55,56
 130 27 130 27 143 13.5 c 128,-1,57
 156 0 156 0 182 0 c 0,58,59
 214 0 214 0 243 17.5 c 128,-1,60
 272 35 272 35 279 64 c 0,61,62
 284 87 284 87 266.5 104.5 c 128,-1,63
 249 122 249 122 226 122 c 0,64,65
 195 122 195 122 170.5 100.5 c 128,-1,66
 146 79 146 79 138 53 c 256,55,56
EndSplineSet
Validated: 41
EndChar

StartChar: at
Encoding: 64 64 41
Width: 724
Flags: W
LayerCount: 2
Fore
SplineSet
81 299 m 0,0,1
 66 242 66 242 70 188 c 128,-1,2
 74 134 74 134 99 92.5 c 128,-1,3
 124 51 124 51 171 25.5 c 128,-1,4
 218 0 218 0 290 0 c 0,5,6
 314 0 314 0 346 3 c 128,-1,7
 378 6 378 6 409 16 c 128,-1,8
 440 26 440 26 464.5 44 c 128,-1,9
 489 62 489 62 497 91 c 0,10,11
 503 111 503 111 491.5 121 c 128,-1,12
 480 131 480 131 460 131 c 0,13,14
 443 131 443 131 426 126 c 128,-1,15
 409 121 409 121 392.5 115.5 c 128,-1,16
 376 110 376 110 359.5 105 c 128,-1,17
 343 100 343 100 325 100 c 0,18,19
 270 100 270 100 238 118.5 c 128,-1,20
 206 137 206 137 192.5 167.5 c 128,-1,21
 179 198 179 198 180.5 238.5 c 128,-1,22
 182 279 182 279 194 324 c 0,23,24
 208 380 208 380 246.5 440 c 128,-1,25
 285 500 285 500 339 549.5 c 128,-1,26
 393 599 393 599 458 631 c 128,-1,27
 523 663 523 663 592 663 c 2,28,-1
 600 663 l 2,29,30
 608 663 608 663 618 661.5 c 128,-1,31
 628 660 628 660 631 660 c 0,32,33
 662 647 662 647 680.5 622 c 128,-1,34
 699 597 699 597 706.5 566.5 c 128,-1,35
 714 536 714 536 712.5 502.5 c 128,-1,36
 711 469 711 469 703 438 c 0,37,38
 701 426 701 426 692.5 401 c 128,-1,39
 684 376 684 376 670.5 350.5 c 128,-1,40
 657 325 657 325 639.5 305.5 c 128,-1,41
 622 286 622 286 602 286 c 0,42,43
 581 286 581 286 573 302.5 c 128,-1,44
 565 319 565 319 564 341.5 c 128,-1,45
 563 364 563 364 567 386 c 128,-1,46
 571 408 571 408 575 420 c 0,47,48
 580 438 580 438 589.5 454.5 c 128,-1,49
 599 471 599 471 609 487 c 128,-1,50
 619 503 619 503 628 519 c 128,-1,51
 637 535 637 535 642 552 c 0,52,53
 648 575 648 575 634 584.5 c 128,-1,54
 620 594 620 594 595 594 c 0,55,56
 540 594 540 594 487 567.5 c 128,-1,57
 434 541 434 541 390.5 500 c 128,-1,58
 347 459 347 459 316 410.5 c 128,-1,59
 285 362 285 362 275 318 c 0,60,61
 267 293 267 293 268.5 270 c 128,-1,62
 270 247 270 247 280.5 229.5 c 128,-1,63
 291 212 291 212 310 201.5 c 128,-1,64
 329 191 329 191 357 191 c 0,65,66
 376 191 376 191 394 196.5 c 128,-1,67
 412 202 412 202 429.5 208.5 c 128,-1,68
 447 215 447 215 463.5 220.5 c 128,-1,69
 480 226 480 226 498 226 c 0,70,71
 510 226 510 226 519 222.5 c 128,-1,72
 528 219 528 219 537 215 c 128,-1,73
 546 211 546 211 555 207.5 c 128,-1,74
 564 204 564 204 576 204 c 0,75,76
 622 204 622 204 660 229.5 c 128,-1,77
 698 255 698 255 727 292.5 c 128,-1,78
 756 330 756 330 775.5 372.5 c 128,-1,79
 795 415 795 415 803 448 c 0,80,81
 819 509 819 509 814.5 564.5 c 128,-1,82
 810 620 810 620 784 662 c 128,-1,83
 758 704 758 704 710 728.5 c 128,-1,84
 662 753 662 753 592 753 c 2,85,-1
 579 753 l 2,86,87
 571 753 571 753 559.5 752 c 128,-1,88
 548 751 548 751 540 751 c 2,89,-1
 528 751 l 1,90,91
 447 736 447 736 372.5 687 c 128,-1,92
 298 638 298 638 238.5 573 c 128,-1,93
 179 508 179 508 138 435.5 c 128,-1,94
 97 363 97 363 81 299 c 0,0,1
371 334 m 0,95,96
 374 347 374 347 388 372.5 c 128,-1,97
 402 398 402 398 421 423 c 128,-1,98
 440 448 440 448 459.5 466.5 c 128,-1,99
 479 485 479 485 494 485 c 2,100,-1
 516 485 l 1,101,102
 514 476 514 476 510.5 453.5 c 128,-1,103
 507 431 507 431 502 407 c 2,104,-1
 491 359 l 2,105,106
 489 348 489 348 487 340.5 c 128,-1,107
 485 333 485 333 483 328 c 2,108,-1
 481 320 l 2,109,110
 473 297 473 297 451.5 287.5 c 128,-1,111
 430 278 430 278 410 278 c 0,112,113
 375 278 375 278 368.5 291.5 c 128,-1,114
 362 305 362 305 371 334 c 0,95,96
EndSplineSet
Validated: 41
EndChar

StartChar: A
Encoding: 65 65 42
Width: 526
Flags: W
AnchorPoint: "top" 527 840 basechar 0
LayerCount: 2
Fore
SplineSet
430 27 m 1,0,1
 432 16 432 16 438 8 c 128,-1,2
 444 0 444 0 460 0 c 0,3,4
 479 0 479 0 492 16 c 128,-1,5
 505 32 505 32 509 47 c 2,6,-1
 578 308 l 1,7,8
 576 329 576 329 581.5 371.5 c 128,-1,9
 587 414 587 414 594.5 465 c 128,-1,10
 602 516 602 516 608 569.5 c 128,-1,11
 614 623 614 623 613 666.5 c 128,-1,12
 612 710 612 710 601.5 738 c 128,-1,13
 591 766 591 766 565 766 c 0,14,15
 536 766 536 766 505.5 750 c 128,-1,16
 475 734 475 734 444.5 708.5 c 128,-1,17
 414 683 414 683 385 651 c 128,-1,18
 356 619 356 619 331 587 c 128,-1,19
 306 555 306 555 286 526 c 128,-1,20
 266 497 266 497 253 478 c 0,21,22
 245 466 245 466 225 433.5 c 128,-1,23
 205 401 205 401 182 365 c 128,-1,24
 159 329 159 329 138 296.5 c 128,-1,25
 117 264 117 264 109 251 c 1,26,27
 86 238 86 238 73 227.5 c 128,-1,28
 60 217 60 217 55 194 c 0,29,30
 52 180 52 180 44.5 148.5 c 128,-1,31
 37 117 37 117 34 85 c 128,-1,32
 31 53 31 53 36 29 c 128,-1,33
 41 5 41 5 62 5 c 0,34,35
 95 5 95 5 109.5 26.5 c 128,-1,36
 124 48 124 48 133.5 76 c 128,-1,37
 143 104 143 104 152.5 131 c 128,-1,38
 162 158 162 158 185 170 c 0,39,40
 207 181 207 181 232 188 c 128,-1,41
 257 195 257 195 282 198.5 c 128,-1,42
 307 202 307 202 331.5 203 c 128,-1,43
 356 204 356 204 377 204 c 2,44,-1
 430 204 l 1,45,46
 453 196 453 196 454 181 c 128,-1,47
 455 166 455 166 452 143 c 0,48,49
 450 136 450 136 448 120 c 128,-1,50
 446 104 446 104 442 86 c 2,51,-1
 430 27 l 1,0,1
479 586 m 1,52,53
 498 571 498 571 500.5 539.5 c 128,-1,54
 503 508 503 508 498 472 c 128,-1,55
 493 436 493 436 483 401 c 128,-1,56
 473 366 473 366 467 344 c 2,57,-1
 461 321 l 1,58,59
 452 311 452 311 424 304 c 128,-1,60
 396 297 396 297 363.5 293 c 128,-1,61
 331 289 331 289 301.5 287.5 c 128,-1,62
 272 286 272 286 261 286 c 1,63,64
 266 304 266 304 278 330 c 128,-1,65
 290 356 290 356 307.5 385.5 c 128,-1,66
 325 415 325 415 346 445.5 c 128,-1,67
 367 476 367 476 389.5 503 c 128,-1,68
 412 530 412 530 435 552 c 128,-1,69
 458 574 458 574 479 586 c 1,52,53
EndSplineSet
Validated: 41
EndChar

StartChar: B
Encoding: 66 66 43
Width: 545
Flags: W
LayerCount: 2
Fore
SplineSet
35 101 m 0,0,1
 29 79 29 79 39 60.5 c 128,-1,2
 49 42 49 42 67.5 28.5 c 128,-1,3
 86 15 86 15 110.5 7.5 c 128,-1,4
 135 0 135 0 159 0 c 0,5,6
 191 0 191 0 232.5 10 c 128,-1,7
 274 20 274 20 318.5 37.5 c 128,-1,8
 363 55 363 55 407 78.5 c 128,-1,9
 451 102 451 102 487.5 130 c 128,-1,10
 524 158 524 158 550.5 189 c 128,-1,11
 577 220 577 220 586 251 c 0,12,13
 593 278 593 278 586 297.5 c 128,-1,14
 579 317 579 317 564.5 332 c 128,-1,15
 550 347 550 347 532 357.5 c 128,-1,16
 514 368 514 368 498.5 377 c 128,-1,17
 483 386 483 386 474 394.5 c 128,-1,18
 465 403 465 403 468 413 c 0,19,20
 474 434 474 434 494.5 458 c 128,-1,21
 515 482 515 482 539.5 509 c 128,-1,22
 564 536 564 536 586.5 565 c 128,-1,23
 609 594 609 594 617 625 c 0,24,25
 625 659 625 659 613 681.5 c 128,-1,26
 601 704 601 704 577 718 c 128,-1,27
 553 732 553 732 521.5 738 c 128,-1,28
 490 744 490 744 460 744 c 0,29,30
 436 744 436 744 395.5 740.5 c 128,-1,31
 355 737 355 737 315 726.5 c 128,-1,32
 275 716 275 716 243 696 c 128,-1,33
 211 676 211 676 203 643 c 0,34,35
 199 629 199 629 199 621 c 256,36,37
 199 613 199 613 207 602 c 1,38,39
 205 597 205 597 203 587 c 128,-1,40
 201 577 201 577 198 563 c 0,41,42
 194 548 194 548 191.5 535 c 128,-1,43
 189 522 189 522 185 510 c 2,44,-1
 179 487 l 2,45,46
 154 393 154 393 118.5 304.5 c 128,-1,47
 83 216 83 216 43 122 c 1,48,49
 43 122 43 122 40 114 c 128,-1,50
 37 106 37 106 35 101 c 0,0,1
148 116 m 1,51,-1
 153 143 l 2,52,53
 166 194 166 194 177 223.5 c 128,-1,54
 188 253 188 253 207 270.5 c 128,-1,55
 226 288 226 288 259.5 296.5 c 128,-1,56
 293 305 293 305 352 313 c 0,57,58
 353 313 353 313 362 314 c 128,-1,59
 371 315 371 315 376 315 c 0,60,61
 390 315 390 315 410 312.5 c 128,-1,62
 430 310 430 310 447.5 304 c 128,-1,63
 465 298 465 298 476 287 c 128,-1,64
 487 276 487 276 483 260 c 0,65,66
 474 231 474 231 440.5 201.5 c 128,-1,67
 407 172 407 172 364 148.5 c 128,-1,68
 321 125 321 125 276.5 110 c 128,-1,69
 232 95 232 95 203 95 c 0,70,71
 180 95 180 95 168 97.5 c 128,-1,72
 156 100 156 100 148 116 c 1,51,-1
441 642 m 2,73,-1
 449 642 l 2,74,75
 457 642 457 642 462 641.5 c 128,-1,76
 467 641 467 641 474 641 c 2,77,-1
 483 641 l 1,78,79
 500 634 500 634 500.5 625.5 c 128,-1,80
 501 617 501 617 497 604 c 0,81,82
 489 572 489 572 466.5 539.5 c 128,-1,83
 444 507 444 507 413 480 c 128,-1,84
 382 453 382 453 344.5 436 c 128,-1,85
 307 419 307 419 270 419 c 1,86,87
 275 439 275 439 279 459 c 128,-1,88
 283 479 283 479 288 499 c 0,89,90
 294 529 294 529 304.5 555 c 128,-1,91
 315 581 315 581 332 600.5 c 128,-1,92
 349 620 349 620 375.5 631 c 128,-1,93
 402 642 402 642 441 642 c 2,73,-1
EndSplineSet
Validated: 41
EndChar

StartChar: C
Encoding: 67 67 44
Width: 549
Flags: W
LayerCount: 2
Fore
SplineSet
57 204 m 0,0,1
 32 106 32 106 77 53 c 128,-1,2
 122 0 122 0 231 0 c 0,3,4
 251 0 251 0 282 5.5 c 128,-1,5
 313 11 313 11 349 21 c 128,-1,6
 385 31 385 31 421.5 45 c 128,-1,7
 458 59 458 59 489.5 76.5 c 128,-1,8
 521 94 521 94 543 114.5 c 128,-1,9
 565 135 565 135 571 157 c 0,10,11
 576 172 576 172 569 182 c 128,-1,12
 562 192 562 192 547 192 c 0,13,14
 520 192 520 192 488 175.5 c 128,-1,15
 456 159 456 159 420 139.5 c 128,-1,16
 384 120 384 120 343.5 104 c 128,-1,17
 303 88 303 88 258 88 c 0,18,19
 220 88 220 88 200.5 100 c 128,-1,20
 181 112 181 112 173.5 132 c 128,-1,21
 166 152 166 152 169 178.5 c 128,-1,22
 172 205 172 205 180 235 c 0,23,24
 184 253 184 253 201 290 c 128,-1,25
 218 327 218 327 243.5 371.5 c 128,-1,26
 269 416 269 416 301.5 463 c 128,-1,27
 334 510 334 510 369 548.5 c 128,-1,28
 404 587 404 587 439 611.5 c 128,-1,29
 474 636 474 636 504 636 c 0,30,31
 513 636 513 636 518.5 634 c 128,-1,32
 524 632 524 632 526 620 c 1,33,-1
 519 594 l 2,34,35
 517 582 517 582 515 568.5 c 128,-1,36
 513 555 513 555 514.5 543.5 c 128,-1,37
 516 532 516 532 522 524.5 c 128,-1,38
 528 517 528 517 543 517 c 0,39,40
 564 517 564 517 580.5 527.5 c 128,-1,41
 597 538 597 538 609 553.5 c 128,-1,42
 621 569 621 569 628.5 587 c 128,-1,43
 636 605 636 605 639 620 c 0,44,45
 640 626 640 626 643.5 643 c 128,-1,46
 647 660 647 660 647.5 678.5 c 128,-1,47
 648 697 648 697 643 712.5 c 128,-1,48
 638 728 638 728 622 731 c 0,49,50
 563 743 563 743 508 732 c 128,-1,51
 453 721 453 721 404 693 c 128,-1,52
 355 665 355 665 312 624 c 128,-1,53
 269 583 269 583 232 536 c 128,-1,54
 195 489 195 489 165.5 439.5 c 128,-1,55
 136 390 136 390 113.5 345 c 128,-1,56
 91 300 91 300 77 263 c 128,-1,57
 63 226 63 226 57 204 c 0,0,1
EndSplineSet
Validated: 41
EndChar

StartChar: D
Encoding: 68 68 45
Width: 552
Flags: W
LayerCount: 2
Fore
SplineSet
72 247 m 2,0,-1
 63 214 l 2,1,2
 61 203 61 203 58.5 193.5 c 128,-1,3
 56 184 56 184 54 174 c 2,4,-1
 47 140 l 1,5,-1
 42 122 l 2,6,7
 32 81 32 81 29.5 57 c 128,-1,8
 27 33 27 33 36.5 20.5 c 128,-1,9
 46 8 46 8 70.5 4 c 128,-1,10
 95 0 95 0 138 0 c 0,11,12
 212 0 212 0 287 26.5 c 128,-1,13
 362 53 362 53 426.5 98.5 c 128,-1,14
 491 144 491 144 539 204.5 c 128,-1,15
 587 265 587 265 605 333 c 0,16,17
 624 403 624 403 621 474 c 128,-1,18
 618 545 618 545 589.5 602 c 128,-1,19
 561 659 561 659 505.5 695 c 128,-1,20
 450 731 450 731 364 731 c 2,21,-1
 301 731 l 1,22,23
 288 727 288 727 273.5 722 c 128,-1,24
 259 717 259 717 245.5 711 c 128,-1,25
 232 705 232 705 221 696.5 c 128,-1,26
 210 688 210 688 204 676 c 0,27,28
 191 621 191 621 174.5 568 c 128,-1,29
 158 515 158 515 140.5 461.5 c 128,-1,30
 123 408 123 408 105 355 c 128,-1,31
 87 302 87 302 72 247 c 2,0,-1
159 200 m 0,32,33
 172 250 172 250 185.5 296 c 128,-1,34
 199 342 199 342 215 387 c 128,-1,35
 231 432 231 432 250 479.5 c 128,-1,36
 269 527 269 527 292 580 c 1,37,38
 309 596 309 596 320.5 602 c 128,-1,39
 332 608 332 608 355 608 c 0,40,41
 405 608 405 608 437.5 582.5 c 128,-1,42
 470 557 470 557 487 519 c 128,-1,43
 504 481 504 481 506.5 436.5 c 128,-1,44
 509 392 509 392 499 354 c 0,45,46
 487 309 487 309 455 266 c 128,-1,47
 423 223 423 223 379.5 189 c 128,-1,48
 336 155 336 155 284 134.5 c 128,-1,49
 232 114 232 114 180 114 c 0,50,51
 175 114 175 114 165 115 c 128,-1,52
 155 116 155 116 154 116 c 2,53,-1
 141 130 l 2,54,55
 141 131 141 131 143.5 140 c 128,-1,56
 146 149 146 149 148 160 c 128,-1,57
 150 171 150 171 153.5 182 c 128,-1,58
 157 193 157 193 159 200 c 0,32,33
EndSplineSet
Validated: 41
EndChar

StartChar: E
Encoding: 69 69 46
Width: 533
Flags: W
AnchorPoint: "top" 447 820 basechar 0
LayerCount: 2
Fore
SplineSet
46 152 m 0,0,1
 38 125 38 125 46 97.5 c 128,-1,2
 54 70 54 70 73 48.5 c 128,-1,3
 92 27 92 27 118 13.5 c 128,-1,4
 144 0 144 0 172 0 c 0,5,6
 194 0 194 0 227.5 6.5 c 128,-1,7
 261 13 261 13 299 24.5 c 128,-1,8
 337 36 337 36 375.5 52.5 c 128,-1,9
 414 69 414 69 447 89 c 128,-1,10
 480 109 480 109 503 132 c 128,-1,11
 526 155 526 155 533 179 c 0,12,13
 542 218 542 218 498 218 c 0,14,15
 466 218 466 218 436 199.5 c 128,-1,16
 406 181 406 181 376 159 c 128,-1,17
 346 137 346 137 315 118.5 c 128,-1,18
 284 100 284 100 250 100 c 0,19,20
 226 100 226 100 209.5 110.5 c 128,-1,21
 193 121 193 121 183.5 137.5 c 128,-1,22
 174 154 174 154 172 175 c 128,-1,23
 170 196 170 196 176 216 c 0,24,25
 190 269 190 269 226.5 300.5 c 128,-1,26
 263 332 263 332 310.5 351 c 128,-1,27
 358 370 358 370 410 380 c 128,-1,28
 462 390 462 390 507 399 c 128,-1,29
 552 408 552 408 583.5 421 c 128,-1,30
 615 434 615 434 622 459 c 0,31,32
 627 481 627 481 609.5 496 c 128,-1,33
 592 511 592 511 569 511 c 0,34,35
 539 511 539 511 509.5 504.5 c 128,-1,36
 480 498 480 498 450 490 c 128,-1,37
 420 482 420 482 390.5 475.5 c 128,-1,38
 361 469 361 469 333 469 c 0,39,40
 331 469 331 469 326 469 c 0,41,42
 322 469 322 469 317.5 469.5 c 128,-1,43
 313 470 313 470 310 472 c 128,-1,44
 307 474 307 474 307 478 c 2,45,-1
 308 485 l 2,46,47
 311 492 311 492 311 496 c 256,48,49
 311 500 311 500 313 507 c 2,50,-1
 317 516 l 1,51,52
 330 570 330 570 361 597 c 128,-1,53
 392 624 392 624 433.5 634.5 c 128,-1,54
 475 645 475 645 524 644 c 128,-1,55
 573 643 573 643 623 641 c 1,56,57
 656 650 656 650 664 677 c 0,58,59
 671 706 671 706 655 719 c 128,-1,60
 639 732 639 732 613 736 c 128,-1,61
 587 740 587 740 557 738.5 c 128,-1,62
 527 737 527 737 508 737 c 0,63,64
 490 737 490 737 463.5 738 c 128,-1,65
 437 739 437 739 407 738 c 128,-1,66
 377 737 377 737 346 733.5 c 128,-1,67
 315 730 315 730 288.5 721.5 c 128,-1,68
 262 713 262 713 242.5 698 c 128,-1,69
 223 683 223 683 217 660 c 0,70,71
 213 643 213 643 211.5 627.5 c 128,-1,72
 210 612 210 612 209.5 596.5 c 128,-1,73
 209 581 209 581 207 565 c 128,-1,74
 205 549 205 549 200 532 c 0,75,76
 187 482 187 482 165.5 433 c 128,-1,77
 144 384 144 384 121.5 337 c 128,-1,78
 99 290 99 290 78 243.5 c 128,-1,79
 57 197 57 197 46 152 c 0,0,1
EndSplineSet
Validated: 41
EndChar

StartChar: F
Encoding: 70 70 47
Width: 595
Flags: W
LayerCount: 2
Fore
SplineSet
44 139 m 0,0,1
 38 121 38 121 34 97 c 128,-1,2
 30 73 30 73 32.5 51.5 c 128,-1,3
 35 30 35 30 46 15 c 128,-1,4
 57 0 57 0 81 0 c 0,5,6
 106 0 106 0 114 21 c 0,7,8
 115 27 115 27 121.5 46.5 c 128,-1,9
 128 66 128 66 135.5 88 c 128,-1,10
 143 110 143 110 149.5 130 c 128,-1,11
 156 150 156 150 159 157 c 2,12,-1
 160 162 l 2,13,14
 161 165 161 165 161.5 165.5 c 128,-1,15
 162 166 162 166 163 169 c 2,16,-1
 163 170 l 1,17,18
 169 186 169 186 177.5 209 c 128,-1,19
 186 232 186 232 196 255 c 128,-1,20
 206 278 206 278 218 298 c 128,-1,21
 230 318 230 318 243 329 c 0,22,23
 260 340 260 340 279 342 c 128,-1,24
 298 344 298 344 324 344 c 2,25,-1
 570 344 l 2,26,27
 577 344 577 344 585.5 350 c 128,-1,28
 594 356 594 356 601.5 364 c 128,-1,29
 609 372 609 372 614.5 380.5 c 128,-1,30
 620 389 620 389 621 394 c 0,31,32
 624 406 624 406 619.5 415 c 128,-1,33
 615 424 615 424 606.5 429.5 c 128,-1,34
 598 435 598 435 586 438 c 128,-1,35
 574 441 574 441 562 441 c 0,36,37
 543 441 543 441 525.5 440 c 128,-1,38
 508 439 508 439 489 438 c 0,39,40
 485 438 485 438 481.5 437.5 c 128,-1,41
 478 437 478 437 473 437 c 0,42,43
 458 435 458 435 443.5 434 c 128,-1,44
 429 433 429 433 413 433 c 2,45,-1
 381 433 l 2,46,47
 367 433 367 433 353 434 c 128,-1,48
 339 435 339 435 327 438 c 128,-1,49
 315 441 315 441 307 446.5 c 128,-1,50
 299 452 299 452 297 460 c 2,51,-1
 297 461 l 1,52,-1
 297 467 l 1,53,-1
 303 490 l 2,54,55
 305 493 305 493 304.5 494.5 c 128,-1,56
 304 496 304 496 305 499 c 2,57,-1
 310 516 l 2,58,59
 323 567 323 567 341.5 606 c 128,-1,60
 360 645 360 645 377 653 c 0,61,62
 402 664 402 664 445 664 c 2,63,-1
 467 664 l 2,64,65
 473 664 473 664 479 664 c 256,66,67
 485 664 485 664 492 663 c 0,68,69
 497 662 497 662 502 661 c 128,-1,70
 507 660 507 660 512 660 c 2,71,-1
 531 660 l 2,72,73
 550 660 550 660 565 659 c 128,-1,74
 580 658 580 658 595 655 c 0,75,76
 597 654 597 654 600 654 c 0,77,78
 606 654 606 654 607 653 c 0,79,80
 625 650 625 650 643.5 648 c 128,-1,81
 662 646 662 646 680 646 c 0,82,83
 703 646 703 646 717 657.5 c 128,-1,84
 731 669 731 669 736 688 c 0,85,86
 743 713 743 713 727 726.5 c 128,-1,87
 711 740 711 740 684.5 747 c 128,-1,88
 658 754 658 754 628 755.5 c 128,-1,89
 598 757 598 757 577 757 c 2,90,-1
 563 757 l 2,91,92
 549 755 549 755 516.5 753.5 c 128,-1,93
 484 752 484 752 446 750 c 128,-1,94
 408 748 408 748 370 746.5 c 128,-1,95
 332 745 332 745 307 744 c 0,96,97
 302 742 302 742 299 742 c 256,98,99
 296 742 296 742 293 742 c 2,100,-1
 284 742 l 1,101,102
 222 726 222 726 210 676 c 0,103,104
 202 656 202 656 201.5 641.5 c 128,-1,105
 201 627 201 627 206 604 c 1,106,-1
 192 538 l 1,107,-1
 188 523 l 2,108,109
 175 475 175 475 157 429.5 c 128,-1,110
 139 384 139 384 119 338 c 1,111,-1
 119 337 l 2,112,113
 118 335 118 335 116.5 332.5 c 128,-1,114
 115 330 115 330 113 326 c 0,115,116
 93 278 93 278 75 231.5 c 128,-1,117
 57 185 57 185 44 139 c 0,0,1
EndSplineSet
Validated: 41
EndChar

StartChar: G
Encoding: 71 71 48
Width: 597
Flags: W
LayerCount: 2
Fore
SplineSet
55 196 m 0,0,1
 42 149 42 149 52.5 112.5 c 128,-1,2
 63 76 63 76 89.5 51 c 128,-1,3
 116 26 116 26 156 13 c 128,-1,4
 196 0 196 0 243 0 c 0,5,6
 295 0 295 0 357 14.5 c 128,-1,7
 419 29 419 29 475.5 58 c 128,-1,8
 532 87 532 87 575.5 129 c 128,-1,9
 619 171 619 171 633 227 c 0,10,11
 639 246 639 246 642.5 276 c 128,-1,12
 646 306 646 306 642.5 334 c 128,-1,13
 639 362 639 362 624 382.5 c 128,-1,14
 609 403 609 403 577 403 c 2,15,-1
 566 403 l 2,16,17
 564 403 564 403 552.5 399.5 c 128,-1,18
 541 396 541 396 528 392.5 c 128,-1,19
 515 389 515 389 504 385.5 c 128,-1,20
 493 382 493 382 492 382 c 0,21,22
 484 381 484 381 470.5 380.5 c 128,-1,23
 457 380 457 380 442 380 c 256,24,25
 427 380 427 380 412 380.5 c 128,-1,26
 397 381 397 381 393 382 c 0,27,28
 365 375 365 375 350.5 356.5 c 128,-1,29
 336 338 336 338 331 318 c 0,30,31
 323 296 323 296 337 280.5 c 128,-1,32
 351 265 351 265 374 265 c 0,33,34
 391 265 391 265 407.5 269.5 c 128,-1,35
 424 274 424 274 440.5 279.5 c 128,-1,36
 457 285 457 285 473 289.5 c 128,-1,37
 489 294 489 294 505 294 c 0,38,39
 510 294 510 294 518.5 293.5 c 128,-1,40
 527 293 527 293 526 286 c 2,41,-1
 524 278 l 2,42,43
 522 271 522 271 520.5 264.5 c 128,-1,44
 519 258 519 258 517 251 c 2,45,-1
 515 242 l 2,46,47
 495 167 495 167 433.5 127.5 c 128,-1,48
 372 88 372 88 285 88 c 0,49,50
 234 88 234 88 201 112.5 c 128,-1,51
 168 137 168 137 166 183 c 1,52,-1
 175 227 l 1,53,-1
 180 239 l 2,54,55
 186 261 186 261 205 299 c 128,-1,56
 224 337 224 337 251 381.5 c 128,-1,57
 278 426 278 426 312 471 c 128,-1,58
 346 516 346 516 382.5 553 c 128,-1,59
 419 590 419 590 455.5 613 c 128,-1,60
 492 636 492 636 525 636 c 0,61,62
 541 636 541 636 546.5 627.5 c 128,-1,63
 552 619 552 619 552.5 607 c 128,-1,64
 553 595 553 595 551 580 c 128,-1,65
 549 565 549 565 551 553 c 128,-1,66
 553 541 553 541 560.5 532.5 c 128,-1,67
 568 524 568 524 588 524 c 0,68,69
 622 524 622 524 638.5 546 c 128,-1,70
 655 568 655 568 663 594 c 0,71,72
 670 618 670 618 671 647.5 c 128,-1,73
 672 677 672 677 663.5 703 c 128,-1,74
 655 729 655 729 636.5 746.5 c 128,-1,75
 618 764 618 764 586 764 c 0,76,77
 555 764 555 764 527.5 748.5 c 128,-1,78
 500 733 500 733 474 716 c 0,79,80
 399 667 399 667 332 608 c 128,-1,81
 265 549 265 549 210 483 c 128,-1,82
 155 417 155 417 115 344.5 c 128,-1,83
 75 272 75 272 55 196 c 0,0,1
EndSplineSet
Validated: 41
EndChar

StartChar: H
Encoding: 72 72 49
Width: 541
Flags: W
LayerCount: 2
Fore
SplineSet
32 95 m 2,0,-1
 25 70 l 2,1,2
 24 58 24 58 24 46 c 256,3,4
 24 34 24 34 28 23.5 c 128,-1,5
 32 13 32 13 40.5 6.5 c 128,-1,6
 49 0 49 0 65 0 c 0,7,8
 85 0 85 0 105.5 11.5 c 128,-1,9
 126 23 126 23 132 43 c 0,10,11
 134 52 134 52 141 75.5 c 128,-1,12
 148 99 148 99 156.5 125.5 c 128,-1,13
 165 152 165 152 173 175.5 c 128,-1,14
 181 199 181 199 184 209 c 0,15,16
 190 230 190 230 202 243.5 c 128,-1,17
 214 257 214 257 230 265 c 128,-1,18
 246 273 246 273 264.5 277.5 c 128,-1,19
 283 282 283 282 303 286 c 2,20,-1
 314 289 l 1,21,-1
 316 289 l 2,22,23
 324 291 324 291 328.5 293 c 128,-1,24
 333 295 333 295 341 298 c 2,25,-1
 350 298 l 2,26,27
 360 298 360 298 364.5 288.5 c 128,-1,28
 369 279 369 279 369.5 263 c 128,-1,29
 370 247 370 247 367 226 c 128,-1,30
 364 205 364 205 360 183 c 0,31,32
 355 155 355 155 351 126 c 128,-1,33
 347 97 347 97 347.5 73 c 128,-1,34
 348 49 348 49 356.5 34 c 128,-1,35
 365 19 365 19 386 19 c 0,36,37
 392 19 392 19 401 20.5 c 128,-1,38
 410 22 410 22 418.5 25 c 128,-1,39
 427 28 427 28 433.5 32.5 c 128,-1,40
 440 37 440 37 442 43 c 2,41,-1
 552 458 l 2,42,43
 561 496 561 496 581 530.5 c 128,-1,44
 601 565 601 565 621 599 c 0,45,46
 641 634 641 634 659.5 667.5 c 128,-1,47
 678 701 678 701 686 733 c 0,48,49
 692 756 692 756 683.5 770.5 c 128,-1,50
 675 785 675 785 651 785 c 0,51,52
 628 785 628 785 610.5 773 c 128,-1,53
 593 761 593 761 578.5 740 c 128,-1,54
 564 719 564 719 552 691 c 128,-1,55
 540 663 540 663 527 632 c 0,56,57
 510 588 510 588 489.5 543 c 128,-1,58
 469 498 469 498 438 461 c 128,-1,59
 407 424 407 424 363 400.5 c 128,-1,60
 319 377 319 377 255 377 c 0,61,62
 243 377 243 377 239.5 387 c 128,-1,63
 236 397 236 397 238 408 c 0,64,65
 249 446 249 446 264 482 c 128,-1,66
 279 518 279 518 296 552 c 0,67,68
 313 587 313 587 327 620 c 128,-1,69
 341 653 341 653 349 688 c 0,70,71
 353 700 353 700 354 712.5 c 128,-1,72
 355 725 355 725 351.5 735 c 128,-1,73
 348 745 348 745 339.5 751.5 c 128,-1,74
 331 758 331 758 316 758 c 0,75,76
 291 758 291 758 275 740 c 128,-1,77
 259 722 259 722 246 702 c 0,78,79
 185 572 185 572 138.5 448.5 c 128,-1,80
 92 325 92 325 57 192 c 2,81,-1
 36 114 l 2,82,83
 34 110 34 110 33.5 104.5 c 128,-1,84
 33 99 33 99 32 95 c 2,0,-1
EndSplineSet
Validated: 41
EndChar

StartChar: I
Encoding: 73 73 50
Width: 494
Flags: W
AnchorPoint: "top" 393 853 basechar 0
LayerCount: 2
Fore
SplineSet
32 49 m 0,0,1
 29 35 29 35 35 26 c 128,-1,2
 41 17 41 17 52 11 c 128,-1,3
 63 5 63 5 77 2.5 c 128,-1,4
 91 0 91 0 104 0 c 0,5,6
 114 0 114 0 144.5 3.5 c 128,-1,7
 175 7 175 7 214.5 12.5 c 128,-1,8
 254 18 254 18 297 26 c 128,-1,9
 340 34 340 34 377 42.5 c 128,-1,10
 414 51 414 51 439.5 60.5 c 128,-1,11
 465 70 465 70 468 78 c 0,12,13
 475 103 475 103 459.5 114.5 c 128,-1,14
 444 126 444 126 420 129.5 c 128,-1,15
 396 133 396 133 370 131.5 c 128,-1,16
 344 130 344 130 330 130 c 0,17,18
 322 133 322 133 321.5 137.5 c 128,-1,19
 321 142 321 142 319 149 c 2,20,-1
 328 181 l 1,21,-1
 338 226 l 2,22,23
 345 254 345 254 350 273 c 2,24,-1
 358 303 l 2,25,26
 383 398 383 398 409.5 493 c 128,-1,27
 436 588 436 588 476 682 c 0,28,29
 483 693 483 693 489 694 c 128,-1,30
 495 695 495 695 504 695 c 0,31,32
 527 695 527 695 545.5 691.5 c 128,-1,33
 564 688 564 688 587 688 c 0,34,35
 590 688 590 688 600 688.5 c 128,-1,36
 610 689 610 689 613 689 c 0,37,38
 629 694 629 694 632 702 c 128,-1,39
 635 710 635 710 638 719 c 0,40,41
 644 745 644 745 631.5 760.5 c 128,-1,42
 619 776 619 776 593 784 c 0,43,44
 590 784 590 784 583 784.5 c 128,-1,45
 576 785 576 785 567 785 c 0,46,47
 559 785 559 785 551 785.5 c 128,-1,48
 543 786 543 786 540 786 c 0,49,50
 535 786 535 786 527.5 785.5 c 128,-1,51
 520 785 520 785 509 785 c 0,52,53
 501 785 501 785 494.5 784.5 c 128,-1,54
 488 784 488 784 488 784 c 2,55,56
 483 784 483 784 465.5 781.5 c 128,-1,57
 448 779 448 779 428 775 c 128,-1,58
 408 771 408 771 390.5 767.5 c 128,-1,59
 373 764 373 764 367 763 c 0,60,61
 349 759 349 759 317 758.5 c 128,-1,62
 285 758 285 758 252 752.5 c 128,-1,63
 219 747 219 747 192 733.5 c 128,-1,64
 165 720 165 720 157 690 c 0,65,66
 154 678 154 678 158.5 668.5 c 128,-1,67
 163 659 163 659 172 653 c 128,-1,68
 181 647 181 647 193 643.5 c 128,-1,69
 205 640 205 640 217 640 c 0,70,71
 243 640 243 640 267.5 649 c 128,-1,72
 292 658 292 658 318 658 c 0,73,74
 321 658 321 658 326 657 c 128,-1,75
 331 656 331 656 333 655 c 2,76,-1
 335 641 l 1,77,-1
 198 116 l 2,78,79
 193 101 193 101 180.5 95 c 128,-1,80
 168 89 168 89 151.5 87.5 c 128,-1,81
 135 86 135 86 116 86.5 c 128,-1,82
 97 87 97 87 80 84.5 c 128,-1,83
 63 82 63 82 50 74.5 c 128,-1,84
 37 67 37 67 32 49 c 0,0,1
EndSplineSet
Validated: 41
EndChar

StartChar: J
Encoding: 74 74 51
Width: 536
Flags: W
LayerCount: 2
Fore
SplineSet
47 177 m 2,0,1
 34 127 34 127 40 93.5 c 128,-1,2
 46 60 46 60 69.5 39 c 128,-1,3
 93 18 93 18 132 9 c 128,-1,4
 171 0 171 0 225 0 c 2,5,-1
 282 0 l 1,6,7
 363 29 363 29 429 83 c 128,-1,8
 495 137 495 137 527 212 c 0,9,10
 531 226 531 226 540 255.5 c 128,-1,11
 549 285 549 285 560.5 322 c 128,-1,12
 572 359 572 359 584 400 c 128,-1,13
 596 441 596 441 607.5 477.5 c 128,-1,14
 619 514 619 514 628 543 c 128,-1,15
 637 572 637 572 641 586 c 2,16,-1
 644 599 l 2,17,18
 647 610 647 610 651 622 c 128,-1,19
 655 634 655 634 659 649 c 2,20,-1
 665 668 l 1,21,-1
 670 685 l 2,22,23
 672 691 672 691 673 697 c 128,-1,24
 674 703 674 703 676 710 c 2,25,-1
 685 751 l 2,26,27
 685 766 685 766 674 775.5 c 128,-1,28
 663 785 663 785 644 785 c 256,29,30
 625 785 625 785 611 777.5 c 128,-1,31
 597 770 597 770 586.5 759 c 128,-1,32
 576 748 576 748 569 733.5 c 128,-1,33
 562 719 562 719 558 706 c 0,34,35
 549 668 549 668 540.5 631 c 128,-1,36
 532 594 532 594 524 556 c 0,37,38
 516 519 516 519 507 482 c 128,-1,39
 498 445 498 445 487 407 c 0,40,41
 481 385 481 385 472.5 353 c 128,-1,42
 464 321 464 321 450.5 285.5 c 128,-1,43
 437 250 437 250 418.5 215 c 128,-1,44
 400 180 400 180 375 151.5 c 128,-1,45
 350 123 350 123 317.5 105.5 c 128,-1,46
 285 88 285 88 244 88 c 0,47,48
 201 88 201 88 183 100 c 128,-1,49
 165 112 165 112 161 130.5 c 128,-1,50
 157 149 157 149 161 170 c 128,-1,51
 165 191 165 191 166 209.5 c 128,-1,52
 167 228 167 228 159 240 c 128,-1,53
 151 252 151 252 123 252 c 0,54,55
 103 252 103 252 90 245.5 c 128,-1,56
 77 239 77 239 60 226 c 1,57,-1
 58 216 l 2,58,59
 55 212 55 212 53 200 c 0,60,61
 51 196 51 196 50.5 192.5 c 128,-1,62
 50 189 50 189 49 186 c 2,63,-1
 47 177 l 2,0,1
EndSplineSet
Validated: 41
EndChar

StartChar: K
Encoding: 75 75 52
Width: 547
Flags: W
LayerCount: 2
Fore
SplineSet
36 110 m 2,0,-1
 33 99 l 2,1,2
 31 85 31 85 31.5 67.5 c 128,-1,3
 32 50 32 50 37 35 c 128,-1,4
 42 20 42 20 52.5 9.5 c 128,-1,5
 63 -1 63 -1 82 -1 c 0,6,7
 93 -1 93 -1 102.5 0.5 c 128,-1,8
 112 2 112 2 124 17 c 1,9,-1
 130 42 l 1,10,-1
 130 44 l 1,11,-1
 133 52 l 1,12,-1
 138 73 l 2,13,14
 139 78 139 78 139.5 83.5 c 128,-1,15
 140 89 140 89 141 94 c 2,16,-1
 145 112 l 2,17,18
 146 119 146 119 147 126.5 c 128,-1,19
 148 134 148 134 150 142 c 2,20,-1
 157 172 l 1,21,-1
 162 192 l 2,22,23
 166 211 166 211 176.5 226.5 c 128,-1,24
 187 242 187 242 216 242 c 0,25,26
 231 242 231 242 238.5 239 c 128,-1,27
 246 236 246 236 259 227 c 1,28,-1
 263 221 l 2,29,30
 264 221 264 221 264 219 c 0,31,32
 265 218 265 218 268.5 214 c 128,-1,33
 272 210 272 210 277 207 c 0,34,35
 295 185 295 185 317.5 161.5 c 128,-1,36
 340 138 340 138 366.5 118.5 c 128,-1,37
 393 99 393 99 424.5 86.5 c 128,-1,38
 456 74 456 74 493 74 c 0,39,40
 510 74 510 74 521.5 77.5 c 128,-1,41
 533 81 533 81 548 92 c 1,42,-1
 550 103 l 2,43,44
 551 106 551 106 551.5 107 c 128,-1,45
 552 108 552 108 552 109 c 2,46,-1
 555 117 l 2,47,48
 558 133 558 133 554.5 143.5 c 128,-1,49
 551 154 551 154 542 162.5 c 128,-1,50
 533 171 533 171 519.5 177.5 c 128,-1,51
 506 184 506 184 491 191 c 0,52,53
 489 191 489 191 489 192 c 1,54,-1
 488 192 l 1,55,56
 473 199 473 199 459.5 206 c 128,-1,57
 446 213 446 213 438 224 c 2,58,-1
 352 315 l 2,59,60
 347 320 347 320 344 322.5 c 128,-1,61
 341 325 341 325 336 328 c 0,62,63
 327 336 327 336 320 344.5 c 128,-1,64
 313 353 313 353 317 372 c 2,65,-1
 319 378 l 1,66,-1
 320 380 l 1,67,-1
 321 380 l 1,68,-1
 321 383 l 1,69,-1
 323 383 l 1,70,71
 340 398 340 398 359 413 c 128,-1,72
 378 428 378 428 398 445 c 2,73,-1
 418 461 l 2,74,75
 462 495 462 495 508 531.5 c 128,-1,76
 554 568 554 568 593.5 605.5 c 128,-1,77
 633 643 633 643 662 681 c 128,-1,78
 691 719 691 719 701 755 c 0,79,80
 704 768 704 768 699.5 783.5 c 128,-1,81
 695 799 695 799 678 799 c 0,82,83
 657 799 657 799 634.5 786.5 c 128,-1,84
 612 774 612 774 589 754.5 c 128,-1,85
 566 735 566 735 542.5 710 c 128,-1,86
 519 685 519 685 496 660 c 0,87,88
 494 657 494 657 492.5 656 c 128,-1,89
 491 655 491 655 491 654 c 0,90,91
 476 635 476 635 460.5 620 c 128,-1,92
 445 605 445 605 423 586 c 0,93,94
 413 578 413 578 396 566.5 c 128,-1,95
 379 555 379 555 363 543.5 c 128,-1,96
 347 532 347 532 335 524 c 128,-1,97
 323 516 323 516 323 516 c 1,98,-1
 301 516 l 1,99,-1
 294 520 l 1,100,-1
 346 715 l 2,101,102
 352 739 352 739 333.5 751.5 c 128,-1,103
 315 764 315 764 292 764 c 256,104,105
 269 764 269 764 257.5 750 c 128,-1,106
 246 736 246 736 235 718 c 0,107,108
 228 701 228 701 215.5 666.5 c 128,-1,109
 203 632 203 632 188 589.5 c 128,-1,110
 173 547 173 547 156 500.5 c 128,-1,111
 139 454 139 454 124 411.5 c 128,-1,112
 109 369 109 369 97.5 334.5 c 128,-1,113
 86 300 86 300 81 283 c 2,114,-1
 79 274 l 2,115,116
 74 263 74 263 69.5 247 c 128,-1,117
 65 231 65 231 61 214 c 2,118,-1
 51 173 l 2,119,120
 47 161 47 161 43.5 146.5 c 128,-1,121
 40 132 40 132 38 121 c 0,122,123
 37 118 37 118 37 115 c 0,124,125
 37 113 37 113 36 110 c 2,0,-1
336 331 m 1,126,-1
 336 329 l 1,127,-1
 339 329 l 2,128,129
 341 331 341 331 336 331 c 1,126,-1
264 218 m 1,130,131
 264 218 264 218 263 218 c 1,132,133
 263 218 263 218 264 219 c 1,134,-1
 264 218 l 1,130,131
EndSplineSet
Validated: 37
EndChar

StartChar: L
Encoding: 76 76 53
Width: 476
Flags: W
LayerCount: 2
Fore
SplineSet
50 162 m 2,0,1
 42 134 42 134 42 105 c 0,2,3
 42 77 42 77 52.5 53.5 c 128,-1,4
 63 30 63 30 85.5 15 c 128,-1,5
 108 0 108 0 144 0 c 0,6,7
 162 0 162 0 182.5 4.5 c 128,-1,8
 203 9 203 9 223.5 15.5 c 128,-1,9
 244 22 244 22 263.5 30.5 c 128,-1,10
 283 39 283 39 300 47 c 0,11,12
 310 52 310 52 335.5 64.5 c 128,-1,13
 361 77 361 77 389.5 91.5 c 128,-1,14
 418 106 418 106 442.5 118.5 c 128,-1,15
 467 131 467 131 476 136 c 0,16,17
 493 144 493 144 501 159 c 128,-1,18
 509 174 509 174 513 188 c 0,19,20
 518 207 518 207 507.5 216.5 c 128,-1,21
 497 226 497 226 474 226 c 0,22,23
 443 226 443 226 406 206.5 c 128,-1,24
 369 187 369 187 330 163.5 c 128,-1,25
 291 140 291 140 250.5 120.5 c 128,-1,26
 210 101 210 101 173 101 c 0,27,28
 165 101 165 101 161 112 c 128,-1,29
 157 123 157 123 155 130 c 1,30,-1
 159 140 l 1,31,-1
 162 156 l 2,32,33
 163 164 163 164 167 173 c 2,34,-1
 169 183 l 2,35,36
 183 240 183 240 204.5 296.5 c 128,-1,37
 226 353 226 353 248.5 409.5 c 128,-1,38
 271 466 271 466 292.5 522.5 c 128,-1,39
 314 579 314 579 329 636 c 2,40,-1
 336 668 l 2,41,42
 338 674 338 674 339 679 c 128,-1,43
 340 684 340 684 341 689 c 2,44,-1
 344 703 l 2,45,46
 346 714 346 714 336.5 725.5 c 128,-1,47
 327 737 327 737 314 737 c 0,48,49
 290 737 290 737 273 720.5 c 128,-1,50
 256 704 256 704 244 682 c 128,-1,51
 232 660 232 660 224.5 638.5 c 128,-1,52
 217 617 217 617 213 607 c 0,53,54
 212 602 212 602 206 583 c 128,-1,55
 200 564 200 564 193.5 542 c 128,-1,56
 187 520 187 520 180.5 501 c 128,-1,57
 174 482 174 482 172 478 c 0,58,59
 169 471 169 471 160.5 450 c 128,-1,60
 152 429 152 429 140.5 400.5 c 128,-1,61
 129 372 129 372 116 340.5 c 128,-1,62
 103 309 103 309 91.5 281 c 128,-1,63
 80 253 80 253 71.5 232 c 128,-1,64
 63 211 63 211 60 204 c 2,65,-1
 59 199 l 2,66,67
 58 194 58 194 56.5 187.5 c 128,-1,68
 55 181 55 181 53 173 c 2,69,-1
 50 162 l 2,0,1
EndSplineSet
Validated: 9
EndChar

StartChar: M
Encoding: 77 77 54
Width: 684
Flags: W
LayerCount: 2
Fore
SplineSet
70 149 m 0,0,1
 68 139 68 139 59 114.5 c 128,-1,2
 50 90 50 90 45.5 64.5 c 128,-1,3
 41 39 41 39 46.5 19.5 c 128,-1,4
 52 0 52 0 78 0 c 0,5,6
 95 0 95 0 113.5 5 c 128,-1,7
 132 10 132 10 137 29 c 0,8,9
 141 41 141 41 143 52 c 128,-1,10
 145 63 145 63 146 74 c 128,-1,11
 147 85 147 85 148.5 96 c 128,-1,12
 150 107 150 107 154 118 c 0,13,14
 169 173 169 173 188.5 225 c 128,-1,15
 208 277 208 277 231 328 c 0,16,17
 236 335 236 335 240 339.5 c 128,-1,18
 244 344 244 344 252 347 c 1,19,-1
 259 342 l 1,20,21
 266 307 266 307 274 277.5 c 128,-1,22
 282 248 282 248 292.5 221.5 c 128,-1,23
 303 195 303 195 319 170.5 c 128,-1,24
 335 146 335 146 359 122 c 1,25,-1
 373 122 l 2,26,27
 390 122 390 122 410 134.5 c 128,-1,28
 430 147 430 147 450.5 167 c 128,-1,29
 471 187 471 187 490.5 211 c 128,-1,30
 510 235 510 235 527.5 259 c 128,-1,31
 545 283 545 283 559 303 c 128,-1,32
 573 323 573 323 582 334 c 0,33,34
 583 335 583 335 590 339.5 c 128,-1,35
 597 344 597 344 600 347 c 2,36,37
 600 347 600 347 601.5 347.5 c 128,-1,38
 603 348 603 348 604 348 c 0,39,40
 606 348 606 348 606.5 347.5 c 128,-1,41
 607 347 607 347 607 347 c 2,42,43
 609 344 609 344 610.5 339.5 c 128,-1,44
 612 335 612 335 613 334 c 0,45,46
 613 328 613 328 613 316 c 0,47,48
 613 305 613 305 612.5 294 c 128,-1,49
 612 283 612 283 612 275 c 256,50,51
 612 267 612 267 612 266 c 2,52,-1
 546 14 l 2,53,54
 544 6 544 6 552.5 3 c 128,-1,55
 561 0 561 0 569 0 c 2,56,-1
 578 0 l 2,57,58
 613 0 613 0 633.5 22 c 128,-1,59
 654 44 654 44 666 74.5 c 128,-1,60
 678 105 678 105 683.5 137.5 c 128,-1,61
 689 170 689 170 695 190 c 0,62,63
 706 233 706 233 712.5 276 c 128,-1,64
 719 319 719 319 725 362 c 128,-1,65
 731 405 731 405 738 448 c 128,-1,66
 745 491 745 491 756 533 c 0,67,68
 767 572 767 572 781 610 c 128,-1,69
 795 648 795 648 806 686 c 0,70,71
 809 702 809 702 801 716.5 c 128,-1,72
 793 731 793 731 772 731 c 0,73,74
 757 731 757 731 740.5 719.5 c 128,-1,75
 724 708 724 708 715 695 c 0,76,77
 679 639 679 639 644 585.5 c 128,-1,78
 609 532 609 532 573 480 c 128,-1,79
 537 428 537 428 498 376.5 c 128,-1,80
 459 325 459 325 414 273 c 0,81,82
 412 270 412 270 409.5 269 c 128,-1,83
 407 268 407 268 404 266 c 2,84,-1
 400 265 l 2,85,86
 384 265 384 265 375.5 292.5 c 128,-1,87
 367 320 367 320 363.5 356 c 128,-1,88
 360 392 360 392 360.5 427.5 c 128,-1,89
 361 463 361 463 363 478 c 2,90,-1
 390 695 l 2,91,92
 390 701 390 701 389.5 708.5 c 128,-1,93
 389 716 389 716 387 722 c 128,-1,94
 385 728 385 728 380 732.5 c 128,-1,95
 375 737 375 737 366 737 c 0,96,97
 346 737 346 737 323.5 714.5 c 128,-1,98
 301 692 301 692 277 654.5 c 128,-1,99
 253 617 253 617 229.5 568.5 c 128,-1,100
 206 520 206 520 183.5 468 c 128,-1,101
 161 416 161 416 141.5 364.5 c 128,-1,102
 122 313 122 313 107 269 c 128,-1,103
 92 225 92 225 82.5 193.5 c 128,-1,104
 73 162 73 162 70 149 c 0,0,1
EndSplineSet
Validated: 41
EndChar

StartChar: N
Encoding: 78 78 55
Width: 582
Flags: W
LayerCount: 2
Fore
SplineSet
44 40 m 0,0,1
 40 27 40 27 48 13.5 c 128,-1,2
 56 0 56 0 70 0 c 0,3,4
 96 0 96 0 110 17.5 c 128,-1,5
 124 35 124 35 132 55 c 0,6,7
 135 66 135 66 141.5 90 c 128,-1,8
 148 114 148 114 157 144.5 c 128,-1,9
 166 175 166 175 175.5 208.5 c 128,-1,10
 185 242 185 242 193.5 272.5 c 128,-1,11
 202 303 202 303 209 327 c 128,-1,12
 216 351 216 351 220 363 c 0,13,14
 221 366 221 366 224.5 377 c 128,-1,15
 228 388 228 388 232.5 400.5 c 128,-1,16
 237 413 237 413 241.5 423.5 c 128,-1,17
 246 434 246 434 248 437 c 0,18,19
 249 438 249 438 252 443 c 128,-1,20
 255 448 255 448 258 450 c 2,21,-1
 266 450 l 2,22,23
 267 448 267 448 271 440.5 c 128,-1,24
 275 433 275 433 276 430 c 2,25,-1
 303 308 l 2,26,27
 305 298 305 298 310.5 277.5 c 128,-1,28
 316 257 316 257 322.5 235 c 128,-1,29
 329 213 329 213 334.5 194.5 c 128,-1,30
 340 176 340 176 343 170 c 0,31,32
 348 156 348 156 354.5 135 c 128,-1,33
 361 114 361 114 371 94.5 c 128,-1,34
 381 75 381 75 396 61 c 128,-1,35
 411 47 411 47 432 47 c 0,36,37
 459 47 459 47 481 64 c 128,-1,38
 503 81 503 81 520 104 c 128,-1,39
 537 127 537 127 549 152 c 128,-1,40
 561 177 561 177 569 192 c 0,41,42
 573 203 573 203 584 234 c 128,-1,43
 595 265 595 265 607 300 c 128,-1,44
 619 335 619 335 629 366 c 128,-1,45
 639 397 639 397 642 409 c 2,46,-1
 647 428 l 2,47,48
 652 445 652 445 657.5 466 c 128,-1,49
 663 487 663 487 668 510 c 2,50,-1
 678 545 l 1,51,-1
 686 573 l 2,52,53
 691 593 691 593 696 614 c 128,-1,54
 701 635 701 635 708 655 c 2,55,-1
 716 682 l 2,56,57
 716 696 716 696 716.5 710.5 c 128,-1,58
 717 725 717 725 714 737 c 128,-1,59
 711 749 711 749 702.5 756.5 c 128,-1,60
 694 764 694 764 675 764 c 0,61,62
 658 764 658 764 645.5 750.5 c 128,-1,63
 633 737 633 737 624 718.5 c 128,-1,64
 615 700 615 700 609.5 681.5 c 128,-1,65
 604 663 604 663 600 653 c 0,66,67
 582 585 582 585 569 518 c 128,-1,68
 556 451 556 451 537 382 c 2,69,-1
 531 356 l 2,70,71
 527 340 527 340 521 321 c 128,-1,72
 515 302 515 302 510 283 c 2,73,-1
 503 260 l 2,74,75
 501 257 501 257 497.5 248.5 c 128,-1,76
 494 240 494 240 489 231 c 128,-1,77
 484 222 484 222 478 215.5 c 128,-1,78
 472 209 472 209 466 209 c 0,79,80
 455 209 455 209 445 224 c 128,-1,81
 435 239 435 239 426.5 262 c 128,-1,82
 418 285 418 285 411 313.5 c 128,-1,83
 404 342 404 342 399 368.5 c 128,-1,84
 394 395 394 395 391.5 417 c 128,-1,85
 389 439 389 439 388 450 c 2,86,-1
 379 532 l 2,87,88
 378 538 378 538 375.5 556 c 128,-1,89
 373 574 373 574 369.5 593.5 c 128,-1,90
 366 613 366 613 363 631 c 128,-1,91
 360 649 360 649 359 655 c 0,92,93
 345 678 345 678 322.5 694 c 128,-1,94
 300 710 300 710 268 710 c 0,95,96
 254 710 254 710 243 701.5 c 128,-1,97
 232 693 232 693 223.5 681 c 128,-1,98
 215 669 215 669 209.5 656.5 c 128,-1,99
 204 644 204 644 201 636 c 0,100,101
 198 627 198 627 190.5 605 c 128,-1,102
 183 583 183 583 175.5 559 c 128,-1,103
 168 535 168 535 162 514 c 128,-1,104
 156 493 156 493 154 485 c 2,105,-1
 148 464 l 2,106,107
 143 445 143 445 136.5 423 c 128,-1,108
 130 401 130 401 124 378 c 2,109,-1
 116 342 l 1,110,-1
 94 263 l 2,111,112
 79 208 79 208 66.5 156.5 c 128,-1,113
 54 105 54 105 44 40 c 0,0,1
EndSplineSet
Validated: 9
EndChar

StartChar: O
Encoding: 79 79 56
Width: 831
Flags: W
AnchorPoint: "top" 613 800 basechar 0
LayerCount: 2
Fore
SplineSet
71 256 m 0,0,1
 56 194 56 194 66 146.5 c 128,-1,2
 76 99 76 99 106.5 66.5 c 128,-1,3
 137 34 137 34 185 17 c 128,-1,4
 233 0 233 0 295 0 c 0,5,6
 389 0 389 0 484.5 31.5 c 128,-1,7
 580 63 580 63 662 119 c 128,-1,8
 744 175 744 175 805 252.5 c 128,-1,9
 866 330 866 330 891 422 c 0,10,11
 908 486 908 486 898 541.5 c 128,-1,12
 888 597 888 597 856 637 c 128,-1,13
 824 677 824 677 772 700 c 128,-1,14
 720 723 720 723 654 723 c 0,15,16
 592 723 592 723 528.5 704 c 128,-1,17
 465 685 465 685 405 652.5 c 128,-1,18
 345 620 345 620 291 575 c 128,-1,19
 237 530 237 530 193 478.5 c 128,-1,20
 149 427 149 427 117.5 370 c 128,-1,21
 86 313 86 313 71 256 c 0,0,1
195 291 m 0,22,23
 204 325 204 325 227 363.5 c 128,-1,24
 250 402 250 402 282.5 441 c 128,-1,25
 315 480 315 480 354.5 515.5 c 128,-1,26
 394 551 394 551 436.5 578 c 128,-1,27
 479 605 479 605 522 621.5 c 128,-1,28
 565 638 565 638 603 638 c 0,29,30
 653 638 653 638 690.5 615.5 c 128,-1,31
 728 593 728 593 751 557 c 128,-1,32
 774 521 774 521 780.5 476 c 128,-1,33
 787 431 787 431 776 386 c 0,34,35
 766 348 766 348 743 311.5 c 128,-1,36
 720 275 720 275 687 242.5 c 128,-1,37
 654 210 654 210 614 182.5 c 128,-1,38
 574 155 574 155 531 135 c 128,-1,39
 488 115 488 115 445 103.5 c 128,-1,40
 402 92 402 92 363 92 c 0,41,42
 315 92 315 92 278 105.5 c 128,-1,43
 241 119 241 119 218.5 144.5 c 128,-1,44
 196 170 196 170 189 207 c 128,-1,45
 182 244 182 244 195 291 c 0,22,23
EndSplineSet
Validated: 41
EndChar

StartChar: P
Encoding: 80 80 57
Width: 569
Flags: W
LayerCount: 2
Fore
SplineSet
20 21 m 0,0,1
 24 6 24 6 31.5 2.5 c 128,-1,2
 39 -1 39 -1 52 -1 c 0,3,4
 60 -1 60 -1 71 2.5 c 128,-1,5
 82 6 82 6 92 12 c 128,-1,6
 102 18 102 18 109.5 25.5 c 128,-1,7
 117 33 117 33 119 40 c 2,8,-1
 161 192 l 2,9,10
 162 196 162 196 175.5 202.5 c 128,-1,11
 189 209 189 209 209.5 216.5 c 128,-1,12
 230 224 230 224 255 232.5 c 128,-1,13
 280 241 280 241 302.5 249 c 128,-1,14
 325 257 325 257 342.5 263.5 c 128,-1,15
 360 270 360 270 367 273 c 0,16,17
 413 294 413 294 463 324.5 c 128,-1,18
 513 355 513 355 557 392.5 c 128,-1,19
 601 430 601 430 634.5 473 c 128,-1,20
 668 516 668 516 680 563 c 128,-1,21
 692 610 692 610 680.5 643 c 128,-1,22
 669 676 669 676 640.5 697 c 128,-1,23
 612 718 612 718 570.5 727.5 c 128,-1,24
 529 737 529 737 483 737 c 0,25,26
 469 737 469 737 440.5 734 c 128,-1,27
 412 731 412 731 376.5 724.5 c 128,-1,28
 341 718 341 718 303.5 709 c 128,-1,29
 266 700 266 700 233.5 688.5 c 128,-1,30
 201 677 201 677 178.5 662 c 128,-1,31
 156 647 156 647 151 630 c 0,32,33
 146 612 146 612 151.5 591.5 c 128,-1,34
 157 571 157 571 171 559 c 1,35,-1
 167 547 l 1,36,-1
 163 528 l 2,37,38
 162 523 162 523 161 519 c 128,-1,39
 160 515 160 515 157 510 c 2,40,-1
 155 498 l 1,41,42
 127 401 127 401 95.5 308 c 128,-1,43
 64 215 64 215 38 118 c 1,44,-1
 31 84 l 2,45,46
 28 69 28 69 25 48.5 c 128,-1,47
 22 28 22 28 20 21 c 0,0,1
208 328 m 2,48,-1
 210 335 l 1,49,-1
 221 387 l 1,50,-1
 231 415 l 1,51,-1
 233 422 l 2,52,53
 233 425 233 425 240.5 442 c 128,-1,54
 248 459 248 459 257.5 481 c 128,-1,55
 267 503 267 503 276.5 525 c 128,-1,56
 286 547 286 547 291 559 c 0,57,58
 302 584 302 584 322 599.5 c 128,-1,59
 342 615 342 615 367 623 c 128,-1,60
 392 631 392 631 419 633.5 c 128,-1,61
 446 636 446 636 472 636 c 0,62,63
 497 636 497 636 515.5 633 c 128,-1,64
 534 630 534 630 545.5 621.5 c 128,-1,65
 557 613 557 613 560 598 c 128,-1,66
 563 583 563 583 557 559 c 0,67,68
 551 534 551 534 531 507 c 128,-1,69
 511 480 511 480 482.5 453.5 c 128,-1,70
 454 427 454 427 419.5 403 c 128,-1,71
 385 379 385 379 349.5 361 c 128,-1,72
 314 343 314 343 280 332 c 128,-1,73
 246 321 246 321 219 321 c 2,74,-1
 211 321 l 2,75,76
 208 321 208 321 208 328 c 2,48,-1
EndSplineSet
Validated: 41
EndChar

StartChar: Q
Encoding: 81 81 58
Width: 682
Flags: W
LayerCount: 2
Fore
SplineSet
421 39 m 0,0,1
 424 34 424 34 432.5 20.5 c 128,-1,2
 441 7 441 7 450.5 -8 c 128,-1,3
 460 -23 460 -23 468 -36 c 128,-1,4
 476 -49 476 -49 479 -55 c 0,5,6
 488 -66 488 -66 507 -66 c 256,7,8
 526 -66 526 -66 542.5 -54.5 c 128,-1,9
 559 -43 559 -43 565 -27 c 0,10,11
 571 -8 571 -8 563 8 c 128,-1,12
 555 24 555 24 544.5 39.5 c 128,-1,13
 534 55 534 55 526 72 c 128,-1,14
 518 89 518 89 523 110 c 0,15,16
 527 124 527 124 538.5 138.5 c 128,-1,17
 550 153 550 153 564 167 c 128,-1,18
 578 181 578 181 593.5 194.5 c 128,-1,19
 609 208 609 208 623 220 c 0,20,21
 674 276 674 276 710.5 333.5 c 128,-1,22
 747 391 747 391 764 454 c 0,23,24
 773 488 773 488 771 530.5 c 128,-1,25
 769 573 769 573 753 610.5 c 128,-1,26
 737 648 737 648 704.5 673 c 128,-1,27
 672 698 672 698 620 698 c 0,28,29
 581 698 581 698 540.5 682 c 128,-1,30
 500 666 500 666 466 647 c 0,31,32
 389 608 389 608 322.5 559.5 c 128,-1,33
 256 511 256 511 202.5 455 c 128,-1,34
 149 399 149 399 111.5 336 c 128,-1,35
 74 273 74 273 56 205 c 0,36,37
 44 162 44 162 43 123.5 c 128,-1,38
 42 85 42 85 57 56 c 128,-1,39
 72 27 72 27 107 10 c 128,-1,40
 142 -7 142 -7 202 -7 c 0,41,42
 253 -7 253 -7 302 9 c 128,-1,43
 351 25 351 25 400 45 c 1,44,-1
 409 45 l 1,45,46
 408 44 408 44 413.5 43 c 128,-1,47
 419 42 419 42 421 39 c 0,0,1
153 191 m 0,48,49
 167 246 167 246 197 301.5 c 128,-1,50
 227 357 227 357 271 408 c 128,-1,51
 315 459 315 459 370.5 503 c 128,-1,52
 426 547 426 547 491 578 c 0,53,54
 509 586 509 586 533 598 c 128,-1,55
 557 610 557 610 580 610 c 0,56,57
 617 610 617 610 636 590 c 128,-1,58
 655 570 655 570 661.5 541 c 128,-1,59
 668 512 668 512 665 480.5 c 128,-1,60
 662 449 662 449 656 426 c 0,61,62
 653 417 653 417 644.5 397.5 c 128,-1,63
 636 378 636 378 623 354.5 c 128,-1,64
 610 331 610 331 593.5 306 c 128,-1,65
 577 281 577 281 560 260 c 128,-1,66
 543 239 543 239 525.5 226 c 128,-1,67
 508 213 508 213 492 213 c 0,68,69
 474 213 474 213 467 224 c 128,-1,70
 460 235 460 235 455 248 c 128,-1,71
 450 261 450 261 441.5 272 c 128,-1,72
 433 283 433 283 414 283 c 0,73,74
 400 283 400 283 392 281 c 128,-1,75
 384 279 384 279 378.5 274.5 c 128,-1,76
 373 270 373 270 370 263 c 128,-1,77
 367 256 367 256 363 246 c 0,78,79
 358 230 358 230 360.5 216.5 c 128,-1,80
 363 203 363 203 367.5 189.5 c 128,-1,81
 372 176 372 176 374.5 163 c 128,-1,82
 377 150 377 150 373 135 c 0,83,84
 369 121 369 121 351 111 c 128,-1,85
 333 101 333 101 310.5 94.5 c 128,-1,86
 288 88 288 88 265.5 84.5 c 128,-1,87
 243 81 243 81 231 81 c 0,88,89
 201 81 201 81 182.5 90 c 128,-1,90
 164 99 164 99 155.5 114.5 c 128,-1,91
 147 130 147 130 147 150 c 256,92,93
 147 170 147 170 153 191 c 0,48,49
EndSplineSet
Validated: 41
EndChar

StartChar: R
Encoding: 82 82 59
Width: 608
Flags: W
LayerCount: 2
Fore
SplineSet
20 38 m 1,0,1
 22 26 22 26 28.5 13 c 128,-1,2
 35 0 35 0 53 0 c 0,3,4
 77 0 77 0 94 12 c 128,-1,5
 111 24 111 24 123 43 c 128,-1,6
 135 62 135 62 142.5 85.5 c 128,-1,7
 150 109 150 109 155.5 131.5 c 128,-1,8
 161 154 161 154 165 173.5 c 128,-1,9
 169 193 169 193 173 205 c 1,10,11
 181 212 181 212 190.5 214.5 c 128,-1,12
 200 217 200 217 211 217 c 0,13,14
 218 217 218 217 227 202 c 128,-1,15
 236 187 236 187 248.5 164 c 128,-1,16
 261 141 261 141 279 114.5 c 128,-1,17
 297 88 297 88 321.5 65 c 128,-1,18
 346 42 346 42 378.5 27 c 128,-1,19
 411 12 411 12 453 12 c 0,20,21
 465 12 465 12 478 13.5 c 128,-1,22
 491 15 491 15 503 18.5 c 128,-1,23
 515 22 515 22 524 29 c 128,-1,24
 533 36 533 36 536 48 c 0,25,26
 541 64 541 64 526.5 75.5 c 128,-1,27
 512 87 512 87 488 98 c 128,-1,28
 464 109 464 109 435.5 120.5 c 128,-1,29
 407 132 407 132 385 148 c 128,-1,30
 363 164 363 164 351 186 c 128,-1,31
 339 208 339 208 349 239 c 0,32,33
 352 248 352 248 377.5 265 c 128,-1,34
 403 282 403 282 439.5 305 c 128,-1,35
 476 328 476 328 519 356.5 c 128,-1,36
 562 385 562 385 601.5 417.5 c 128,-1,37
 641 450 641 450 671 486 c 128,-1,38
 701 522 701 522 712 560 c 0,39,40
 722 599 722 599 707.5 626 c 128,-1,41
 693 653 693 653 662 669.5 c 128,-1,42
 631 686 631 686 589.5 693.5 c 128,-1,43
 548 701 548 701 505 701 c 0,44,45
 439 701 439 701 382.5 692 c 128,-1,46
 326 683 326 683 282 661 c 128,-1,47
 238 639 238 639 206 603 c 128,-1,48
 174 567 174 567 156 512 c 0,49,50
 152 499 152 499 142.5 469.5 c 128,-1,51
 133 440 133 440 123 407 c 128,-1,52
 113 374 113 374 104.5 346 c 128,-1,53
 96 318 96 318 94 308 c 2,54,-1
 88 287 l 2,55,56
 82 271 82 271 76.5 251 c 128,-1,57
 71 231 71 231 63 208 c 2,58,-1
 55 173 l 1,59,-1
 49 144 l 2,60,61
 46 136 46 136 43 125.5 c 128,-1,62
 40 115 40 115 38 104 c 128,-1,63
 36 93 36 93 32.5 82.5 c 128,-1,64
 29 72 29 72 26 62 c 2,65,-1
 20 38 l 1,0,1
214 369 m 2,66,67
 227 417 227 417 240.5 460.5 c 128,-1,68
 254 504 254 504 274 554 c 0,69,70
 282 575 282 575 309 590.5 c 128,-1,71
 336 606 336 606 369 615.5 c 128,-1,72
 402 625 402 625 435.5 629.5 c 128,-1,73
 469 634 469 634 490 634 c 0,74,75
 509 634 509 634 527 632.5 c 128,-1,76
 545 631 545 631 559 626 c 128,-1,77
 573 621 573 621 582.5 611.5 c 128,-1,78
 592 602 592 602 596 585 c 0,79,80
 596 584 596 584 594.5 579 c 128,-1,81
 593 574 593 574 592 567 c 2,82,-1
 588 549 l 2,83,84
 576 508 576 508 539.5 464.5 c 128,-1,85
 503 421 503 421 452.5 385.5 c 128,-1,86
 402 350 402 350 344 327.5 c 128,-1,87
 286 305 286 305 231 305 c 0,88,89
 226 305 226 305 217.5 306 c 128,-1,90
 209 307 209 307 208 308 c 2,91,-1
 202 315 l 1,92,-1
 203 321 l 2,93,94
 205 325 205 325 207 335 c 2,95,-1
 214 369 l 2,66,67
EndSplineSet
Validated: 41
EndChar

StartChar: S
Encoding: 83 83 60
Width: 585
Flags: W
LayerCount: 2
Fore
SplineSet
55 194 m 0,0,1
 41 141 41 141 53.5 104 c 128,-1,2
 66 67 66 67 97 44 c 128,-1,3
 128 21 128 21 173.5 10.5 c 128,-1,4
 219 0 219 0 272 0 c 0,5,6
 342 0 342 0 400.5 23.5 c 128,-1,7
 459 47 459 47 504.5 87 c 128,-1,8
 550 127 550 127 581 179.5 c 128,-1,9
 612 232 612 232 627 290 c 0,10,11
 639 336 639 336 619 368 c 128,-1,12
 599 400 599 400 562 422.5 c 128,-1,13
 525 445 525 445 478.5 460.5 c 128,-1,14
 432 476 432 476 392 489 c 128,-1,15
 352 502 352 502 327 515 c 128,-1,16
 302 528 302 528 307 545 c 0,17,18
 308 548 308 548 309.5 553 c 128,-1,19
 311 558 311 558 311 559 c 0,20,21
 336 579 336 579 362 597.5 c 128,-1,22
 388 616 388 616 415.5 630.5 c 128,-1,23
 443 645 443 645 472 653.5 c 128,-1,24
 501 662 501 662 532 662 c 0,25,26
 548 662 548 662 559.5 657.5 c 128,-1,27
 571 653 571 653 581.5 647.5 c 128,-1,28
 592 642 592 642 603 637.5 c 128,-1,29
 614 633 614 633 628 633 c 0,30,31
 646 633 646 633 658.5 644.5 c 128,-1,32
 671 656 671 656 676 672 c 0,33,34
 682 694 682 694 674 712.5 c 128,-1,35
 666 731 666 731 649.5 744 c 128,-1,36
 633 757 633 757 611 764.5 c 128,-1,37
 589 772 589 772 568 772 c 0,38,39
 539 772 539 772 501.5 761.5 c 128,-1,40
 464 751 464 751 423.5 732.5 c 128,-1,41
 383 714 383 714 342.5 689.5 c 128,-1,42
 302 665 302 665 268.5 637.5 c 128,-1,43
 235 610 235 610 211 581 c 128,-1,44
 187 552 187 552 180 524 c 0,45,46
 172 495 172 495 184.5 475.5 c 128,-1,47
 197 456 197 456 222 442.5 c 128,-1,48
 247 429 247 429 281 420 c 128,-1,49
 315 411 315 411 350.5 402 c 128,-1,50
 386 393 386 393 419.5 382 c 128,-1,51
 453 371 453 371 477 354.5 c 128,-1,52
 501 338 501 338 512 313.5 c 128,-1,53
 523 289 523 289 513 252 c 0,54,55
 492 171 492 171 432.5 129.5 c 128,-1,56
 373 88 373 88 285 88 c 0,57,58
 244 88 244 88 221.5 99.5 c 128,-1,59
 199 111 199 111 188 127.5 c 128,-1,60
 177 144 177 144 172.5 164 c 128,-1,61
 168 184 168 184 163 200.5 c 128,-1,62
 158 217 158 217 148 228.5 c 128,-1,63
 138 240 138 240 116 240 c 0,64,65
 65 240 65 240 55 194 c 0,0,1
EndSplineSet
Validated: 41
EndChar

StartChar: T
Encoding: 84 84 61
Width: 545
Flags: W
LayerCount: 2
Fore
SplineSet
198 35 m 2,0,1
 195 19 195 19 202 9.5 c 128,-1,2
 209 0 209 0 226 0 c 0,3,4
 262 0 262 0 277 17.5 c 128,-1,5
 292 35 292 35 305 64 c 0,6,7
 333 131 333 131 359.5 194 c 128,-1,8
 386 257 386 257 411.5 320 c 128,-1,9
 437 383 437 383 460 446.5 c 128,-1,10
 483 510 483 510 504 578 c 1,11,12
 516 597 516 597 538.5 606.5 c 128,-1,13
 561 616 561 616 587.5 620.5 c 128,-1,14
 614 625 614 625 642 627.5 c 128,-1,15
 670 630 670 630 694.5 636 c 128,-1,16
 719 642 719 642 737 653.5 c 128,-1,17
 755 665 755 665 761 689 c 0,18,19
 762 692 762 692 762 698 c 256,20,21
 762 704 762 704 760.5 710 c 128,-1,22
 759 716 759 716 755.5 720 c 128,-1,23
 752 724 752 724 747 724 c 2,24,-1
 679 724 l 1,25,26
 664 720 664 720 633 713.5 c 128,-1,27
 602 707 602 707 563 699.5 c 128,-1,28
 524 692 524 692 481 684 c 128,-1,29
 438 676 438 676 399.5 668.5 c 128,-1,30
 361 661 361 661 330.5 655.5 c 128,-1,31
 300 650 300 650 285 647 c 0,32,33
 277 645 277 645 259.5 643 c 128,-1,34
 242 641 242 641 223 639 c 128,-1,35
 204 637 204 637 187.5 635.5 c 128,-1,36
 171 634 171 634 165 634 c 0,37,38
 145 627 145 627 139.5 618 c 128,-1,39
 134 609 134 609 129 594 c 0,40,41
 127 582 127 582 127 572 c 0,42,43
 127 563 127 563 144 556 c 1,44,-1
 152 556 l 2,45,46
 159 556 159 556 167 555.5 c 128,-1,47
 175 555 175 555 182 555 c 2,48,-1
 191 555 l 2,49,50
 212 555 212 555 229.5 555.5 c 128,-1,51
 247 556 247 556 264 557.5 c 128,-1,52
 281 559 281 559 300.5 562 c 128,-1,53
 320 565 320 565 346 571 c 1,54,55
 363 565 363 565 366 556 c 1,56,-1
 361 532 l 2,57,58
 347 477 347 477 327.5 422.5 c 128,-1,59
 308 368 308 368 287 314 c 128,-1,60
 266 260 266 260 246.5 206.5 c 128,-1,61
 227 153 227 153 213 99 c 2,62,-1
 206 65 l 2,63,64
 204 60 204 60 203.5 55.5 c 128,-1,65
 203 51 203 51 201 47 c 2,66,-1
 198 35 l 2,0,1
EndSplineSet
Validated: 9
EndChar

StartChar: U
Encoding: 85 85 62
Width: 493
Flags: W
AnchorPoint: "top" 413 780 basechar 0
LayerCount: 2
Fore
SplineSet
98 339 m 0,0,1
 91 312 91 312 82.5 277 c 128,-1,2
 74 242 74 242 68.5 204 c 128,-1,3
 63 166 63 166 63.5 129.5 c 128,-1,4
 64 93 64 93 75 64.5 c 128,-1,5
 86 36 86 36 110.5 18 c 128,-1,6
 135 0 135 0 178 0 c 0,7,8
 235 0 235 0 284.5 19.5 c 128,-1,9
 334 39 334 39 375 72 c 128,-1,10
 416 105 416 105 449 148.5 c 128,-1,11
 482 192 482 192 505 239 c 1,12,13
 518 286 518 286 530 326 c 128,-1,14
 542 366 542 366 553 404 c 128,-1,15
 564 442 564 442 575 479.5 c 128,-1,16
 586 517 586 517 597 559 c 2,17,-1
 608 601 l 2,18,19
 616 628 616 628 620 652.5 c 128,-1,20
 624 677 624 677 632 716 c 1,21,22
 627 744 627 744 592 744 c 0,23,24
 569 744 569 744 552.5 733.5 c 128,-1,25
 536 723 536 723 529 703 c 2,26,-1
 524 686 l 2,27,28
 522 675 522 675 518.5 664.5 c 128,-1,29
 515 654 515 654 511 643 c 2,30,-1
 507 627 l 2,31,32
 494 579 494 579 487 531 c 128,-1,33
 480 483 480 483 466 433 c 0,34,35
 461 414 461 414 450.5 382.5 c 128,-1,36
 440 351 440 351 424.5 315 c 128,-1,37
 409 279 409 279 389 242 c 128,-1,38
 369 205 369 205 344.5 175.5 c 128,-1,39
 320 146 320 146 290.5 127.5 c 128,-1,40
 261 109 261 109 228 109 c 0,41,42
 203 109 203 109 190.5 125 c 128,-1,43
 178 141 178 141 174 165.5 c 128,-1,44
 170 190 170 190 172.5 219 c 128,-1,45
 175 248 175 248 181 274 c 2,46,-1
 196 342 l 2,47,48
 199 350 199 350 201 357 c 128,-1,49
 203 364 203 364 204 369 c 2,50,-1
 206 374 l 2,51,52
 209 384 209 384 217.5 406 c 128,-1,53
 226 428 226 428 236.5 455 c 128,-1,54
 247 482 247 482 259 511.5 c 128,-1,55
 271 541 271 541 282.5 568 c 128,-1,56
 294 595 294 595 303 617 c 128,-1,57
 312 639 312 639 317 649 c 2,58,-1
 322 658 l 1,59,60
 326 675 326 675 321 689 c 128,-1,61
 316 703 316 703 293 703 c 0,62,63
 277 703 277 703 264.5 694 c 128,-1,64
 252 685 252 685 243 676 c 0,65,66
 218 632 218 632 196.5 590.5 c 128,-1,67
 175 549 175 549 157 508.5 c 128,-1,68
 139 468 139 468 124.5 426 c 128,-1,69
 110 384 110 384 98 339 c 0,0,1
EndSplineSet
Validated: 41
EndChar

StartChar: V
Encoding: 86 86 63
Width: 476
Flags: W
LayerCount: 2
Fore
SplineSet
162 662 m 2,0,-1
 160 655 l 2,1,2
 160 653 160 653 159 641.5 c 128,-1,3
 158 630 158 630 157.5 617.5 c 128,-1,4
 157 605 157 605 156 593.5 c 128,-1,5
 155 582 155 582 154 580 c 0,6,7
 142 502 142 502 132.5 440 c 128,-1,8
 123 378 123 378 118.5 320 c 128,-1,9
 114 262 114 262 116.5 201.5 c 128,-1,10
 119 141 119 141 131 68 c 0,11,12
 133 57 133 57 137 45 c 128,-1,13
 141 33 141 33 147.5 23 c 128,-1,14
 154 13 154 13 164.5 6.5 c 128,-1,15
 175 0 175 0 191 0 c 0,16,17
 206 0 206 0 217.5 8 c 128,-1,18
 229 16 229 16 235 27 c 0,19,20
 283 108 283 108 328.5 189 c 128,-1,21
 374 270 374 270 419.5 351.5 c 128,-1,22
 465 433 465 433 512.5 514 c 128,-1,23
 560 595 560 595 612 676 c 0,24,25
 612 677 612 677 613.5 681.5 c 128,-1,26
 615 686 615 686 615 689 c 0,27,28
 623 709 623 709 613 720 c 128,-1,29
 603 731 603 731 580 731 c 0,30,31
 547 731 547 731 512.5 692 c 128,-1,32
 478 653 478 653 443 594.5 c 128,-1,33
 408 536 408 536 375.5 467.5 c 128,-1,34
 343 399 343 399 314 340.5 c 128,-1,35
 285 282 285 282 262 243 c 128,-1,36
 239 204 239 204 225 204 c 0,37,38
 215 204 215 204 210.5 219.5 c 128,-1,39
 206 235 206 235 204.5 259 c 128,-1,40
 203 283 203 283 204 311.5 c 128,-1,41
 205 340 205 340 207.5 366 c 128,-1,42
 210 392 210 392 212.5 411.5 c 128,-1,43
 215 431 215 431 216 437 c 0,44,45
 216 442 216 442 218 451 c 128,-1,46
 220 460 220 460 223 474 c 0,47,48
 227 494 227 494 232.5 518.5 c 128,-1,49
 238 543 238 543 243.5 566 c 128,-1,50
 249 589 249 589 253.5 608 c 128,-1,51
 258 627 258 627 260 636 c 0,52,53
 262 659 262 659 254.5 678 c 128,-1,54
 247 697 247 697 217 697 c 0,55,56
 197 697 197 697 182 688.5 c 128,-1,57
 167 680 167 680 162 662 c 2,0,-1
EndSplineSet
Validated: 41
EndChar

StartChar: W
Encoding: 87 87 64
Width: 762
Flags: W
LayerCount: 2
Fore
SplineSet
398 220 m 0,0,1
 408 220 408 220 416.5 203.5 c 128,-1,2
 425 187 425 187 433.5 163 c 128,-1,3
 442 139 442 139 453 110 c 128,-1,4
 464 81 464 81 478.5 57 c 128,-1,5
 493 33 493 33 512.5 16.5 c 128,-1,6
 532 0 532 0 559 0 c 0,7,8
 583 0 583 0 608 23 c 128,-1,9
 633 46 633 46 657 82 c 128,-1,10
 681 118 681 118 703 161.5 c 128,-1,11
 725 205 725 205 742.5 245.5 c 128,-1,12
 760 286 760 286 772 318.5 c 128,-1,13
 784 351 784 351 788 365 c 2,14,-1
 790 376 l 1,15,-1
 797 403 l 2,16,17
 801 417 801 417 806.5 435.5 c 128,-1,18
 812 454 812 454 817 473 c 2,19,-1
 826 506 l 1,20,-1
 833 534 l 1,21,-1
 841 568 l 2,22,23
 849 591 849 591 855 618 c 128,-1,24
 861 645 861 645 867 668 c 2,25,-1
 877 703 l 1,26,27
 878 724 878 724 873 741.5 c 128,-1,28
 868 759 868 759 841 759 c 0,29,30
 808 759 808 759 789 731 c 1,31,32
 772 658 772 658 754 585 c 128,-1,33
 736 512 736 512 713 440 c 128,-1,34
 690 368 690 368 660 296 c 128,-1,35
 630 224 630 224 589 153 c 0,36,37
 588 150 588 150 577 142.5 c 128,-1,38
 566 135 566 135 562 134 c 0,39,40
 550 130 550 130 541.5 142 c 128,-1,41
 533 154 533 154 526.5 173.5 c 128,-1,42
 520 193 520 193 516 218 c 128,-1,43
 512 243 512 243 509.5 266 c 128,-1,44
 507 289 507 289 506 306.5 c 128,-1,45
 505 324 505 324 505 330 c 0,46,47
 506 347 506 347 515 377 c 128,-1,48
 524 407 524 407 535 442.5 c 128,-1,49
 546 478 546 478 555 514 c 128,-1,50
 564 550 564 550 565.5 579.5 c 128,-1,51
 567 609 567 609 557.5 627.5 c 128,-1,52
 548 646 548 646 522 646 c 0,53,54
 507 646 507 646 489 641 c 128,-1,55
 471 636 471 636 463 620 c 2,56,-1
 375 373 l 2,57,58
 372 366 372 366 360 347.5 c 128,-1,59
 348 329 348 329 331 305.5 c 128,-1,60
 314 282 314 282 294 257 c 128,-1,61
 274 232 274 232 255 211.5 c 128,-1,62
 236 191 236 191 220.5 179 c 128,-1,63
 205 167 205 167 197 169 c 0,64,65
 187 171 187 171 184.5 189.5 c 128,-1,66
 182 208 182 208 184 234.5 c 128,-1,67
 186 261 186 261 191 292.5 c 128,-1,68
 196 324 196 324 201.5 351.5 c 128,-1,69
 207 379 207 379 212 400.5 c 128,-1,70
 217 422 217 422 218 428 c 0,71,72
 227 458 227 458 238.5 487 c 128,-1,73
 250 516 250 516 262 545.5 c 128,-1,74
 274 575 274 575 285.5 604 c 128,-1,75
 297 633 297 633 305 663 c 0,76,77
 310 683 310 683 306 694 c 128,-1,78
 302 705 302 705 276 705 c 0,79,80
 248 705 248 705 226 690.5 c 128,-1,81
 204 676 204 676 187.5 652.5 c 128,-1,82
 171 629 171 629 159 600.5 c 128,-1,83
 147 572 147 572 138.5 544.5 c 128,-1,84
 130 517 130 517 124 492.5 c 128,-1,85
 118 468 118 468 114 454 c 0,86,87
 91 369 91 369 80.5 287 c 128,-1,88
 70 205 70 205 68 120 c 0,89,90
 65 104 65 104 65 84 c 256,91,92
 65 64 65 64 70 46.5 c 128,-1,93
 75 29 75 29 88 17 c 128,-1,94
 101 5 101 5 124 5 c 0,95,96
 135 5 135 5 142.5 6 c 128,-1,97
 150 7 150 7 164 14 c 0,98,99
 194 31 194 31 226 57.5 c 128,-1,100
 258 84 258 84 288 113 c 128,-1,101
 318 142 318 142 344.5 170 c 128,-1,102
 371 198 371 198 389 218 c 0,103,104
 390 218 390 218 393.5 219 c 128,-1,105
 397 220 397 220 398 220 c 0,0,1
EndSplineSet
Validated: 41
EndChar

StartChar: X
Encoding: 88 88 65
Width: 602
Flags: W
LayerCount: 2
Fore
SplineSet
21 42 m 0,0,1
 16 23 16 23 23 11.5 c 128,-1,2
 30 0 30 0 53 0 c 0,3,4
 74 0 74 0 91 14 c 1,5,-1
 225 177 l 2,6,7
 228 181 228 181 239 194.5 c 128,-1,8
 250 208 250 208 263.5 222.5 c 128,-1,9
 277 237 277 237 291 248.5 c 128,-1,10
 305 260 305 260 315 260 c 2,11,-1
 323 260 l 1,12,-1
 351 226 l 2,13,14
 356 216 356 216 371.5 190.5 c 128,-1,15
 387 165 387 165 404 136.5 c 128,-1,16
 421 108 421 108 436 82.5 c 128,-1,17
 451 57 451 57 456 47 c 0,18,19
 461 38 461 38 471 35 c 128,-1,20
 481 32 481 32 492 32 c 0,21,22
 506 32 506 32 519.5 39.5 c 128,-1,23
 533 47 533 47 537 61 c 2,24,-1
 538 68 l 1,25,26
 533 102 533 102 518.5 137.5 c 128,-1,27
 504 173 504 173 486.5 207.5 c 128,-1,28
 469 242 469 242 450.5 274 c 128,-1,29
 432 306 432 306 419 334 c 0,30,31
 413 342 413 342 412.5 345 c 128,-1,32
 412 348 412 348 415 359 c 0,33,34
 417 364 417 364 418.5 366.5 c 128,-1,35
 420 369 420 369 422.5 371.5 c 128,-1,36
 425 374 425 374 429 377.5 c 128,-1,37
 433 381 433 381 440 389 c 0,38,39
 451 398 451 398 469 414.5 c 128,-1,40
 487 431 487 431 504.5 447.5 c 128,-1,41
 522 464 522 464 535 476.5 c 128,-1,42
 548 489 548 489 550 490 c 0,43,44
 566 506 566 506 594.5 527.5 c 128,-1,45
 623 549 623 549 652.5 573.5 c 128,-1,46
 682 598 682 598 706 623 c 128,-1,47
 730 648 730 648 736 671 c 0,48,49
 740 685 740 685 733 697.5 c 128,-1,50
 726 710 726 710 707 710 c 0,51,52
 684 710 684 710 655.5 691.5 c 128,-1,53
 627 673 627 673 596 646 c 128,-1,54
 565 619 565 619 533.5 586.5 c 128,-1,55
 502 554 502 554 474 527 c 128,-1,56
 446 500 446 500 423.5 481.5 c 128,-1,57
 401 463 401 463 388 463 c 0,58,59
 387 463 387 463 386 463.5 c 128,-1,60
 385 464 385 464 385 464 c 2,61,62
 382 467 382 467 375.5 474.5 c 128,-1,63
 369 482 369 482 367 485 c 0,64,65
 365 491 365 491 358.5 507.5 c 128,-1,66
 352 524 352 524 345 542.5 c 128,-1,67
 338 561 338 561 331.5 578 c 128,-1,68
 325 595 325 595 323 602 c 0,69,70
 318 613 318 613 313 629 c 128,-1,71
 308 645 308 645 300.5 659.5 c 128,-1,72
 293 674 293 674 280.5 684.5 c 128,-1,73
 268 695 268 695 249 695 c 0,74,75
 223 695 223 695 210 683.5 c 128,-1,76
 197 672 197 672 189 649 c 0,77,78
 184 625 184 625 197.5 602 c 128,-1,79
 211 579 211 579 222 559 c 0,80,81
 225 549 225 549 234 523.5 c 128,-1,82
 243 498 243 498 253.5 469.5 c 128,-1,83
 264 441 264 441 273.5 416 c 128,-1,84
 283 391 283 391 288 382 c 0,85,86
 288 379 288 379 288.5 371.5 c 128,-1,87
 289 364 289 364 289 363 c 0,88,89
 288 358 288 358 284.5 351.5 c 128,-1,90
 281 345 281 345 277 342 c 0,91,92
 247 314 247 314 207 277.5 c 128,-1,93
 167 241 167 241 129 201 c 128,-1,94
 91 161 91 161 61 120 c 128,-1,95
 31 79 31 79 21 42 c 0,0,1
EndSplineSet
Validated: 41
EndChar

StartChar: Y
Encoding: 89 89 66
Width: 489
Flags: W
AnchorPoint: "top" 420 807 basechar 0
LayerCount: 2
Fore
SplineSet
102 52 m 0,0,1
 100 44 100 44 99.5 34.5 c 128,-1,2
 99 25 99 25 102 17.5 c 128,-1,3
 105 10 105 10 112 5 c 128,-1,4
 119 0 119 0 133 0 c 0,5,6
 156 0 156 0 179 12 c 128,-1,7
 202 24 202 24 210 47 c 0,8,9
 227 89 227 89 242.5 126.5 c 128,-1,10
 258 164 258 164 275.5 200 c 128,-1,11
 293 236 293 236 315 272 c 128,-1,12
 337 308 337 308 366 347 c 0,13,14
 375 358 375 358 393.5 381 c 128,-1,15
 412 404 412 404 434.5 433.5 c 128,-1,16
 457 463 457 463 482 495.5 c 128,-1,17
 507 528 507 528 530 557 c 128,-1,18
 553 586 553 586 571.5 609 c 128,-1,19
 590 632 590 632 600 642 c 0,20,21
 615 661 615 661 622 678 c 128,-1,22
 629 695 629 695 637 715 c 0,23,24
 641 731 641 731 637 742.5 c 128,-1,25
 633 754 633 754 610 754 c 0,26,27
 584 754 584 754 564.5 738.5 c 128,-1,28
 545 723 545 723 530 702 c 128,-1,29
 515 681 515 681 503 659 c 128,-1,30
 491 637 491 637 480 624 c 0,31,32
 474 616 474 616 461 600 c 128,-1,33
 448 584 448 584 432 564.5 c 128,-1,34
 416 545 416 545 398.5 524 c 128,-1,35
 381 503 381 503 365 483.5 c 128,-1,36
 349 464 349 464 336.5 448.5 c 128,-1,37
 324 433 324 433 318 426 c 0,38,39
 310 415 310 415 300 414 c 128,-1,40
 290 413 290 413 279 413 c 0,41,42
 247 413 247 413 234 425.5 c 128,-1,43
 221 438 221 438 220 465 c 0,44,45
 221 470 221 470 223 482.5 c 128,-1,46
 225 495 225 495 229 506 c 2,47,-1
 231 515 l 2,48,49
 236 536 236 536 245 556 c 128,-1,50
 254 576 254 576 264.5 595.5 c 128,-1,51
 275 615 275 615 284.5 635 c 128,-1,52
 294 655 294 655 300 676 c 0,53,54
 304 693 304 693 296.5 708.5 c 128,-1,55
 289 724 289 724 266 724 c 0,56,57
 236 724 236 724 213.5 704.5 c 128,-1,58
 191 685 191 685 175 657 c 128,-1,59
 159 629 159 629 148 597 c 128,-1,60
 137 565 137 565 131 541 c 2,61,-1
 121 510 l 2,62,63
 110 469 110 469 121 435.5 c 128,-1,64
 132 402 132 402 149.5 376 c 128,-1,65
 167 350 167 350 182 330.5 c 128,-1,66
 197 311 197 311 193 299 c 0,67,68
 185 268 185 268 172.5 237.5 c 128,-1,69
 160 207 160 207 147.5 176 c 128,-1,70
 135 145 135 145 122.5 114 c 128,-1,71
 110 83 110 83 102 52 c 0,0,1
EndSplineSet
Validated: 41
EndChar

StartChar: Z
Encoding: 90 90 67
Width: 563
Flags: W
LayerCount: 2
Fore
SplineSet
21 52 m 0,0,1
 14 33 14 33 21.5 23 c 128,-1,2
 29 13 29 13 43 0 c 1,3,-1
 60 0 l 2,4,5
 63 0 63 0 64.5 -0.5 c 128,-1,6
 66 -1 66 -1 70 -1 c 2,7,-1
 92 -1 l 2,8,9
 128 -1 128 -1 167 7 c 128,-1,10
 206 15 206 15 246 26 c 1,11,-1
 253 26 l 1,12,-1
 257 29 l 1,13,14
 277 34 277 34 298.5 38.5 c 128,-1,15
 320 43 320 43 340 47 c 0,16,17
 372 54 372 54 405.5 56.5 c 128,-1,18
 439 59 439 59 474 62 c 0,19,20
 477 62 477 62 482 63 c 128,-1,21
 487 64 487 64 491 64 c 2,22,-1
 508 64 l 2,23,24
 513 64 513 64 514 65 c 0,25,26
 522 66 522 66 530.5 67 c 128,-1,27
 539 68 539 68 547 68 c 0,28,29
 556 68 556 68 562.5 76.5 c 128,-1,30
 569 85 569 85 572 96 c 0,31,32
 577 111 577 111 568 124 c 128,-1,33
 559 137 559 137 545 142 c 1,34,-1
 489 142 l 2,35,36
 453 142 453 142 416 136 c 128,-1,37
 379 130 379 130 338 122 c 0,38,39
 337 121 337 121 331 121 c 2,40,-1
 326 121 l 1,41,42
 326 121 326 121 324 120.5 c 128,-1,43
 322 120 322 120 317 118 c 2,44,-1
 316 118 l 1,45,46
 284 111 284 111 251.5 106 c 128,-1,47
 219 101 219 101 185 101 c 1,48,-1
 182 109 l 1,49,50
 187 126 187 126 201 145.5 c 128,-1,51
 215 165 215 165 234 185.5 c 128,-1,52
 253 206 253 206 274 226 c 128,-1,53
 295 246 295 246 315 264 c 0,54,55
 317 267 317 267 318 268 c 128,-1,56
 319 269 319 269 329 278 c 1,57,-1
 332 278 l 1,58,59
 337 285 337 285 341 288.5 c 128,-1,60
 345 292 345 292 347 294 c 0,61,62
 364 311 364 311 389 330.5 c 128,-1,63
 414 350 414 350 443 373 c 0,64,65
 481 406 481 406 521.5 441.5 c 128,-1,66
 562 477 562 477 597 515 c 128,-1,67
 632 553 632 553 659 593 c 128,-1,68
 686 633 686 633 697 675 c 0,69,70
 709 731 709 731 641 731 c 0,71,72
 632 731 632 731 596.5 727 c 128,-1,73
 561 723 561 723 512.5 716 c 128,-1,74
 464 709 464 709 410 699 c 128,-1,75
 356 689 356 689 309.5 677 c 128,-1,76
 263 665 263 665 231.5 652 c 128,-1,77
 200 639 200 639 197 625 c 0,78,79
 192 608 192 608 195.5 599.5 c 128,-1,80
 199 591 199 591 224 582 c 1,81,-1
 234 582 l 2,82,83
 236 582 236 582 235 581 c 1,84,-1
 236 581 l 2,85,86
 239 581 239 581 240 580.5 c 128,-1,87
 241 580 241 580 243 580 c 2,88,-1
 254 580 l 2,89,90
 286 580 286 580 319 583.5 c 128,-1,91
 352 587 352 587 387 594 c 1,92,-1
 395 594 l 2,93,94
 396 594 396 594 396.5 594.5 c 128,-1,95
 397 595 397 595 400 595 c 0,96,97
 402 595 402 595 405 596.5 c 128,-1,98
 408 598 408 598 409 598 c 0,99,100
 413 598 413 598 414 599 c 0,101,102
 443 603 443 603 473.5 607 c 128,-1,103
 504 611 504 611 536 611 c 1,104,-1
 539 604 l 1,105,106
 534 584 534 584 518 569 c 128,-1,107
 502 554 502 554 482 536 c 2,108,-1
 477 532 l 1,109,-1
 469 526 l 1,110,-1
 464 519 l 1,111,-1
 227 298 l 1,112,-1
 212 283 l 1,113,-1
 204 274 l 1,114,-1
 190 260 l 1,115,-1
 189 260 l 1,116,-1
 187 256 l 1,117,118
 161 233 161 233 134.5 207.5 c 128,-1,119
 108 182 108 182 85 156 c 128,-1,120
 62 130 62 130 45 103.5 c 128,-1,121
 28 77 28 77 21 52 c 0,0,1
332 276 m 1,122,-1
 331 278 l 1,123,124
 327 276 327 276 332 276 c 1,122,-1
EndSplineSet
Validated: 37
EndChar

StartChar: bracketleft
Encoding: 91 91 68
Width: 350
Flags: W
LayerCount: 2
Fore
SplineSet
20 47 m 2,0,1
 16 31 16 31 30 15.5 c 128,-1,2
 44 0 44 0 62 0 c 2,3,-1
 243 0 l 2,4,5
 250 0 250 0 258.5 4.5 c 128,-1,6
 267 9 267 9 274 15 c 128,-1,7
 281 21 281 21 286.5 28 c 128,-1,8
 292 35 292 35 294 40 c 0,9,10
 295 46 295 46 293 53.5 c 128,-1,11
 291 61 291 61 287.5 68.5 c 128,-1,12
 284 76 284 76 278 81 c 128,-1,13
 272 86 272 86 266 86 c 2,14,-1
 152 86 l 1,15,-1
 142 101 l 1,16,-1
 148 127 l 2,17,18
 150 130 150 130 150 132 c 256,19,20
 150 134 150 134 151 136 c 2,21,-1
 154 149 l 2,22,23
 161 168 161 168 173.5 208 c 128,-1,24
 186 248 186 248 201.5 298.5 c 128,-1,25
 217 349 217 349 233.5 404.5 c 128,-1,26
 250 460 250 460 265.5 510.5 c 128,-1,27
 281 561 281 561 293.5 601 c 128,-1,28
 306 641 306 641 313 660 c 0,29,30
 314 661 314 661 317 666 c 128,-1,31
 320 671 320 671 325 676.5 c 128,-1,32
 330 682 330 682 333 682 c 2,33,-1
 447 682 l 2,34,35
 470 682 470 682 481.5 695 c 128,-1,36
 493 708 493 708 497 724 c 0,37,38
 501 737 501 737 499.5 743 c 128,-1,39
 498 749 498 749 483 757 c 1,40,41
 456 761 456 761 436 763.5 c 128,-1,42
 416 766 416 766 398.5 768 c 128,-1,43
 381 770 381 770 363.5 771 c 128,-1,44
 346 772 346 772 323 772 c 2,45,-1
 281 772 l 1,46,47
 264 765 264 765 255 757 c 128,-1,48
 246 749 246 749 235 737 c 1,49,50
 191 562 191 562 141.5 393.5 c 128,-1,51
 92 225 92 225 24 55 c 1,52,-1
 20 47 l 2,0,1
EndSplineSet
Validated: 41
EndChar

StartChar: backslash
Encoding: 92 92 69
Width: 391
Flags: W
LayerCount: 2
Fore
SplineSet
155 682 m 0,0,1
 160 664 160 664 170 626 c 128,-1,2
 180 588 180 588 192.5 539.5 c 128,-1,3
 205 491 205 491 218 437.5 c 128,-1,4
 231 384 231 384 242.5 335.5 c 128,-1,5
 254 287 254 287 263 248.5 c 128,-1,6
 272 210 272 210 276 192 c 0,7,8
 276 187 276 187 279.5 167 c 128,-1,9
 283 147 283 147 287.5 123.5 c 128,-1,10
 292 100 292 100 296 80 c 128,-1,11
 300 60 300 60 302 55 c 0,12,13
 304 32 304 32 315 16 c 128,-1,14
 326 0 326 0 354 0 c 0,15,16
 376 0 376 0 383.5 13 c 128,-1,17
 391 26 391 26 395 40 c 0,18,19
 404 69 404 69 400.5 93 c 128,-1,20
 397 117 397 117 391 143 c 0,21,22
 375 221 375 221 360.5 297.5 c 128,-1,23
 346 374 346 374 328.5 449 c 128,-1,24
 311 524 311 524 290 597 c 128,-1,25
 269 670 269 670 240 742 c 0,26,27
 235 754 235 754 224 759 c 128,-1,28
 213 764 213 764 200 764 c 0,29,30
 177 764 177 764 169.5 750.5 c 128,-1,31
 162 737 162 737 158 723 c 0,32,33
 154 711 154 711 152 702 c 128,-1,34
 150 693 150 693 155 682 c 0,0,1
EndSplineSet
Validated: 41
EndChar

StartChar: bracketright
Encoding: 93 93 70
Width: 321
Flags: W
LayerCount: 2
Fore
SplineSet
14 38 m 0,0,1
 11 23 11 23 13 11.5 c 128,-1,2
 15 0 15 0 35 0 c 2,3,-1
 43 0 l 1,4,-1
 215 14 l 1,5,6
 225 19 225 19 236.5 27.5 c 128,-1,7
 248 36 248 36 253 47 c 0,8,9
 275 133 275 133 302.5 218 c 128,-1,10
 330 303 330 303 359 387.5 c 128,-1,11
 388 472 388 472 415.5 556.5 c 128,-1,12
 443 641 443 641 466 727 c 2,13,-1
 468 734 l 1,14,-1
 476 772 l 1,15,16
 473 795 473 795 461.5 807 c 128,-1,17
 450 819 450 819 422 819 c 0,18,19
 401 819 401 819 377.5 815 c 128,-1,20
 354 811 354 811 330 805 c 128,-1,21
 306 799 306 799 282 793 c 128,-1,22
 258 787 258 787 236 784 c 1,23,24
 218 773 218 773 207.5 763 c 128,-1,25
 197 753 197 753 192 734 c 0,26,27
 189 723 189 723 189.5 716.5 c 128,-1,28
 190 710 190 710 207 703 c 1,29,-1
 214 703 l 2,30,31
 218 703 218 703 224 702.5 c 128,-1,32
 230 702 230 702 235 702 c 2,33,-1
 240 702 l 2,34,35
 267 702 267 702 293 710 c 128,-1,36
 319 718 319 718 345 718 c 0,37,38
 350 718 350 718 355.5 717.5 c 128,-1,39
 361 717 361 717 360 710 c 2,40,-1
 346 655 l 2,41,42
 328 588 328 588 305.5 521.5 c 128,-1,43
 283 455 283 455 260 389 c 128,-1,44
 237 323 237 323 214.5 256 c 128,-1,45
 192 189 192 189 174 122 c 1,46,47
 160 101 160 101 136 96 c 128,-1,48
 112 91 112 91 87.5 87.5 c 128,-1,49
 63 84 63 84 42 75 c 128,-1,50
 21 66 21 66 14 38 c 0,0,1
EndSplineSet
Validated: 9
EndChar

StartChar: asciicircum
Encoding: 94 94 71
Width: 415
Flags: W
LayerCount: 2
Fore
SplineSet
363 633 m 0,0,1
 374 633 374 633 377 628 c 2,2,-1
 453 521 l 2,3,4
 457 515 457 515 463 515 c 0,5,6
 470 515 470 515 479 515 c 0,7,8
 492 515 492 515 506 524.5 c 128,-1,9
 520 534 520 534 523 547 c 2,10,-1
 524 550 l 2,11,12
 524 552 524 552 524.5 559 c 128,-1,13
 525 566 525 566 523 569 c 0,14,15
 505 597 505 597 484.5 629.5 c 128,-1,16
 464 662 464 662 447 694 c 0,17,18
 444 697 444 697 439.5 706.5 c 128,-1,19
 435 716 435 716 430 726.5 c 128,-1,20
 425 737 425 737 419 745 c 128,-1,21
 413 753 413 753 409 753 c 2,22,-1
 388 753 l 2,23,24
 387 753 387 753 366 741.5 c 128,-1,25
 345 730 345 730 317 714 c 128,-1,26
 289 698 289 698 260 680.5 c 128,-1,27
 231 663 231 663 213 652 c 0,28,29
 194 641 194 641 180 633 c 128,-1,30
 166 625 166 625 156 616.5 c 128,-1,31
 146 608 146 608 139 597 c 128,-1,32
 132 586 132 586 127 569 c 2,33,-1
 122 545 l 1,34,35
 129 526 129 526 151 526 c 0,36,37
 174 526 174 526 200 542.5 c 128,-1,38
 226 559 226 559 253 579.5 c 128,-1,39
 280 600 280 600 308 616.5 c 128,-1,40
 336 633 336 633 363 633 c 0,0,1
EndSplineSet
Validated: 9
EndChar

StartChar: underscore
Encoding: 95 95 72
Width: 676
Flags: W
LayerCount: 2
Fore
SplineSet
-2 -75 m 0,0,1
 -6 -90 -6 -90 5 -97 c 128,-1,2
 16 -104 16 -104 30 -107 c 2,3,-1
 500 -107 l 2,4,5
 505 -107 505 -107 519.5 -106 c 128,-1,6
 534 -105 534 -105 550 -103.5 c 128,-1,7
 566 -102 566 -102 580.5 -101 c 128,-1,8
 595 -100 595 -100 600 -100 c 0,9,10
 614 -91 614 -91 631 -79 c 128,-1,11
 648 -67 648 -67 651 -51 c 0,12,13
 653 -43 653 -43 652.5 -40 c 128,-1,14
 652 -37 652 -37 643 -30 c 1,15,16
 626 -30 626 -30 590.5 -29.5 c 128,-1,17
 555 -29 555 -29 509 -29 c 0,18,19
 464 -29 464 -29 415 -27.5 c 128,-1,20
 366 -26 366 -26 320 -26 c 0,21,22
 276 -26 276 -26 241 -25.5 c 128,-1,23
 206 -25 206 -25 189 -25 c 2,24,-1
 144 -25 l 2,25,26
 127 -25 127 -25 104 -26.5 c 128,-1,27
 81 -28 81 -28 59 -33.5 c 128,-1,28
 37 -39 37 -39 20 -49 c 128,-1,29
 3 -59 3 -59 -2 -75 c 0,0,1
EndSplineSet
Validated: 9
EndChar

StartChar: grave
Encoding: 96 96 73
Width: 356
Flags: W
LayerCount: 2
Fore
SplineSet
406 809 m 0,0,1
 407 811 407 811 408.5 816.5 c 128,-1,2
 410 822 410 822 410 824 c 0,3,4
 414 835 414 835 413 860.5 c 128,-1,5
 412 886 412 886 403 912 c 128,-1,6
 394 938 394 938 376.5 958 c 128,-1,7
 359 978 359 978 329 978 c 0,8,9
 313 978 313 978 303 972.5 c 128,-1,10
 293 967 293 967 291 959 c 0,11,12
 287 948 287 948 290 937 c 128,-1,13
 293 926 293 926 298.5 915 c 128,-1,14
 304 904 304 904 310 893.5 c 128,-1,15
 316 883 316 883 318 873 c 0,16,17
 320 868 320 868 319.5 855.5 c 128,-1,18
 319 843 319 843 322 830 c 128,-1,19
 325 817 325 817 334.5 807 c 128,-1,20
 344 797 344 797 366 797 c 0,21,22
 377 797 377 797 387.5 800.5 c 128,-1,23
 398 804 398 804 406 809 c 0,0,1
EndSplineSet
Validated: 41
EndChar

StartChar: a
Encoding: 97 97 74
Width: 499
Flags: W
AnchorPoint: "top" 487 827 basechar 0
LayerCount: 2
Fore
SplineSet
354 21 m 0,0,1
 355 2 355 2 362.5 1 c 128,-1,2
 370 0 370 0 389 0 c 0,3,4
 410 0 410 0 424.5 10 c 128,-1,5
 439 20 439 20 448 35 c 128,-1,6
 457 50 457 50 462.5 67 c 128,-1,7
 468 84 468 84 473 99 c 0,8,9
 483 130 483 130 486 160.5 c 128,-1,10
 489 191 489 191 497 222 c 2,11,-1
 499 230 l 1,12,-1
 509 257 l 1,13,-1
 511 266 l 1,14,15
 531 279 531 279 539 286.5 c 128,-1,16
 547 294 547 294 552 309 c 0,17,18
 556 321 556 321 553 330 c 128,-1,19
 550 339 550 339 544.5 347.5 c 128,-1,20
 539 356 539 356 533 364 c 128,-1,21
 527 372 527 372 526 382 c 0,22,23
 526 390 526 390 528 410 c 128,-1,24
 530 430 530 430 532 453 c 128,-1,25
 534 476 534 476 536.5 496.5 c 128,-1,26
 539 517 539 517 541 525 c 0,27,28
 543 536 543 536 544.5 551 c 128,-1,29
 546 566 546 566 551 586 c 0,30,31
 557 614 557 614 559.5 644 c 128,-1,32
 562 674 562 674 556.5 699.5 c 128,-1,33
 551 725 551 725 536 741.5 c 128,-1,34
 521 758 521 758 492 758 c 0,35,36
 474 758 474 758 451.5 746.5 c 128,-1,37
 429 735 429 735 407.5 719.5 c 128,-1,38
 386 704 386 704 368.5 689 c 128,-1,39
 351 674 351 674 343 668 c 0,40,41
 278 616 278 616 229 549.5 c 128,-1,42
 180 483 180 483 144 411 c 128,-1,43
 108 339 108 339 83 266 c 128,-1,44
 58 193 58 193 40 129 c 0,45,46
 38 118 38 118 34.5 102.5 c 128,-1,47
 31 87 31 87 31.5 73 c 128,-1,48
 32 59 32 59 39.5 49.5 c 128,-1,49
 47 40 47 40 67 40 c 0,50,51
 93 40 93 40 114 61 c 0,52,53
 118 66 118 66 121 84 c 0,54,55
 124 96 124 96 127.5 110 c 128,-1,56
 131 124 131 124 134.5 137.5 c 128,-1,57
 138 151 138 151 141.5 161.5 c 128,-1,58
 145 172 145 172 147 177 c 0,59,60
 150 188 150 188 156.5 200 c 128,-1,61
 163 212 163 212 179 217 c 0,62,63
 227 224 227 224 274.5 228.5 c 128,-1,64
 322 233 322 233 370 233 c 0,65,66
 377 233 377 233 385 232 c 128,-1,67
 393 231 393 231 395 231 c 2,68,-1
 398 217 l 1,69,-1
 395 204 l 2,70,71
 393 191 393 191 390.5 174.5 c 128,-1,72
 388 158 388 158 384 139 c 2,73,-1
 373 91 l 2,74,75
 371 84 371 84 370 77.5 c 128,-1,76
 369 71 369 71 366 64 c 0,77,78
 363 51 363 51 359.5 38 c 128,-1,79
 356 25 356 25 354 21 c 0,0,1
206 331 m 0,80,81
 210 342 210 342 224 367 c 128,-1,82
 238 392 238 392 258.5 423.5 c 128,-1,83
 279 455 279 455 304 488.5 c 128,-1,84
 329 522 329 522 354 550 c 128,-1,85
 379 578 379 578 402.5 596 c 128,-1,86
 426 614 426 614 443 614 c 0,87,88
 453 614 453 614 456.5 598.5 c 128,-1,89
 460 583 460 583 459 559.5 c 128,-1,90
 458 536 458 536 453 507.5 c 128,-1,91
 448 479 448 479 443 453 c 128,-1,92
 438 427 438 427 433 407.5 c 128,-1,93
 428 388 428 388 427 382 c 2,94,-1
 425 373 l 2,95,96
 423 369 423 369 422 365.5 c 128,-1,97
 421 362 421 362 420 357 c 2,98,-1
 415 334 l 1,99,100
 403 321 403 321 382.5 314 c 128,-1,101
 362 307 362 307 339 303.5 c 128,-1,102
 316 300 316 300 294.5 299.5 c 128,-1,103
 273 299 273 299 260 299 c 2,104,-1
 237 299 l 2,105,106
 221 299 221 299 211.5 306 c 128,-1,107
 202 313 202 313 206 331 c 0,80,81
EndSplineSet
Validated: 41
EndChar

StartChar: b
Encoding: 98 98 75
Width: 602
Flags: W
LayerCount: 2
Fore
SplineSet
27 65 m 2,0,1
 23 45 23 45 35.5 32.5 c 128,-1,2
 48 20 48 20 67.5 13 c 128,-1,3
 87 6 87 6 109.5 3 c 128,-1,4
 132 0 132 0 148 0 c 0,5,6
 184 0 184 0 232 10.5 c 128,-1,7
 280 21 280 21 332 39.5 c 128,-1,8
 384 58 384 58 435.5 83.5 c 128,-1,9
 487 109 487 109 530.5 140 c 128,-1,10
 574 171 574 171 605.5 205.5 c 128,-1,11
 637 240 637 240 647 277 c 0,12,13
 655 307 655 307 647 327 c 128,-1,14
 639 347 639 347 622 360.5 c 128,-1,15
 605 374 605 374 582.5 382.5 c 128,-1,16
 560 391 560 391 539.5 399.5 c 128,-1,17
 519 408 519 408 503.5 417.5 c 128,-1,18
 488 427 488 427 485 443 c 0,19,20
 485 446 485 446 489 450.5 c 128,-1,21
 493 455 493 455 496 456 c 0,22,23
 518 470 518 470 545 487 c 128,-1,24
 572 504 572 504 597.5 524 c 128,-1,25
 623 544 623 544 642.5 566.5 c 128,-1,26
 662 589 662 589 669 614 c 0,27,28
 675 636 675 636 669 653.5 c 128,-1,29
 663 671 663 671 649.5 684.5 c 128,-1,30
 636 698 636 698 616.5 707 c 128,-1,31
 597 716 597 716 575 720 c 1,32,-1
 557 720 l 2,33,34
 546 720 546 720 532.5 720.5 c 128,-1,35
 519 721 519 721 508 721 c 2,36,-1
 491 721 l 2,37,38
 469 721 469 721 438.5 720.5 c 128,-1,39
 408 720 408 720 374 716.5 c 128,-1,40
 340 713 340 713 305.5 706 c 128,-1,41
 271 699 271 699 242 686.5 c 128,-1,42
 213 674 213 674 191.5 654.5 c 128,-1,43
 170 635 170 635 163 607 c 0,44,45
 162 602 162 602 161 596 c 128,-1,46
 160 590 160 590 160 589 c 2,47,-1
 195 550 l 1,48,-1
 193 541 l 2,49,50
 191 534 191 534 189.5 525.5 c 128,-1,51
 188 517 188 517 185 506 c 2,52,-1
 179 490 l 1,53,54
 151 380 151 380 113 279.5 c 128,-1,55
 75 179 75 179 30 73 c 1,56,-1
 27 65 l 2,0,1
143 125 m 1,57,-1
 145 130 l 2,58,59
 148 145 148 145 149 147 c 2,60,-1
 150 152 l 2,61,62
 154 161 154 161 163 183.5 c 128,-1,63
 172 206 172 206 182 231.5 c 128,-1,64
 192 257 192 257 201.5 279.5 c 128,-1,65
 211 302 211 302 215 312 c 0,66,67
 221 325 221 325 234.5 336 c 128,-1,68
 248 347 248 347 265 352 c 1,69,-1
 332 352 l 2,70,71
 354 352 354 352 391.5 349 c 128,-1,72
 429 346 429 346 464 337 c 128,-1,73
 499 328 499 328 522 312 c 128,-1,74
 545 296 545 296 538 270 c 0,75,76
 527 229 527 229 485.5 195.5 c 128,-1,77
 444 162 444 162 391 139 c 128,-1,78
 338 116 338 116 282.5 103.5 c 128,-1,79
 227 91 227 91 188 91 c 2,80,-1
 178 91 l 2,81,82
 170 91 170 91 160 92.5 c 128,-1,83
 150 94 150 94 150 94 c 1,84,-1
 138 105 l 1,85,-1
 143 125 l 1,57,-1
275 450 m 0,86,87
 277 457 277 457 279.5 473 c 128,-1,88
 282 489 282 489 286 506 c 2,89,-1
 298 563 l 1,90,-1
 301 576 l 2,91,92
 306 597 306 597 329.5 610 c 128,-1,93
 353 623 353 623 382 630 c 128,-1,94
 411 637 411 637 439.5 639 c 128,-1,95
 468 641 468 641 482 641 c 0,96,97
 489 641 489 641 502.5 638.5 c 128,-1,98
 516 636 516 636 529.5 631.5 c 128,-1,99
 543 627 543 627 552.5 619.5 c 128,-1,100
 562 612 562 612 560 602 c 0,101,102
 559 599 559 599 552.5 591.5 c 128,-1,103
 546 584 546 584 546 584 c 1,104,105
 525 568 525 568 493.5 543.5 c 128,-1,106
 462 519 462 519 426 496.5 c 128,-1,107
 390 474 390 474 353.5 458 c 128,-1,108
 317 442 317 442 288 442 c 0,109,110
 283 442 283 442 280 442.5 c 128,-1,111
 277 443 277 443 275 450 c 0,86,87
EndSplineSet
Validated: 41
EndChar

StartChar: c
Encoding: 99 99 76
Width: 585
Flags: W
LayerCount: 2
Fore
SplineSet
62 226 m 0,0,1
 46 162 46 162 53.5 119 c 128,-1,2
 61 76 61 76 89.5 49.5 c 128,-1,3
 118 23 118 23 165.5 11.5 c 128,-1,4
 213 0 213 0 278 0 c 0,5,6
 298 0 298 0 328.5 5 c 128,-1,7
 359 10 359 10 393.5 19 c 128,-1,8
 428 28 428 28 463.5 41 c 128,-1,9
 499 54 499 54 528.5 70.5 c 128,-1,10
 558 87 558 87 579 106.5 c 128,-1,11
 600 126 600 126 606 148 c 0,12,13
 611 164 611 164 601.5 173.5 c 128,-1,14
 592 183 592 183 572 183 c 0,15,16
 542 183 542 183 507.5 166 c 128,-1,17
 473 149 473 149 434 128.5 c 128,-1,18
 395 108 395 108 352 91 c 128,-1,19
 309 74 309 74 264 74 c 0,20,21
 227 74 227 74 203.5 87.5 c 128,-1,22
 180 101 180 101 169 123.5 c 128,-1,23
 158 146 158 146 157.5 175 c 128,-1,24
 157 204 157 204 166 234 c 0,25,26
 181 293 181 293 213 346.5 c 128,-1,27
 245 400 245 400 289 448 c 128,-1,28
 333 496 333 496 386 539 c 128,-1,29
 439 582 439 582 496 620 c 0,30,31
 511 632 511 632 517 634.5 c 128,-1,32
 523 637 523 637 538 637 c 0,33,34
 558 637 558 637 565 628 c 128,-1,35
 572 619 572 619 573 606 c 128,-1,36
 574 593 574 593 572.5 577 c 128,-1,37
 571 561 571 561 572 548 c 128,-1,38
 573 535 573 535 581 526 c 128,-1,39
 589 517 589 517 610 517 c 0,40,41
 624 517 624 517 632.5 521.5 c 128,-1,42
 641 526 641 526 647 533.5 c 128,-1,43
 653 541 653 541 657 551.5 c 128,-1,44
 661 562 661 562 665 573 c 0,45,46
 671 594 671 594 672.5 623.5 c 128,-1,47
 674 653 674 653 668 679.5 c 128,-1,48
 662 706 662 706 646 725 c 128,-1,49
 630 744 630 744 601 744 c 0,50,51
 559 744 559 744 514.5 726 c 128,-1,52
 470 708 470 708 425 678.5 c 128,-1,53
 380 649 380 649 336.5 611 c 128,-1,54
 293 573 293 573 254.5 533.5 c 128,-1,55
 216 494 216 494 184.5 456.5 c 128,-1,56
 153 419 153 419 131 389 c 0,57,58
 103 351 103 351 88 307.5 c 128,-1,59
 73 264 73 264 62 226 c 0,0,1
EndSplineSet
Validated: 41
EndChar

StartChar: d
Encoding: 100 100 77
Width: 642
Flags: W
LayerCount: 2
Fore
SplineSet
57 36 m 0,0,1
 54 25 54 25 59 12.5 c 128,-1,2
 64 0 64 0 77 0 c 2,3,-1
 122 0 l 2,4,5
 189 0 189 0 255.5 16 c 128,-1,6
 322 32 322 32 384 61 c 128,-1,7
 446 90 446 90 501 130 c 128,-1,8
 556 170 556 170 601 219.5 c 128,-1,9
 646 269 646 269 678 325.5 c 128,-1,10
 710 382 710 382 726 443 c 2,11,-1
 730 456 l 2,12,13
 731 460 731 460 731.5 464.5 c 128,-1,14
 732 469 732 469 734 474 c 2,15,-1
 742 506 l 1,16,17
 741 545 741 545 724.5 578.5 c 128,-1,18
 708 612 708 612 680 639.5 c 128,-1,19
 652 667 652 667 614.5 688 c 128,-1,20
 577 709 577 709 536 723.5 c 128,-1,21
 495 738 495 738 451.5 745.5 c 128,-1,22
 408 753 408 753 368 753 c 0,23,24
 344 753 344 753 309 745 c 128,-1,25
 274 737 274 737 240.5 721.5 c 128,-1,26
 207 706 207 706 180.5 684 c 128,-1,27
 154 662 154 662 147 634 c 0,28,29
 142 620 142 620 148 611 c 128,-1,30
 154 602 154 602 168 602 c 0,31,32
 183 602 183 602 197 607 c 0,33,34
 208 611 208 611 224 611 c 0,35,36
 235 611 235 611 239.5 604 c 128,-1,37
 244 597 244 597 244.5 587.5 c 128,-1,38
 245 578 245 578 243.5 568.5 c 128,-1,39
 242 559 242 559 241 554 c 2,40,-1
 227 504 l 1,41,-1
 223 486 l 2,42,43
 222 482 222 482 221 477.5 c 128,-1,44
 220 473 220 473 217 468 c 2,45,-1
 180 322 l 2,46,47
 173 303 173 303 169 286 c 2,48,-1
 151 216 l 2,49,50
 151 214 151 214 147.5 204.5 c 128,-1,51
 144 195 144 195 139.5 183 c 128,-1,52
 135 171 135 171 130.5 159.5 c 128,-1,53
 126 148 126 148 124 142 c 0,54,55
 119 129 119 129 108.5 115 c 128,-1,56
 98 101 98 101 87.5 87 c 128,-1,57
 77 73 77 73 68 60 c 128,-1,58
 59 47 59 47 57 36 c 0,0,1
228 127 m 1,59,-1
 228 129 l 1,60,61
 247 208 247 208 262.5 276 c 128,-1,62
 278 344 278 344 297 415 c 2,63,-1
 331 543 l 2,64,65
 339 566 339 566 342 584 c 2,66,-1
 355 629 l 1,67,-1
 366 643 l 1,68,-1
 368 645 l 1,69,-1
 372 645 l 2,70,71
 375 645 375 645 381.5 645.5 c 128,-1,72
 388 646 388 646 390 646 c 0,73,74
 448 646 448 646 497 631 c 128,-1,75
 546 616 546 616 579 587 c 128,-1,76
 612 558 612 558 625.5 516 c 128,-1,77
 639 474 639 474 625 421 c 0,78,79
 618 397 618 397 598 364 c 128,-1,80
 578 331 578 331 549 295 c 128,-1,81
 520 259 520 259 484 224 c 128,-1,82
 448 189 448 189 410 161 c 128,-1,83
 372 133 372 133 333.5 116 c 128,-1,84
 295 99 295 99 261 99 c 0,85,86
 232 99 232 99 228 127 c 1,59,-1
EndSplineSet
Validated: 41
EndChar

StartChar: e
Encoding: 101 101 78
Width: 611
Flags: W
AnchorPoint: "top" 467 807 basechar 0
LayerCount: 2
Fore
SplineSet
26 56 m 2,0,1
 20 36 20 36 26.5 25 c 128,-1,2
 33 14 33 14 45.5 8.5 c 128,-1,3
 58 3 58 3 75.5 1.5 c 128,-1,4
 93 0 93 0 110 0 c 2,5,-1
 146 0 l 2,6,7
 162 0 162 0 202 6 c 128,-1,8
 242 12 242 12 293.5 23 c 128,-1,9
 345 34 345 34 401 49.5 c 128,-1,10
 457 65 457 65 505 85 c 128,-1,11
 553 105 553 105 586.5 128 c 128,-1,12
 620 151 620 151 627 177 c 0,13,14
 632 195 632 195 626.5 206 c 128,-1,15
 621 217 621 217 598 217 c 0,16,17
 580 217 580 217 559.5 208.5 c 128,-1,18
 539 200 539 200 518 188 c 0,19,20
 512 183 512 183 504.5 179.5 c 128,-1,21
 497 176 497 176 489 173 c 0,22,23
 418 138 418 138 339 113 c 128,-1,24
 260 88 260 88 185 88 c 2,25,-1
 167 88 l 2,26,27
 160 88 160 88 158.5 91 c 128,-1,28
 157 94 157 94 151 99 c 1,29,-1
 151 100 l 1,30,-1
 162 148 l 2,31,32
 169 174 169 174 175 195 c 128,-1,33
 181 216 181 216 187.5 236.5 c 128,-1,34
 194 257 194 257 201.5 280 c 128,-1,35
 209 303 209 303 220 334 c 1,36,-1
 220 335 l 1,37,38
 227 343 227 343 244 347.5 c 128,-1,39
 261 352 261 352 285 355 c 128,-1,40
 309 358 309 358 339 359.5 c 128,-1,41
 369 361 369 361 402 363 c 0,42,43
 449 364 449 364 498 367 c 128,-1,44
 547 370 547 370 588.5 376.5 c 128,-1,45
 630 383 630 383 658.5 395.5 c 128,-1,46
 687 408 687 408 693 428 c 0,47,48
 703 467 703 467 659 467 c 0,49,50
 619 467 619 467 579.5 463 c 128,-1,51
 540 459 540 459 499 454 c 0,52,53
 457 449 457 449 416.5 445.5 c 128,-1,54
 376 442 376 442 336 442 c 2,55,-1
 318 442 l 2,56,57
 299 442 299 442 281 444.5 c 128,-1,58
 263 447 263 447 254 458 c 1,59,-1
 254 459 l 1,60,-1
 258 476 l 2,61,62
 259 479 259 479 258.5 481 c 128,-1,63
 258 483 258 483 260 487 c 2,64,-1
 262 493 l 2,65,66
 274 538 274 538 290.5 565.5 c 128,-1,67
 307 593 307 593 331.5 608 c 128,-1,68
 356 623 356 623 390 628.5 c 128,-1,69
 424 634 424 634 472 637 c 0,70,71
 485 637 485 637 515.5 637.5 c 128,-1,72
 546 638 546 638 581 640 c 0,73,74
 619 642 619 642 651 643.5 c 128,-1,75
 683 645 683 645 697 645 c 0,76,77
 710 646 710 646 725 654 c 128,-1,78
 740 662 740 662 742 675 c 0,79,80
 748 695 748 695 739.5 707.5 c 128,-1,81
 731 720 731 720 714.5 726.5 c 128,-1,82
 698 733 698 733 676 735.5 c 128,-1,83
 654 738 654 738 633 738 c 2,84,-1
 605 738 l 2,85,86
 598 738 598 738 592 738 c 0,87,88
 587 738 587 738 582 737 c 0,89,90
 574 737 574 737 567.5 736.5 c 128,-1,91
 561 736 561 736 556 736 c 0,92,93
 470 736 470 736 387 724 c 128,-1,94
 304 712 304 712 216 685 c 0,95,96
 191 676 191 676 183.5 665 c 128,-1,97
 176 654 176 654 171 637 c 0,98,99
 163 614 163 614 165 600 c 128,-1,100
 167 586 167 586 177 563 c 1,101,-1
 78 188 l 2,102,103
 74 183 74 183 68 168 c 128,-1,104
 62 153 62 153 55 135.5 c 128,-1,105
 48 118 48 118 42 101 c 128,-1,106
 36 84 36 84 33 75 c 0,107,108
 33 74 33 74 32 72.5 c 128,-1,109
 31 71 31 71 31 70 c 2,110,-1
 28 66 l 1,111,-1
 26 56 l 2,0,1
EndSplineSet
Validated: 41
EndChar

StartChar: f
Encoding: 102 102 79
Width: 611
Flags: W
LayerCount: 2
Fore
SplineSet
26 68 m 0,0,1
 23 54 23 54 22 42 c 128,-1,2
 21 30 21 30 24.5 20.5 c 128,-1,3
 28 11 28 11 36.5 5.5 c 128,-1,4
 45 0 45 0 61 0 c 0,5,6
 79 0 79 0 96 22.5 c 128,-1,7
 113 45 113 45 129.5 78 c 128,-1,8
 146 111 146 111 161 150 c 128,-1,9
 176 189 176 189 190 222 c 0,10,11
 199 247 199 247 207 267.5 c 128,-1,12
 215 288 215 288 220 296 c 1,13,-1
 220 298 l 1,14,15
 226 306 226 306 263.5 312.5 c 128,-1,16
 301 319 301 319 352 326 c 0,17,18
 394 332 394 332 441 339 c 128,-1,19
 488 346 488 346 528 356.5 c 128,-1,20
 568 367 568 367 596.5 381.5 c 128,-1,21
 625 396 625 396 631 417 c 0,22,23
 636 437 636 437 623.5 444.5 c 128,-1,24
 611 452 611 452 591 452 c 0,25,26
 564 452 564 452 534 446.5 c 128,-1,27
 504 441 504 441 475 433 c 0,28,29
 473 432 473 432 470 431 c 128,-1,30
 467 430 467 430 464 430 c 256,31,32
 461 430 461 430 459 429.5 c 128,-1,33
 457 429 457 429 455 428 c 0,34,35
 420 417 420 417 385 410.5 c 128,-1,36
 350 404 350 404 312 404 c 2,37,-1
 276 404 l 1,38,-1
 268 417 l 2,39,40
 267 420 267 420 267.5 422 c 128,-1,41
 268 424 268 424 268 425 c 0,42,43
 269 426 269 426 269 428 c 0,44,45
 269 431 269 431 271 434 c 0,46,47
 272 437 272 437 271.5 437.5 c 128,-1,48
 271 438 271 438 271 439 c 2,49,-1
 276 458 l 2,50,51
 282 478 282 478 290.5 504.5 c 128,-1,52
 299 531 299 531 313 555.5 c 128,-1,53
 327 580 327 580 349 597.5 c 128,-1,54
 371 615 371 615 404 617 c 0,55,56
 481 628 481 628 559 633.5 c 128,-1,57
 637 639 637 639 714 642 c 0,58,59
 723 645 723 645 734.5 650.5 c 128,-1,60
 746 656 746 656 748 667 c 0,61,62
 753 685 753 685 746 695.5 c 128,-1,63
 739 706 739 706 725 711.5 c 128,-1,64
 711 717 711 717 692.5 718.5 c 128,-1,65
 674 720 674 720 656 720 c 2,66,-1
 569 720 l 2,67,68
 561 720 561 720 553 720.5 c 128,-1,69
 545 721 545 721 536 721 c 0,70,71
 496 721 496 721 450.5 718.5 c 128,-1,72
 405 716 405 716 362 707.5 c 128,-1,73
 319 699 319 699 282.5 683.5 c 128,-1,74
 246 668 246 668 225 643 c 0,75,76
 215 629 215 629 210.5 619 c 128,-1,77
 206 609 206 609 204 598 c 2,78,-1
 192 542 l 2,79,80
 190 534 190 534 184.5 515 c 128,-1,81
 179 496 179 496 171.5 475 c 128,-1,82
 164 454 164 454 157.5 436 c 128,-1,83
 151 418 151 418 148 411 c 2,84,-1
 148 408 l 1,85,86
 143 401 143 401 138.5 396 c 128,-1,87
 134 391 134 391 126 383 c 1,88,-1
 125 383 l 1,89,90
 115 372 115 372 108.5 361.5 c 128,-1,91
 102 351 102 351 98 337 c 2,92,-1
 97 334 l 2,93,94
 94 323 94 323 92.5 314.5 c 128,-1,95
 91 306 91 306 102 299 c 1,96,-1
 102 298 l 1,97,-1
 103 296 l 1,98,-1
 95 269 l 1,99,-1
 93 257 l 2,100,101
 86 234 86 234 77.5 210.5 c 128,-1,102
 69 187 69 187 61 164 c 0,103,104
 60 163 60 163 58 157 c 0,105,106
 58 155 58 155 54 151 c 0,107,108
 46 130 46 130 40 110 c 128,-1,109
 34 90 34 90 26 68 c 0,0,1
EndSplineSet
Validated: 9
EndChar

StartChar: g
Encoding: 103 103 80
Width: 662
Flags: W
LayerCount: 2
Fore
SplineSet
78 294 m 0,0,1
 61 231 61 231 70.5 177 c 128,-1,2
 80 123 80 123 112.5 84 c 128,-1,3
 145 45 145 45 199.5 22.5 c 128,-1,4
 254 0 254 0 326 0 c 0,5,6
 392 0 392 0 455 25.5 c 128,-1,7
 518 51 518 51 570 93 c 128,-1,8
 622 135 622 135 659 188.5 c 128,-1,9
 696 242 696 242 710 298 c 0,10,11
 716 318 716 318 719.5 346.5 c 128,-1,12
 723 375 723 375 719.5 401.5 c 128,-1,13
 716 428 716 428 702 446.5 c 128,-1,14
 688 465 688 465 659 465 c 0,15,16
 656 465 656 465 646 464.5 c 128,-1,17
 636 464 636 464 633 464 c 0,18,19
 624 461 624 461 600 454.5 c 128,-1,20
 576 448 576 448 549.5 440.5 c 128,-1,21
 523 433 523 433 499.5 426 c 128,-1,22
 476 419 476 419 468 415 c 0,23,24
 448 411 448 411 427.5 406.5 c 128,-1,25
 407 402 407 402 389.5 393.5 c 128,-1,26
 372 385 372 385 358.5 371.5 c 128,-1,27
 345 358 345 358 339 335 c 0,28,29
 337 326 337 326 340.5 320.5 c 128,-1,30
 344 315 344 315 350 312 c 128,-1,31
 356 309 356 309 364 308 c 128,-1,32
 372 307 372 307 380 307 c 0,33,34
 426 307 426 307 475 324.5 c 128,-1,35
 524 342 524 342 567 363 c 1,36,-1
 579 363 l 2,37,38
 590 363 590 363 599.5 354 c 128,-1,39
 609 345 609 345 607 334 c 2,40,-1
 576 226 l 2,41,42
 568 197 568 197 538 175 c 128,-1,43
 508 153 508 153 470.5 138.5 c 128,-1,44
 433 124 433 124 396 116.5 c 128,-1,45
 359 109 359 109 338 109 c 0,46,47
 299 109 299 109 265.5 121.5 c 128,-1,48
 232 134 232 134 209.5 156.5 c 128,-1,49
 187 179 187 179 178 209.5 c 128,-1,50
 169 240 169 240 180 276 c 0,51,52
 192 324 192 324 221 363.5 c 128,-1,53
 250 403 250 403 288 437.5 c 128,-1,54
 326 472 326 472 371.5 503.5 c 128,-1,55
 417 535 417 535 462 567 c 0,56,57
 474 576 474 576 491.5 586.5 c 128,-1,58
 509 597 509 597 528.5 606.5 c 128,-1,59
 548 616 548 616 567 622.5 c 128,-1,60
 586 629 586 629 601 629 c 0,61,62
 605 629 605 629 609 628.5 c 128,-1,63
 613 628 613 628 614 627 c 2,64,-1
 657 586 l 1,65,66
 657 586 657 586 661.5 585.5 c 128,-1,67
 666 585 666 585 670 585 c 0,68,69
 690 585 690 585 710 592 c 128,-1,70
 730 599 730 599 750 614 c 1,71,-1
 754 637 l 1,72,73
 767 686 767 686 740 715 c 128,-1,74
 713 744 713 744 660 744 c 0,75,76
 609 744 609 744 549.5 723 c 128,-1,77
 490 702 490 702 429 666.5 c 128,-1,78
 368 631 368 631 309 584.5 c 128,-1,79
 250 538 250 538 202.5 488 c 128,-1,80
 155 438 155 438 121.5 387.5 c 128,-1,81
 88 337 88 337 78 294 c 0,0,1
EndSplineSet
Validated: 41
EndChar

StartChar: h
Encoding: 104 104 81
Width: 629
Flags: W
LayerCount: 2
Fore
SplineSet
452 34 m 0,0,1
 446 0 446 0 482 0 c 0,2,3
 517 0 517 0 531 16 c 128,-1,4
 545 32 545 32 556 61 c 0,5,6
 561 74 561 74 567 101 c 128,-1,7
 573 128 573 128 583 162 c 2,8,-1
 602 234 l 1,9,-1
 620 308 l 2,10,11
 631 343 631 343 639 370 c 128,-1,12
 647 397 647 397 649 409 c 0,13,14
 650 413 650 413 655.5 431.5 c 128,-1,15
 661 450 661 450 668.5 472 c 128,-1,16
 676 494 676 494 683 514.5 c 128,-1,17
 690 535 690 535 693 545 c 0,18,19
 699 567 699 567 710 589.5 c 128,-1,20
 721 612 721 612 732 634.5 c 128,-1,21
 743 657 743 657 753.5 679.5 c 128,-1,22
 764 702 764 702 770 723 c 0,23,24
 775 746 775 746 768.5 759 c 128,-1,25
 762 772 762 772 735 772 c 0,26,27
 707 772 707 772 687.5 751 c 128,-1,28
 668 730 668 730 652.5 698 c 128,-1,29
 637 666 637 666 624.5 628 c 128,-1,30
 612 590 612 590 599 555.5 c 128,-1,31
 586 521 586 521 570.5 496 c 128,-1,32
 555 471 555 471 534 464 c 2,33,-1
 322 409 l 2,34,35
 314 407 314 407 303.5 405 c 128,-1,36
 293 403 293 403 290 403 c 0,37,38
 282 403 282 403 280.5 411 c 128,-1,39
 279 419 279 419 281 428 c 0,40,41
 283 436 283 436 285.5 445 c 128,-1,42
 288 454 288 454 288 455 c 0,43,44
 302 509 302 509 323.5 560.5 c 128,-1,45
 345 612 345 612 360 667 c 0,46,47
 362 674 362 674 362.5 683 c 128,-1,48
 363 692 363 692 360.5 699.5 c 128,-1,49
 358 707 358 707 351.5 712.5 c 128,-1,50
 345 718 345 718 334 718 c 0,51,52
 318 718 318 718 304 709.5 c 128,-1,53
 290 701 290 701 278 688.5 c 128,-1,54
 266 676 266 676 257.5 662 c 128,-1,55
 249 648 249 648 245 636 c 0,56,57
 244 630 244 630 237.5 609.5 c 128,-1,58
 231 589 231 589 223 565 c 128,-1,59
 215 541 215 541 208 518 c 128,-1,60
 201 495 201 495 199 485 c 0,61,62
 198 481 198 481 195.5 472.5 c 128,-1,63
 193 464 193 464 190 453.5 c 128,-1,64
 187 443 187 443 183.5 432 c 128,-1,65
 180 421 180 421 179 413 c 2,66,-1
 175 395 l 1,67,68
 163 385 163 385 148.5 379 c 128,-1,69
 134 373 134 373 120.5 367 c 128,-1,70
 107 361 107 361 96 352.5 c 128,-1,71
 85 344 85 344 80 329 c 0,72,73
 75 311 75 311 84 301.5 c 128,-1,74
 93 292 93 292 106 285.5 c 128,-1,75
 119 279 119 279 129.5 271.5 c 128,-1,76
 140 264 140 264 137 251 c 2,77,-1
 86 55 l 2,78,79
 81 38 81 38 90.5 28.5 c 128,-1,80
 100 19 100 19 117 19 c 0,81,82
 139 19 139 19 156.5 39 c 128,-1,83
 174 59 174 59 187.5 89 c 128,-1,84
 201 119 201 119 210 153.5 c 128,-1,85
 219 188 219 188 225 217 c 0,86,87
 230 239 230 239 234.5 254 c 128,-1,88
 239 269 239 269 242 278 c 1,89,90
 249 285 249 285 255.5 288 c 128,-1,91
 262 291 262 291 269 294 c 0,92,93
 290 299 290 299 317 308 c 128,-1,94
 344 317 344 317 374 326 c 128,-1,95
 404 335 404 335 433.5 341.5 c 128,-1,96
 463 348 463 348 489 348 c 0,97,98
 490 348 490 348 495 348.5 c 128,-1,99
 500 349 500 349 505 349 c 256,100,101
 510 349 510 349 514.5 347.5 c 128,-1,102
 519 346 519 346 518 342 c 0,103,104
 517 339 517 339 515.5 330 c 128,-1,105
 514 321 514 321 512.5 311 c 128,-1,106
 511 301 511 301 509.5 291.5 c 128,-1,107
 508 282 508 282 507 278 c 0,108,109
 505 269 505 269 500.5 250 c 128,-1,110
 496 231 496 231 491 207 c 128,-1,111
 486 183 486 183 479.5 156 c 128,-1,112
 473 129 473 129 468 105 c 128,-1,113
 463 81 463 81 458.5 62 c 128,-1,114
 454 43 454 43 452 34 c 0,0,1
EndSplineSet
Validated: 41
EndChar

StartChar: i
Encoding: 105 105 82
Width: 177
Flags: W
LayerCount: 2
Fore
SplineSet
13 34 m 1,0,1
 14 11 14 11 23.5 5.5 c 128,-1,2
 33 0 33 0 56 0 c 0,3,4
 76 0 76 0 92 11 c 128,-1,5
 108 22 108 22 116 40 c 0,6,7
 165 169 165 169 204 292.5 c 128,-1,8
 243 416 243 416 278 545 c 1,9,-1
 285 567 l 2,10,11
 288 580 288 580 292.5 597 c 128,-1,12
 297 614 297 614 299 627 c 2,13,-1
 306 649 l 2,14,15
 308 660 308 660 308 672 c 0,16,17
 308 685 308 685 303.5 695 c 128,-1,18
 299 705 299 705 290 711.5 c 128,-1,19
 281 718 281 718 266 718 c 0,20,21
 252 718 252 718 242 712 c 128,-1,22
 232 706 232 706 217 689 c 1,23,24
 198 617 198 617 174 544.5 c 128,-1,25
 150 472 150 472 125 399.5 c 128,-1,26
 100 327 100 327 75.5 254 c 128,-1,27
 51 181 51 181 32 109 c 1,28,-1
 29 94 l 2,29,30
 27 89 27 89 26 83 c 128,-1,31
 25 77 25 77 23 71 c 0,32,33
 21 58 21 58 16 48 c 2,34,-1
 13 34 l 1,0,1
EndSplineSet
Validated: 9
EndChar

StartChar: j
Encoding: 106 106 83
Width: 564
Flags: W
LayerCount: 2
Fore
SplineSet
49 204 m 0,0,1
 42 176 42 176 54 150.5 c 128,-1,2
 66 125 66 125 90 102.5 c 128,-1,3
 114 80 114 80 147 61 c 128,-1,4
 180 42 180 42 215 28.5 c 128,-1,5
 250 15 250 15 284 7.5 c 128,-1,6
 318 0 318 0 344 0 c 0,7,8
 376 0 376 0 406 17 c 128,-1,9
 436 34 436 34 463 60.5 c 128,-1,10
 490 87 490 87 513 121 c 128,-1,11
 536 155 536 155 554 189.5 c 128,-1,12
 572 224 572 224 584 255 c 128,-1,13
 596 286 596 286 602 308 c 2,14,-1
 666 545 l 2,15,16
 669 555 669 555 672 574.5 c 128,-1,17
 675 594 675 594 676.5 617 c 128,-1,18
 678 640 678 640 676.5 664 c 128,-1,19
 675 688 675 688 669.5 708 c 128,-1,20
 664 728 664 728 653 740.5 c 128,-1,21
 642 753 642 753 625 753 c 0,22,23
 598 753 598 753 585.5 734.5 c 128,-1,24
 573 716 573 716 568 695 c 0,25,26
 558 657 558 657 554.5 620.5 c 128,-1,27
 551 584 551 584 548.5 547 c 128,-1,28
 546 510 546 510 542.5 473.5 c 128,-1,29
 539 437 539 437 530 399 c 0,30,31
 525 381 525 381 516.5 354 c 128,-1,32
 508 327 508 327 495.5 296 c 128,-1,33
 483 265 483 265 467 234 c 128,-1,34
 451 203 451 203 431.5 178 c 128,-1,35
 412 153 412 153 388.5 137.5 c 128,-1,36
 365 122 365 122 339 122 c 0,37,38
 295 122 295 122 261 141.5 c 128,-1,39
 227 161 227 161 199 184.5 c 128,-1,40
 171 208 171 208 147.5 227.5 c 128,-1,41
 124 247 124 247 101 247 c 0,42,43
 82 247 82 247 68 233.5 c 128,-1,44
 54 220 54 220 49 204 c 0,0,1
EndSplineSet
Validated: 41
EndChar

StartChar: k
Encoding: 107 107 84
Width: 547
Flags: W
LayerCount: 2
Fore
SplineSet
17 21 m 0,0,1
 15 6 15 6 26 3 c 128,-1,2
 37 0 37 0 52 0 c 0,3,4
 77 0 77 0 96.5 24 c 128,-1,5
 116 48 116 48 131 83 c 128,-1,6
 146 118 146 118 157 157 c 128,-1,7
 168 196 168 196 177 225 c 2,8,-1
 181 244 l 2,9,10
 185 261 185 261 191 264.5 c 128,-1,11
 197 268 197 268 205 268 c 0,12,13
 234 268 234 268 258 251 c 128,-1,14
 282 234 282 234 303.5 209 c 128,-1,15
 325 184 325 184 346 154 c 128,-1,16
 367 124 367 124 389.5 99 c 128,-1,17
 412 74 412 74 437 57 c 128,-1,18
 462 40 462 40 493 40 c 0,19,20
 513 40 513 40 529 49.5 c 128,-1,21
 545 59 545 59 550 79 c 0,22,23
 555 100 555 100 538.5 123 c 128,-1,24
 522 146 522 146 495 169 c 0,25,26
 467 192 467 192 433.5 215.5 c 128,-1,27
 400 239 400 239 372.5 261.5 c 128,-1,28
 345 284 345 284 328 305 c 128,-1,29
 311 326 311 326 316 344 c 2,30,-1
 317 347 l 1,31,32
 341 364 341 364 375 389.5 c 128,-1,33
 409 415 409 415 446.5 445 c 128,-1,34
 484 475 484 475 522 508.5 c 128,-1,35
 560 542 560 542 592.5 575.5 c 128,-1,36
 625 609 625 609 648 642 c 128,-1,37
 671 675 671 675 678 703 c 0,38,39
 682 719 682 719 679 728 c 128,-1,40
 676 737 676 737 657 737 c 2,41,-1
 639 737 l 2,42,43
 635 737 635 737 631 735 c 128,-1,44
 627 733 627 733 622 731 c 0,45,46
 547 656 547 656 472 587 c 128,-1,47
 397 518 397 518 309 458 c 0,48,49
 305 455 305 455 298.5 451.5 c 128,-1,50
 292 448 292 448 285 445 c 128,-1,51
 278 442 278 442 271.5 439.5 c 128,-1,52
 265 437 265 437 261 437 c 2,53,-1
 258 437 l 2,54,55
 250 439 250 439 251 443 c 0,56,57
 253 452 253 452 257 476.5 c 128,-1,58
 261 501 261 501 266 528.5 c 128,-1,59
 271 556 271 556 275.5 580.5 c 128,-1,60
 280 605 280 605 282 614 c 0,61,62
 284 624 284 624 287 641 c 128,-1,63
 290 658 290 658 288.5 674.5 c 128,-1,64
 287 691 287 691 279 703.5 c 128,-1,65
 271 716 271 716 251 716 c 0,66,67
 239 716 239 716 227.5 709 c 128,-1,68
 216 702 216 702 205.5 691.5 c 128,-1,69
 195 681 195 681 187 669.5 c 128,-1,70
 179 658 179 658 176 649 c 2,71,-1
 147 511 l 2,72,73
 142 492 142 492 133 454 c 128,-1,74
 124 416 124 416 110 368 c 2,75,-1
 83 266 l 1,76,-1
 57 165 l 2,77,78
 43 115 43 115 32.5 77 c 128,-1,79
 22 39 22 39 17 21 c 0,0,1
EndSplineSet
Validated: 41
EndChar

StartChar: l
Encoding: 108 108 85
Width: 520
Flags: W
LayerCount: 2
Fore
SplineSet
65 227 m 1,0,-1
 58 195 l 2,1,2
 56 185 56 185 53.5 175.5 c 128,-1,3
 51 166 51 166 49 157 c 0,4,5
 46 139 46 139 40 122 c 2,6,-1
 35 105 l 2,7,8
 31 91 31 91 29.5 73 c 128,-1,9
 28 55 28 55 32.5 39 c 128,-1,10
 37 23 37 23 49 11.5 c 128,-1,11
 61 0 61 0 82 0 c 2,12,-1
 87 0 l 2,13,14
 97 1 97 1 119 4.5 c 128,-1,15
 141 8 141 8 164 12 c 128,-1,16
 187 16 187 16 207 19 c 128,-1,17
 227 22 227 22 232 23 c 0,18,19
 251 26 251 26 280.5 31.5 c 128,-1,20
 310 37 310 37 343.5 45.5 c 128,-1,21
 377 54 377 54 411.5 65 c 128,-1,22
 446 76 446 76 475 91 c 128,-1,23
 504 106 504 106 525 124 c 128,-1,24
 546 142 546 142 552 164 c 0,25,26
 558 184 558 184 549.5 191 c 128,-1,27
 541 198 541 198 515 198 c 0,28,29
 512 198 512 198 502.5 197 c 128,-1,30
 493 196 493 196 489 195 c 0,31,32
 455 183 455 183 421 170 c 128,-1,33
 387 157 387 157 353 146 c 128,-1,34
 319 135 319 135 285 128 c 128,-1,35
 251 121 251 121 217 121 c 2,36,-1
 181 121 l 1,37,38
 167 125 167 125 165.5 141.5 c 128,-1,39
 164 158 164 158 167.5 177.5 c 128,-1,40
 171 197 171 197 177 215 c 128,-1,41
 183 233 183 233 185 240 c 0,42,43
 200 300 200 300 221 359 c 128,-1,44
 242 418 242 418 264.5 476.5 c 128,-1,45
 287 535 287 535 308.5 593.5 c 128,-1,46
 330 652 330 652 345 710 c 0,47,48
 346 717 346 717 348.5 726 c 128,-1,49
 351 735 351 735 350.5 743.5 c 128,-1,50
 350 752 350 752 345.5 757.5 c 128,-1,51
 341 763 341 763 328 763 c 0,52,53
 308 763 308 763 293.5 754.5 c 128,-1,54
 279 746 279 746 268.5 733 c 128,-1,55
 258 720 258 720 251.5 705 c 128,-1,56
 245 690 245 690 241 677 c 0,57,58
 231 654 231 654 216.5 620 c 128,-1,59
 202 586 202 586 186 547.5 c 128,-1,60
 170 509 170 509 153.5 470.5 c 128,-1,61
 137 432 137 432 124 400.5 c 128,-1,62
 111 369 111 369 102.5 348 c 128,-1,63
 94 327 94 327 94 324 c 2,64,-1
 89 309 l 2,65,66
 87 301 87 301 82.5 285.5 c 128,-1,67
 78 270 78 270 72 251 c 2,68,-1
 65 227 l 1,0,-1
EndSplineSet
Validated: 41
EndChar

StartChar: m
Encoding: 109 109 86
Width: 612
Flags: W
LayerCount: 2
Fore
SplineSet
14 21 m 1,0,1
 20 14 20 14 26.5 7 c 128,-1,2
 33 0 33 0 44 0 c 0,3,4
 61 0 61 0 77.5 9.5 c 128,-1,5
 94 19 94 19 102 34 c 0,6,7
 127 100 127 100 153.5 166.5 c 128,-1,8
 180 233 180 233 211 299 c 0,9,10
 213 304 213 304 218 312 c 128,-1,11
 223 320 223 320 224 321 c 2,12,-1
 227 321 l 2,13,14
 238 321 238 321 243 307 c 128,-1,15
 248 293 248 293 250 272.5 c 128,-1,16
 252 252 252 252 253 228 c 128,-1,17
 254 204 254 204 259 183.5 c 128,-1,18
 264 163 264 163 274.5 149 c 128,-1,19
 285 135 285 135 306 135 c 0,20,21
 332 135 332 135 358 153 c 128,-1,22
 384 171 384 171 408.5 197.5 c 128,-1,23
 433 224 433 224 456 255.5 c 128,-1,24
 479 287 479 287 498.5 313.5 c 128,-1,25
 518 340 518 340 534 358 c 128,-1,26
 550 376 550 376 561 376 c 1,27,28
 561 376 561 376 562 375 c 128,-1,29
 563 374 563 374 564 374 c 1,30,31
 564 371 564 371 562.5 362.5 c 128,-1,32
 561 354 561 354 560 344 c 128,-1,33
 559 334 559 334 557.5 325 c 128,-1,34
 556 316 556 316 556 313 c 2,35,-1
 551 300 l 1,36,37
 538 249 538 249 521.5 198.5 c 128,-1,38
 505 148 505 148 491 96 c 2,39,-1
 476 40 l 1,40,41
 484 26 484 26 503 26 c 0,42,43
 518 26 518 26 530.5 35 c 128,-1,44
 543 44 543 44 557 55 c 1,45,46
 584 116 584 116 604.5 177 c 128,-1,47
 625 238 625 238 643 300 c 128,-1,48
 661 362 661 362 677 424.5 c 128,-1,49
 693 487 693 487 710 550 c 2,50,-1
 718 580 l 2,51,52
 722 591 722 591 725 602.5 c 128,-1,53
 728 614 728 614 730 625 c 0,54,55
 732 638 732 638 735 649.5 c 128,-1,56
 738 661 738 661 741 672 c 2,57,-1
 750 703 l 1,58,59
 747 737 747 737 708 737 c 0,60,61
 694 737 694 737 680 726 c 128,-1,62
 666 715 666 715 653 700.5 c 128,-1,63
 640 686 640 686 629.5 671 c 128,-1,64
 619 656 619 656 614 649 c 0,65,66
 610 643 610 643 595.5 620.5 c 128,-1,67
 581 598 581 598 564.5 572.5 c 128,-1,68
 548 547 548 547 533 525 c 128,-1,69
 518 503 518 503 513 498 c 0,70,71
 511 495 511 495 496.5 475 c 128,-1,72
 482 455 482 455 463 430 c 128,-1,73
 444 405 444 405 425.5 380 c 128,-1,74
 407 355 407 355 397 342 c 0,75,76
 394 338 394 338 389 330.5 c 128,-1,77
 384 323 384 323 378 316 c 128,-1,78
 372 309 372 309 365.5 304 c 128,-1,79
 359 299 359 299 353 299 c 0,80,81
 345 299 345 299 341 308.5 c 128,-1,82
 337 318 337 318 335 330 c 128,-1,83
 333 342 333 342 333 352 c 256,84,85
 333 362 333 362 333 363 c 0,86,87
 332 376 332 376 331 399.5 c 128,-1,88
 330 423 330 423 328.5 447 c 128,-1,89
 327 471 327 471 326.5 489.5 c 128,-1,90
 326 508 326 508 327 511 c 128,-1,91
 328 514 328 514 329.5 527.5 c 128,-1,92
 331 541 331 541 332.5 557.5 c 128,-1,93
 334 574 334 574 336 589.5 c 128,-1,94
 338 605 338 605 340 614 c 0,95,96
 340 619 340 619 342.5 633.5 c 128,-1,97
 345 648 345 648 348 664 c 2,98,-1
 359 716 l 1,99,100
 357 727 357 727 347.5 729 c 128,-1,101
 338 731 338 731 327 731 c 0,102,103
 306 731 306 731 292 719.5 c 128,-1,104
 278 708 278 708 268 689 c 0,105,106
 264 679 264 679 255 658.5 c 128,-1,107
 246 638 246 638 236 616.5 c 128,-1,108
 226 595 226 595 218 576.5 c 128,-1,109
 210 558 210 558 209 552 c 0,110,111
 206 543 206 543 196 515 c 128,-1,112
 186 487 186 487 172.5 450 c 128,-1,113
 159 413 159 413 143.5 371 c 128,-1,114
 128 329 128 329 114.5 292 c 128,-1,115
 101 255 101 255 90.5 228 c 128,-1,116
 80 201 80 201 77 192 c 0,117,118
 76 189 76 189 70 175.5 c 128,-1,119
 64 162 64 162 57 146.5 c 128,-1,120
 50 131 50 131 44 117.5 c 128,-1,121
 38 104 38 104 37 101 c 2,122,-1
 37 97 l 2,123,124
 34 90 34 90 32 84.5 c 128,-1,125
 30 79 30 79 28 71 c 2,126,-1
 25 61 l 1,127,-1
 23 52 l 2,128,129
 21 48 21 48 20 42 c 128,-1,130
 19 36 19 36 16 29 c 2,131,-1
 14 21 l 1,0,1
EndSplineSet
Validated: 9
EndChar

StartChar: n
Encoding: 110 110 87
Width: 517
Flags: W
LayerCount: 2
Fore
SplineSet
24 68 m 0,0,1
 23 57 23 57 23.5 45 c 128,-1,2
 24 33 24 33 27.5 23 c 128,-1,3
 31 13 31 13 39.5 6.5 c 128,-1,4
 48 0 48 0 64 0 c 0,5,6
 75 0 75 0 92.5 6.5 c 128,-1,7
 110 13 110 13 114 27 c 2,8,-1
 194 334 l 1,9,-1
 217 334 l 1,10,11
 217 334 217 334 221 320 c 128,-1,12
 225 306 225 306 231 286.5 c 128,-1,13
 237 267 237 267 243 246 c 128,-1,14
 249 225 249 225 253 212 c 2,15,-1
 271 136 l 2,16,17
 273 131 273 131 277 117.5 c 128,-1,18
 281 104 281 104 285 89 c 128,-1,19
 289 74 289 74 293 60 c 128,-1,20
 297 46 297 46 299 40 c 0,21,22
 312 19 312 19 341 19 c 0,23,24
 354 19 354 19 365 26.5 c 128,-1,25
 376 34 376 34 384.5 44.5 c 128,-1,26
 393 55 393 55 399.5 67 c 128,-1,27
 406 79 406 79 410 88 c 0,28,29
 444 163 444 163 478.5 237 c 128,-1,30
 513 311 513 311 545 385 c 128,-1,31
 577 459 577 459 605 534 c 128,-1,32
 633 609 633 609 654 686 c 1,33,-1
 668 751 l 2,34,35
 671 767 671 767 661.5 779.5 c 128,-1,36
 652 792 652 792 633 792 c 0,37,38
 618 792 618 792 605.5 781.5 c 128,-1,39
 593 771 593 771 583.5 757 c 128,-1,40
 574 743 574 743 567.5 728 c 128,-1,41
 561 713 561 713 557 703 c 0,42,43
 552 689 552 689 541 660 c 128,-1,44
 530 631 530 631 517 595 c 128,-1,45
 504 559 504 559 489.5 518.5 c 128,-1,46
 475 478 475 478 461.5 442 c 128,-1,47
 448 406 448 406 438 377 c 128,-1,48
 428 348 428 348 423 334 c 0,49,50
 419 325 419 325 412 308 c 128,-1,51
 405 291 405 291 396.5 273.5 c 128,-1,52
 388 256 388 256 378 243 c 128,-1,53
 368 230 368 230 357 230 c 0,54,55
 343 230 343 230 344 239 c 128,-1,56
 345 248 345 248 341 260 c 0,57,58
 333 298 333 298 326 342.5 c 128,-1,59
 319 387 319 387 316 422 c 0,60,61
 316 431 316 431 316 453 c 0,62,63
 316 476 316 476 316.5 500 c 128,-1,64
 317 524 317 524 317.5 545 c 128,-1,65
 318 566 318 566 318 573 c 0,66,67
 318 581 318 581 321.5 602.5 c 128,-1,68
 325 624 325 624 329.5 648 c 128,-1,69
 334 672 334 672 338 693.5 c 128,-1,70
 342 715 342 715 344 723 c 0,71,72
 343 737 343 737 330.5 747 c 128,-1,73
 318 757 318 757 303 757 c 256,74,75
 288 757 288 757 274 745.5 c 128,-1,76
 260 734 260 734 253 723 c 0,77,78
 188 586 188 586 138 448.5 c 128,-1,79
 88 311 88 311 50 170 c 1,80,-1
 45 149 l 2,81,82
 42 138 42 138 39.5 127 c 128,-1,83
 37 116 37 116 34 103 c 128,-1,84
 31 90 31 90 29 81.5 c 128,-1,85
 27 73 27 73 24 68 c 0,0,1
EndSplineSet
Validated: 9
EndChar

StartChar: o
Encoding: 111 111 88
Width: 702
Flags: W
AnchorPoint: "top" 607 807 basechar 0
LayerCount: 2
Fore
SplineSet
74 283 m 0,0,1
 62 239 62 239 60 194.5 c 128,-1,2
 58 150 58 150 69 111 c 128,-1,3
 80 72 80 72 107.5 42.5 c 128,-1,4
 135 13 135 13 183 0 c 1,5,-1
 251 0 l 2,6,7
 311 0 311 0 364.5 15.5 c 128,-1,8
 418 31 418 31 465 59.5 c 128,-1,9
 512 88 512 88 554 128 c 128,-1,10
 596 168 596 168 634 217 c 0,11,12
 684 281 684 281 726.5 344.5 c 128,-1,13
 769 408 769 408 788 478 c 0,14,15
 800 521 800 521 797 566 c 128,-1,16
 794 611 794 611 774.5 647.5 c 128,-1,17
 755 684 755 684 718.5 707.5 c 128,-1,18
 682 731 682 731 627 731 c 0,19,20
 602 731 602 731 577.5 724.5 c 128,-1,21
 553 718 553 718 529 710 c 0,22,23
 448 679 448 679 374 636.5 c 128,-1,24
 300 594 300 594 240 541 c 128,-1,25
 180 488 180 488 137 423.5 c 128,-1,26
 94 359 94 359 74 283 c 0,0,1
168 261 m 0,27,28
 184 323 184 323 224 388 c 128,-1,29
 264 453 264 453 320.5 506 c 128,-1,30
 377 559 377 559 447 593 c 128,-1,31
 517 627 517 627 594 627 c 0,32,33
 632 627 632 627 655 612 c 128,-1,34
 678 597 678 597 689 573 c 128,-1,35
 700 549 700 549 700.5 519.5 c 128,-1,36
 701 490 701 490 693 461 c 0,37,38
 685 431 685 431 662.5 391.5 c 128,-1,39
 640 352 640 352 606.5 310 c 128,-1,40
 573 268 573 268 532 227 c 128,-1,41
 491 186 491 186 447 153.5 c 128,-1,42
 403 121 403 121 359 101 c 128,-1,43
 315 81 315 81 276 81 c 0,44,45
 231 81 231 81 205 96 c 128,-1,46
 179 111 179 111 167.5 136 c 128,-1,47
 156 161 156 161 157.5 193.5 c 128,-1,48
 159 226 159 226 168 261 c 0,27,28
EndSplineSet
Validated: 41
EndChar

StartChar: p
Encoding: 112 112 89
Width: 615
Flags: W
LayerCount: 2
Fore
SplineSet
16 26 m 1,0,1
 21 15 21 15 26 7.5 c 128,-1,2
 31 0 31 0 45 0 c 0,3,4
 54 0 54 0 64 2.5 c 128,-1,5
 74 5 74 5 83 9 c 128,-1,6
 92 13 92 13 99 19 c 128,-1,7
 106 25 106 25 108 32 c 2,8,-1
 166 191 l 2,9,10
 166 194 166 194 192 202.5 c 128,-1,11
 218 211 218 211 257.5 224.5 c 128,-1,12
 297 238 297 238 346 255.5 c 128,-1,13
 395 273 395 273 442.5 293.5 c 128,-1,14
 490 314 490 314 530.5 338 c 128,-1,15
 571 362 571 362 594 389 c 0,16,17
 617 415 617 415 638.5 439 c 128,-1,18
 660 463 660 463 678 487 c 128,-1,19
 696 511 696 511 710 536.5 c 128,-1,20
 724 562 724 562 732 591 c 0,21,22
 742 630 742 630 732 659.5 c 128,-1,23
 722 689 722 689 698 709.5 c 128,-1,24
 674 730 674 730 639 740.5 c 128,-1,25
 604 751 604 751 564 751 c 0,26,27
 541 751 541 751 505.5 748 c 128,-1,28
 470 745 470 745 430.5 738 c 128,-1,29
 391 731 391 731 350 720 c 128,-1,30
 309 709 309 709 275 693.5 c 128,-1,31
 241 678 241 678 216.5 658 c 128,-1,32
 192 638 192 638 185 612 c 0,33,34
 183 602 183 602 184.5 593.5 c 128,-1,35
 186 585 186 585 189 577 c 128,-1,36
 192 569 192 569 193.5 560.5 c 128,-1,37
 195 552 195 552 193 543 c 0,38,39
 177 486 177 486 155 428 c 128,-1,40
 133 370 133 370 110 312 c 128,-1,41
 87 254 87 254 66 195 c 128,-1,42
 45 136 45 136 30 78 c 1,43,-1
 26 68 l 1,44,-1
 20 36 l 1,45,-1
 16 26 l 1,0,1
215 321 m 1,46,-1
 221 344 l 1,47,-1
 226 368 l 2,48,49
 232 381 232 381 242.5 410 c 128,-1,50
 253 439 253 439 263.5 470 c 128,-1,51
 274 501 274 501 283 528 c 128,-1,52
 292 555 292 555 295 565 c 0,53,54
 308 600 308 600 336 621 c 128,-1,55
 364 642 364 642 399.5 653 c 128,-1,56
 435 664 435 664 473.5 667.5 c 128,-1,57
 512 671 512 671 545 671 c 2,58,-1
 554 671 l 2,59,60
 561 671 561 671 568.5 670 c 128,-1,61
 576 669 576 669 583 669 c 2,62,-1
 593 669 l 2,63,64
 608 668 608 668 616.5 660 c 128,-1,65
 625 652 625 652 628 641 c 128,-1,66
 631 630 631 630 630 616.5 c 128,-1,67
 629 603 629 603 625 591 c 0,68,69
 611 538 611 538 570.5 488.5 c 128,-1,70
 530 439 530 439 474.5 401 c 128,-1,71
 419 363 419 363 355.5 339.5 c 128,-1,72
 292 316 292 316 232 316 c 2,73,-1
 229 316 l 2,74,75
 227 316 227 316 221.5 318.5 c 128,-1,76
 216 321 216 321 215 321 c 1,46,-1
EndSplineSet
Validated: 41
EndChar

StartChar: q
Encoding: 113 113 90
Width: 784
Flags: W
LayerCount: 2
Fore
SplineSet
505 53 m 0,0,1
 523 53 523 53 531 41 c 128,-1,2
 539 29 539 29 545.5 15 c 128,-1,3
 552 1 552 1 561 -11 c 128,-1,4
 570 -23 570 -23 590 -23 c 0,5,6
 618 -23 618 -23 625.5 -11 c 128,-1,7
 633 1 633 1 639 26 c 0,8,9
 642 36 642 36 642 45 c 0,10,11
 642 55 642 55 641.5 64 c 128,-1,12
 641 73 641 73 640 82 c 128,-1,13
 639 91 639 91 641 101 c 0,14,15
 643 110 643 110 645.5 112.5 c 128,-1,16
 648 115 648 115 658 123 c 0,17,18
 685 153 685 153 714 183.5 c 128,-1,19
 743 214 743 214 769 246 c 128,-1,20
 795 278 795 278 815.5 311.5 c 128,-1,21
 836 345 836 345 847 383 c 0,22,23
 863 447 863 447 856.5 507 c 128,-1,24
 850 567 850 567 821.5 613.5 c 128,-1,25
 793 660 793 660 742.5 688 c 128,-1,26
 692 716 692 716 620 716 c 2,27,-1
 606 716 l 2,28,29
 593 716 593 716 576.5 715 c 128,-1,30
 560 714 560 714 555 714 c 0,31,32
 475 698 475 698 397 653.5 c 128,-1,33
 319 609 319 609 253 548 c 128,-1,34
 187 487 187 487 139.5 416 c 128,-1,35
 92 345 92 345 73 276 c 0,36,37
 60 228 60 228 62.5 177 c 128,-1,38
 65 126 65 126 84.5 84.5 c 128,-1,39
 104 43 104 43 142.5 16.5 c 128,-1,40
 181 -10 181 -10 241 -10 c 0,41,42
 278 -10 278 -10 315.5 0 c 128,-1,43
 353 10 353 10 387.5 21.5 c 128,-1,44
 422 33 422 33 452.5 43 c 128,-1,45
 483 53 483 53 505 53 c 0,0,1
193 268 m 0,46,47
 209 326 209 326 241 373.5 c 128,-1,48
 273 421 273 421 316 460.5 c 128,-1,49
 359 500 359 500 412 532.5 c 128,-1,50
 465 565 465 565 524 595 c 0,51,52
 539 603 539 603 556 607 c 128,-1,53
 573 611 573 611 588 611 c 0,54,55
 634 611 634 611 666 590 c 128,-1,56
 698 569 698 569 716.5 536.5 c 128,-1,57
 735 504 735 504 739.5 464 c 128,-1,58
 744 424 744 424 735 387 c 0,59,60
 731 374 731 374 717 346 c 128,-1,61
 703 318 703 318 684.5 289.5 c 128,-1,62
 666 261 666 261 644 239.5 c 128,-1,63
 622 218 622 218 602 218 c 0,64,65
 585 218 585 218 574 230 c 128,-1,66
 563 242 563 242 555 260 c 128,-1,67
 547 278 547 278 539.5 299.5 c 128,-1,68
 532 321 532 321 521 339 c 128,-1,69
 510 357 510 357 493.5 369 c 128,-1,70
 477 381 477 381 451 381 c 0,71,72
 428 381 428 381 417.5 373 c 128,-1,73
 407 365 407 365 402 342 c 0,74,75
 394 313 394 313 406 289 c 128,-1,76
 418 265 418 265 433.5 242.5 c 128,-1,77
 449 220 449 220 461.5 199 c 128,-1,78
 474 178 474 178 468 157 c 0,79,80
 464 142 464 142 440.5 130 c 128,-1,81
 417 118 417 118 388 109.5 c 128,-1,82
 359 101 359 101 330.5 96.5 c 128,-1,83
 302 92 302 92 289 92 c 0,84,85
 248 92 248 92 225 107 c 128,-1,86
 202 122 202 122 192 146.5 c 128,-1,87
 182 171 182 171 183.5 203 c 128,-1,88
 185 235 185 235 193 268 c 0,46,47
EndSplineSet
Validated: 41
EndChar

StartChar: r
Encoding: 114 114 91
Width: 582
Flags: W
LayerCount: 2
Fore
SplineSet
20 38 m 1,0,1
 24 22 24 22 30.5 11 c 128,-1,2
 37 0 37 0 60 0 c 0,3,4
 86 0 86 0 95.5 11.5 c 128,-1,5
 105 23 105 23 112 43 c 0,6,7
 115 51 115 51 122.5 71 c 128,-1,8
 130 91 130 91 138.5 112.5 c 128,-1,9
 147 134 147 134 154.5 154 c 128,-1,10
 162 174 162 174 165 182 c 0,11,12
 170 187 170 187 182 187 c 0,13,14
 189 187 189 187 193.5 186.5 c 128,-1,15
 198 186 198 186 204 182 c 0,16,17
 226 155 226 155 250 130 c 128,-1,18
 274 105 274 105 303 85.5 c 128,-1,19
 332 66 332 66 368 54.5 c 128,-1,20
 404 43 404 43 450 43 c 0,21,22
 457 43 457 43 468 43.5 c 128,-1,23
 479 44 479 44 490 46 c 128,-1,24
 501 48 501 48 510 53.5 c 128,-1,25
 519 59 519 59 522 68 c 0,26,27
 526 85 526 85 510.5 97.5 c 128,-1,28
 495 110 495 110 469.5 120.5 c 128,-1,29
 444 131 444 131 414.5 141.5 c 128,-1,30
 385 152 385 152 361 165 c 128,-1,31
 337 178 337 178 323 195 c 128,-1,32
 309 212 309 212 315 235 c 0,33,34
 315 237 315 237 316.5 240 c 128,-1,35
 318 243 318 243 318 244 c 0,36,37
 383 290 383 290 450.5 332 c 128,-1,38
 518 374 518 374 586 420 c 1,39,40
 630 456 630 456 656.5 489.5 c 128,-1,41
 683 523 683 523 696 569 c 2,42,-1
 698 578 l 2,43,44
 700 586 700 586 701 591.5 c 128,-1,45
 702 597 702 597 704 604 c 2,46,-1
 707 614 l 1,47,48
 706 635 706 635 689 648.5 c 128,-1,49
 672 662 672 662 647.5 669 c 128,-1,50
 623 676 623 676 595.5 678.5 c 128,-1,51
 568 681 568 681 547 681 c 0,52,53
 533 681 533 681 504.5 678 c 128,-1,54
 476 675 476 675 441 670.5 c 128,-1,55
 406 666 406 666 368 659.5 c 128,-1,56
 330 653 330 653 297 645.5 c 128,-1,57
 264 638 264 638 241 630 c 128,-1,58
 218 622 218 622 213 614 c 0,59,60
 198 593 198 593 194 573.5 c 128,-1,61
 190 554 190 554 183 532 c 0,62,63
 180 524 180 524 170.5 498 c 128,-1,64
 161 472 161 472 149 437 c 128,-1,65
 137 402 137 402 122.5 363 c 128,-1,66
 108 324 108 324 96 289 c 128,-1,67
 84 254 84 254 74.5 228.5 c 128,-1,68
 65 203 65 203 62 195 c 2,69,-1
 58 183 l 2,70,71
 56 172 56 172 52.5 159.5 c 128,-1,72
 49 147 49 147 46 136 c 2,73,-1
 41 116 l 1,74,-1
 35 101 l 1,75,-1
 30 75 l 2,76,77
 28 70 28 70 27 64 c 128,-1,78
 26 58 26 58 24 53 c 2,79,-1
 20 38 l 1,0,1
207 307 m 2,80,-1
 209 316 l 2,81,82
 211 323 211 323 212.5 329.5 c 128,-1,83
 214 336 214 336 216 343 c 2,84,-1
 218 352 l 2,85,86
 237 423 237 423 253.5 469 c 128,-1,87
 270 515 270 515 301 542 c 128,-1,88
 332 569 332 569 385 579.5 c 128,-1,89
 438 590 438 590 529 590 c 2,90,-1
 534 590 l 2,91,92
 542 590 542 590 546.5 589.5 c 128,-1,93
 551 589 551 589 555 589 c 2,94,-1
 564 589 l 2,95,96
 575 586 575 586 575 580 c 0,97,98
 575 575 575 575 573 567 c 0,99,100
 570 554 570 554 546.5 529.5 c 128,-1,101
 523 505 523 505 488 475 c 128,-1,102
 453 445 453 445 411.5 414 c 128,-1,103
 370 383 370 383 331 357.5 c 128,-1,104
 292 332 292 332 261 316 c 128,-1,105
 230 300 230 300 216 300 c 0,106,107
 215 300 215 300 213.5 301 c 128,-1,108
 212 302 212 302 212 302 c 2,109,110
 209 302 209 302 207 307 c 2,80,-1
EndSplineSet
Validated: 41
EndChar

StartChar: s
Encoding: 115 115 92
Width: 719
Flags: W
LayerCount: 2
Fore
SplineSet
52 181 m 0,0,1
 44 151 44 151 53.5 126 c 128,-1,2
 63 101 63 101 83.5 81 c 128,-1,3
 104 61 104 61 133 46 c 128,-1,4
 162 31 162 31 194 20.5 c 128,-1,5
 226 10 226 10 258 5 c 128,-1,6
 290 0 290 0 316 0 c 0,7,8
 380 0 380 0 452 21.5 c 128,-1,9
 524 43 524 43 588 81 c 128,-1,10
 652 119 652 119 700.5 172 c 128,-1,11
 749 225 749 225 766 287 c 0,12,13
 776 332 776 332 759 366 c 128,-1,14
 742 400 742 400 709 423.5 c 128,-1,15
 676 447 676 447 633.5 460.5 c 128,-1,16
 591 474 591 474 550 478 c 2,17,-1
 341 490 l 2,18,19
 330 493 330 493 321 496.5 c 128,-1,20
 312 500 312 500 314 511 c 0,21,22
 316 514 316 514 317 515.5 c 128,-1,23
 318 517 318 517 318 519 c 0,24,25
 351 544 351 544 387 566 c 128,-1,26
 423 588 423 588 461 605 c 128,-1,27
 499 622 499 622 538.5 632 c 128,-1,28
 578 642 578 642 617 642 c 0,29,30
 632 642 632 642 645 638.5 c 128,-1,31
 658 635 658 635 670 631 c 128,-1,32
 682 627 682 627 694.5 623.5 c 128,-1,33
 707 620 707 620 721 620 c 0,34,35
 740 620 740 620 750 631 c 128,-1,36
 760 642 760 642 764 658 c 0,37,38
 770 677 770 677 763.5 695.5 c 128,-1,39
 757 714 757 714 743 727.5 c 128,-1,40
 729 741 729 741 709.5 749.5 c 128,-1,41
 690 758 690 758 669 758 c 0,42,43
 637 758 637 758 590 748.5 c 128,-1,44
 543 739 543 739 490.5 721.5 c 128,-1,45
 438 704 438 704 384 680 c 128,-1,46
 330 656 330 656 285 627 c 128,-1,47
 240 598 240 598 208.5 565 c 128,-1,48
 177 532 177 532 168 498 c 0,49,50
 162 475 162 475 168.5 458 c 128,-1,51
 175 441 175 441 190.5 429 c 128,-1,52
 206 417 206 417 227.5 410.5 c 128,-1,53
 249 404 249 404 272 403 c 2,54,-1
 538 374 l 2,55,56
 556 372 556 372 579 363.5 c 128,-1,57
 602 355 602 355 620.5 341 c 128,-1,58
 639 327 639 327 649.5 308.5 c 128,-1,59
 660 290 660 290 654 268 c 0,60,61
 649 249 649 249 629 230 c 128,-1,62
 609 211 609 211 580.5 193 c 128,-1,63
 552 175 552 175 518 160 c 128,-1,64
 484 145 484 145 451 133.5 c 128,-1,65
 418 122 418 122 389 115.5 c 128,-1,66
 360 109 360 109 341 109 c 0,67,68
 304 109 304 109 273.5 119 c 128,-1,69
 243 129 243 129 218 146 c 128,-1,70
 193 163 193 163 172.5 185 c 128,-1,71
 152 207 152 207 136 231 c 0,72,73
 133 231 133 231 126.5 232 c 128,-1,74
 120 233 120 233 118 233 c 0,75,76
 90 233 90 233 74.5 219 c 128,-1,77
 59 205 59 205 52 181 c 0,0,1
EndSplineSet
Validated: 41
EndChar

StartChar: t
Encoding: 116 116 93
Width: 595
Flags: W
LayerCount: 2
Fore
SplineSet
264 183 m 2,0,-1
 256 152 l 2,1,2
 250 128 250 128 245.5 101 c 128,-1,3
 241 74 241 74 244 51.5 c 128,-1,4
 247 29 247 29 260 14.5 c 128,-1,5
 273 0 273 0 302 0 c 0,6,7
 326 0 326 0 339 10.5 c 128,-1,8
 352 21 352 21 357 42 c 0,9,10
 363 67 363 67 365.5 90.5 c 128,-1,11
 368 114 368 114 369.5 138 c 128,-1,12
 371 162 371 162 374 185.5 c 128,-1,13
 377 209 377 209 384 234 c 0,14,15
 388 251 388 251 398 284 c 128,-1,16
 408 317 408 317 422 357 c 128,-1,17
 436 397 436 397 453 439.5 c 128,-1,18
 470 482 470 482 488 520 c 128,-1,19
 506 558 506 558 524 586.5 c 128,-1,20
 542 615 542 615 557 627 c 0,21,22
 574 640 574 640 599.5 645.5 c 128,-1,23
 625 651 625 651 653.5 653 c 128,-1,24
 682 655 682 655 711 656.5 c 128,-1,25
 740 658 740 658 765 663.5 c 128,-1,26
 790 669 790 669 808 681 c 128,-1,27
 826 693 826 693 832 716 c 0,28,29
 837 732 837 732 832.5 742 c 128,-1,30
 828 752 828 752 817.5 756.5 c 128,-1,31
 807 761 807 761 792.5 762.5 c 128,-1,32
 778 764 778 764 764 764 c 0,33,34
 751 764 751 764 717.5 759 c 128,-1,35
 684 754 684 754 637.5 745.5 c 128,-1,36
 591 737 591 737 536 725.5 c 128,-1,37
 481 714 481 714 425.5 701.5 c 128,-1,38
 370 689 370 689 318 675 c 128,-1,39
 266 661 266 661 225.5 648 c 128,-1,40
 185 635 185 635 159.5 623.5 c 128,-1,41
 134 612 134 612 132 603 c 0,42,43
 127 584 127 584 132.5 572 c 128,-1,44
 138 560 138 560 159 552 c 1,45,-1
 199 552 l 2,46,47
 222 552 222 552 245.5 557.5 c 128,-1,48
 269 563 269 563 293 570 c 128,-1,49
 317 577 317 577 341 582.5 c 128,-1,50
 365 588 365 588 388 588 c 0,51,52
 392 588 392 588 396.5 587.5 c 128,-1,53
 401 587 401 587 399 580 c 2,54,-1
 392 545 l 1,55,56
 378 500 378 500 361 455 c 128,-1,57
 344 410 344 410 326.5 365.5 c 128,-1,58
 309 321 309 321 292.5 275.5 c 128,-1,59
 276 230 276 230 264 183 c 2,0,-1
EndSplineSet
Validated: 41
EndChar

StartChar: u
Encoding: 117 117 94
Width: 543
Flags: W
AnchorPoint: "top" 433 773 basechar 0
LayerCount: 2
Fore
SplineSet
50 177 m 2,0,1
 44 139 44 139 54 107 c 128,-1,2
 64 75 64 75 87.5 51 c 128,-1,3
 111 27 111 27 145.5 13.5 c 128,-1,4
 180 0 180 0 222 0 c 0,5,6
 263 0 263 0 306.5 10.5 c 128,-1,7
 350 21 350 21 390.5 41 c 128,-1,8
 431 61 431 61 465.5 90 c 128,-1,9
 500 119 500 119 522 157 c 1,10,11
 527 174 527 174 537.5 208.5 c 128,-1,12
 548 243 548 243 561 287 c 128,-1,13
 574 331 574 331 588 379 c 128,-1,14
 602 427 602 427 615 471 c 128,-1,15
 628 515 628 515 638.5 550 c 128,-1,16
 649 585 649 585 654 602 c 2,17,-1
 666 651 l 1,18,-1
 681 703 l 2,19,20
 683 724 683 724 669 734 c 128,-1,21
 655 744 655 744 632 744 c 0,22,23
 615 744 615 744 598.5 733 c 128,-1,24
 582 722 582 722 574 703 c 2,25,-1
 426 192 l 2,26,27
 419 173 419 173 402 156 c 128,-1,28
 385 139 385 139 363.5 125.5 c 128,-1,29
 342 112 342 112 319 104 c 128,-1,30
 296 96 296 96 277 96 c 0,31,32
 239 96 239 96 218 109 c 128,-1,33
 197 122 197 122 187.5 143.5 c 128,-1,34
 178 165 178 165 177.5 192.5 c 128,-1,35
 177 220 177 220 182 248.5 c 128,-1,36
 187 277 187 277 195 305 c 128,-1,37
 203 333 203 333 209 355 c 0,38,39
 229 432 229 432 257 505.5 c 128,-1,40
 285 579 285 579 304 653 c 0,41,42
 312 679 312 679 302 694.5 c 128,-1,43
 292 710 292 710 260 710 c 0,44,45
 232 710 232 710 214 690.5 c 128,-1,46
 196 671 196 671 184.5 645 c 128,-1,47
 173 619 173 619 166.5 592.5 c 128,-1,48
 160 566 160 566 156 552 c 0,49,50
 152 540 152 540 143 512 c 128,-1,51
 134 484 134 484 124.5 452.5 c 128,-1,52
 115 421 115 421 106.5 393 c 128,-1,53
 98 365 98 365 96 355 c 2,54,-1
 94 343 l 2,55,56
 90 332 90 332 85.5 317.5 c 128,-1,57
 81 303 81 303 77 289 c 2,58,-1
 71 266 l 1,59,-1
 66 247 l 1,60,-1
 60 221 l 2,61,62
 58 214 58 214 56.5 207.5 c 128,-1,63
 55 201 55 201 53 194 c 2,64,-1
 50 177 l 2,0,1
EndSplineSet
Validated: 41
EndChar

StartChar: v
Encoding: 118 118 95
Width: 555
Flags: W
LayerCount: 2
Fore
SplineSet
156 649 m 0,0,1
 139 590 139 590 131.5 526.5 c 128,-1,2
 124 463 124 463 122 399 c 128,-1,3
 120 335 120 335 121.5 273.5 c 128,-1,4
 123 212 123 212 125 157 c 0,5,6
 124 115 124 115 131 72 c 128,-1,7
 138 29 138 29 168 0 c 0,8,9
 171 0 171 0 181.5 -1.5 c 128,-1,10
 192 -3 192 -3 197 -3 c 0,11,12
 226 -3 226 -3 252.5 14 c 128,-1,13
 279 31 279 31 301.5 55.5 c 128,-1,14
 324 80 324 80 340.5 107.5 c 128,-1,15
 357 135 357 135 367 157 c 0,16,17
 370 163 370 163 382 188 c 128,-1,18
 394 213 394 213 408 242 c 128,-1,19
 422 271 422 271 434.5 296.5 c 128,-1,20
 447 322 447 322 451 328 c 0,21,22
 456 338 456 338 469 360.5 c 128,-1,23
 482 383 482 383 498.5 411.5 c 128,-1,24
 515 440 515 440 533.5 471.5 c 128,-1,25
 552 503 552 503 569 532.5 c 128,-1,26
 586 562 586 562 599 585 c 128,-1,27
 612 608 612 608 619 620 c 0,28,29
 625 630 625 630 638.5 647 c 128,-1,30
 652 664 652 664 666.5 683 c 128,-1,31
 681 702 681 702 693.5 721 c 128,-1,32
 706 740 706 740 711 754 c 0,33,34
 716 773 716 773 706 786 c 128,-1,35
 696 799 696 799 676 799 c 0,36,37
 650 799 650 799 625.5 781 c 128,-1,38
 601 763 601 763 580 737.5 c 128,-1,39
 559 712 559 712 543 685.5 c 128,-1,40
 527 659 527 659 518 641 c 0,41,42
 512 631 512 631 501 612.5 c 128,-1,43
 490 594 490 594 479 575.5 c 128,-1,44
 468 557 468 557 459.5 542.5 c 128,-1,45
 451 528 451 528 451 525 c 0,46,47
 444 513 444 513 431 488.5 c 128,-1,48
 418 464 418 464 402 433 c 128,-1,49
 386 402 386 402 369 368 c 128,-1,50
 352 334 352 334 336.5 303 c 128,-1,51
 321 272 321 272 309 247.5 c 128,-1,52
 297 223 297 223 292 212 c 0,53,54
 292 210 292 210 287.5 204.5 c 128,-1,55
 283 199 283 199 277.5 192 c 128,-1,56
 272 185 272 185 265.5 180 c 128,-1,57
 259 175 259 175 255 175 c 0,58,59
 240 175 240 175 236.5 198.5 c 128,-1,60
 233 222 233 222 235.5 260 c 128,-1,61
 238 298 238 298 245.5 347 c 128,-1,62
 253 396 253 396 260 446.5 c 128,-1,63
 267 497 267 497 272 546 c 128,-1,64
 277 595 277 595 275 633 c 128,-1,65
 273 671 273 671 262 694.5 c 128,-1,66
 251 718 251 718 227 718 c 0,67,68
 210 718 210 718 197.5 711.5 c 128,-1,69
 185 705 185 705 176.5 695 c 128,-1,70
 168 685 168 685 163 672.5 c 128,-1,71
 158 660 158 660 156 649 c 0,0,1
EndSplineSet
Validated: 41
EndChar

StartChar: w
Encoding: 119 119 96
Width: 790
Flags: W
LayerCount: 2
Fore
SplineSet
64 237 m 0,0,1
 46 163 46 163 67 105.5 c 128,-1,2
 88 48 88 48 140 0 c 1,3,-1
 159 0 l 2,4,5
 177 0 177 0 195 4.5 c 128,-1,6
 213 9 213 9 228 21 c 2,7,-1
 398 143 l 1,8,-1
 420 143 l 1,9,10
 423 136 423 136 431.5 120.5 c 128,-1,11
 440 105 440 105 450 88 c 128,-1,12
 460 71 460 71 469.5 55.5 c 128,-1,13
 479 40 479 40 483 34 c 0,14,15
 490 23 490 23 493.5 16 c 128,-1,16
 497 9 497 9 501 5.5 c 128,-1,17
 505 2 505 2 511 0.5 c 128,-1,18
 517 -1 517 -1 528 -1 c 0,19,20
 560 -1 560 -1 591 16.5 c 128,-1,21
 622 34 622 34 651 62.5 c 128,-1,22
 680 91 680 91 706 126.5 c 128,-1,23
 732 162 732 162 752.5 197.5 c 128,-1,24
 773 233 773 233 787.5 266 c 128,-1,25
 802 299 802 299 808 321 c 0,26,27
 812 333 812 333 819.5 358.5 c 128,-1,28
 827 384 827 384 836 416.5 c 128,-1,29
 845 449 845 449 855 484.5 c 128,-1,30
 865 520 865 520 874 552.5 c 128,-1,31
 883 585 883 585 890.5 611 c 128,-1,32
 898 637 898 637 902 649 c 0,33,34
 913 667 913 667 917.5 679 c 128,-1,35
 922 691 922 691 927 710 c 0,36,37
 935 733 935 733 929.5 752.5 c 128,-1,38
 924 772 924 772 893 772 c 0,39,40
 878 772 878 772 864.5 765 c 128,-1,41
 851 758 851 758 840 747 c 128,-1,42
 829 736 829 736 821.5 722 c 128,-1,43
 814 708 814 708 811 695 c 2,44,-1
 690 308 l 2,45,46
 686 295 686 295 674.5 268.5 c 128,-1,47
 663 242 663 242 648 215 c 128,-1,48
 633 188 633 188 615.5 168 c 128,-1,49
 598 148 598 148 582 148 c 0,50,51
 568 148 568 148 559 159 c 128,-1,52
 550 170 550 170 545 185.5 c 128,-1,53
 540 201 540 201 538.5 218 c 128,-1,54
 537 235 537 235 538 246 c 0,55,56
 541 257 541 257 548 283.5 c 128,-1,57
 555 310 555 310 561 341 c 2,58,-1
 582 437 l 2,59,60
 582 444 582 444 584 451 c 128,-1,61
 586 458 586 458 588 467 c 0,62,63
 594 488 594 488 599.5 515 c 128,-1,64
 605 542 605 542 603 565.5 c 128,-1,65
 601 589 601 589 588.5 605 c 128,-1,66
 576 621 576 621 547 621 c 0,67,68
 527 621 527 621 513 616 c 128,-1,69
 499 611 499 611 487 593 c 0,70,71
 484 582 484 582 477.5 555.5 c 128,-1,72
 471 529 471 529 463 498 c 0,73,74
 454 468 454 468 447 441 c 128,-1,75
 440 414 440 414 437 403 c 0,76,77
 432 388 432 388 420 363 c 128,-1,78
 408 338 408 338 391.5 309 c 128,-1,79
 375 280 375 280 354.5 250.5 c 128,-1,80
 334 221 334 221 312.5 196.5 c 128,-1,81
 291 172 291 172 268.5 157 c 128,-1,82
 246 142 246 142 225 142 c 0,83,84
 212 142 212 142 203 152 c 128,-1,85
 194 162 194 162 188.5 176 c 128,-1,86
 183 190 183 190 180.5 204 c 128,-1,87
 178 218 178 218 177 226 c 2,88,-1
 180 235 l 1,89,-1
 189 278 l 1,90,91
 207 344 207 344 231 406.5 c 128,-1,92
 255 469 255 469 290 532 c 0,93,94
 299 551 299 551 312 571 c 128,-1,95
 325 591 325 591 337.5 611 c 128,-1,96
 350 631 350 631 361.5 652 c 128,-1,97
 373 673 373 673 379 695 c 0,98,99
 385 716 385 716 377.5 730 c 128,-1,100
 370 744 370 744 345 744 c 0,101,102
 317 744 317 744 285.5 709.5 c 128,-1,103
 254 675 254 675 223.5 622 c 128,-1,104
 193 569 193 569 165.5 506 c 128,-1,105
 138 443 138 443 116 387 c 128,-1,106
 94 331 94 331 80 289 c 128,-1,107
 66 247 66 247 64 237 c 0,0,1
EndSplineSet
Validated: 41
EndChar

StartChar: x
Encoding: 120 120 97
Width: 677
Flags: W
LayerCount: 2
Fore
SplineSet
393 313 m 0,0,1
 397 307 397 307 405 290.5 c 128,-1,2
 413 274 413 274 421 256 c 128,-1,3
 429 238 429 238 436 221.5 c 128,-1,4
 443 205 443 205 445 198 c 0,5,6
 450 183 450 183 458 150 c 128,-1,7
 466 117 466 117 478 83.5 c 128,-1,8
 490 50 490 50 505.5 25 c 128,-1,9
 521 0 521 0 542 0 c 0,10,11
 565 0 565 0 574.5 6 c 128,-1,12
 584 12 584 12 592 32 c 0,13,14
 605 82 605 82 597 131.5 c 128,-1,15
 589 181 589 181 571 228.5 c 128,-1,16
 553 276 553 276 530.5 320 c 128,-1,17
 508 364 508 364 492 403 c 0,18,19
 488 412 488 412 488 415 c 256,20,21
 488 418 488 418 490 426 c 0,22,23
 496 447 496 447 521 471 c 128,-1,24
 546 495 546 495 580.5 520 c 128,-1,25
 615 545 615 545 654.5 571 c 128,-1,26
 694 597 694 597 729 623 c 128,-1,27
 764 649 764 649 789 674.5 c 128,-1,28
 814 700 814 700 821 724 c 0,29,30
 825 741 825 741 815.5 750 c 128,-1,31
 806 759 806 759 788 759 c 0,32,33
 758 759 758 759 723.5 741.5 c 128,-1,34
 689 724 689 724 654 698 c 128,-1,35
 619 672 619 672 585.5 641.5 c 128,-1,36
 552 611 552 611 522.5 585 c 128,-1,37
 493 559 493 559 469.5 541.5 c 128,-1,38
 446 524 446 524 432 524 c 0,39,40
 421 524 421 524 420 527.5 c 128,-1,41
 419 531 419 531 414 539 c 0,42,43
 412 540 412 540 407 549.5 c 128,-1,44
 402 559 402 559 396 569.5 c 128,-1,45
 390 580 390 580 384.5 589.5 c 128,-1,46
 379 599 379 599 378 602 c 2,47,-1
 297 695 l 2,48,49
 292 703 292 703 282 703 c 0,50,51
 273 703 273 703 265 703 c 0,52,53
 242 703 242 703 231 695.5 c 128,-1,54
 220 688 220 688 212 668 c 0,55,56
 208 654 208 654 212 643.5 c 128,-1,57
 216 633 216 633 224 620 c 0,58,59
 229 610 229 610 243 587 c 128,-1,60
 257 564 257 564 272.5 538 c 128,-1,61
 288 512 288 512 302.5 489.5 c 128,-1,62
 317 467 317 467 323 458 c 0,63,64
 328 450 328 450 327.5 443.5 c 128,-1,65
 327 437 327 437 325 430 c 2,66,-1
 323 421 l 2,67,68
 322 416 322 416 319 413 c 128,-1,69
 316 410 316 410 311 403 c 0,70,71
 278 370 278 370 233 329 c 128,-1,72
 188 288 188 288 144.5 243 c 128,-1,73
 101 198 101 198 67 151.5 c 128,-1,74
 33 105 33 105 21 62 c 0,75,76
 15 39 15 39 22 29 c 128,-1,77
 29 19 29 19 55 19 c 0,78,79
 85 19 85 19 116 41.5 c 128,-1,80
 147 64 147 64 176.5 97.5 c 128,-1,81
 206 131 206 131 234.5 170 c 128,-1,82
 263 209 263 209 289 242.5 c 128,-1,83
 315 276 315 276 338 298.5 c 128,-1,84
 361 321 361 321 379 321 c 0,85,86
 382 321 382 321 386 318.5 c 128,-1,87
 390 316 390 316 393 313 c 0,0,1
EndSplineSet
Validated: 41
EndChar

